%TF.GenerationSoftware,KiCad,Pcbnew,(5.1.10)-1*%
%TF.CreationDate,2021-10-24T22:50:07+08:00*%
%TF.ProjectId,ESP8266_Wakener,45535038-3236-4365-9f57-616b656e6572,rev?*%
%TF.SameCoordinates,Original*%
%TF.FileFunction,Copper,L2,Bot*%
%TF.FilePolarity,Positive*%
%FSLAX46Y46*%
G04 Gerber Fmt 4.6, Leading zero omitted, Abs format (unit mm)*
G04 Created by KiCad (PCBNEW (5.1.10)-1) date 2021-10-24 22:50:07*
%MOMM*%
%LPD*%
G01*
G04 APERTURE LIST*
%TA.AperFunction,ComponentPad*%
%ADD10O,3.500000X1.900000*%
%TD*%
%TA.AperFunction,ComponentPad*%
%ADD11O,1.300000X2.000000*%
%TD*%
%TA.AperFunction,ComponentPad*%
%ADD12O,2.500000X1.100000*%
%TD*%
%TA.AperFunction,ComponentPad*%
%ADD13O,1.100000X2.500000*%
%TD*%
%TA.AperFunction,ComponentPad*%
%ADD14R,1.100000X2.500000*%
%TD*%
%TA.AperFunction,ViaPad*%
%ADD15C,0.700000*%
%TD*%
%TA.AperFunction,Conductor*%
%ADD16C,0.200000*%
%TD*%
%TA.AperFunction,Conductor*%
%ADD17C,0.600000*%
%TD*%
%TA.AperFunction,Conductor*%
%ADD18C,0.254000*%
%TD*%
%TA.AperFunction,Conductor*%
%ADD19C,0.350000*%
%TD*%
%ADD20C,0.350000*%
%ADD21O,2.500000X0.900000*%
G04 APERTURE END LIST*
D10*
%TO.P,J1,5*%
%TO.N,GND*%
X87900000Y-92800000D03*
X87900000Y-104200000D03*
%TD*%
D11*
%TO.P,S1,3*%
%TO.N,N/C*%
X94042000Y-90774000D03*
%TO.P,S1,2*%
%TO.N,GND*%
X96582000Y-90774000D03*
%TO.P,S1,1*%
%TO.N,/SW*%
X99122000Y-90774000D03*
%TD*%
D12*
%TO.P,U2,22*%
%TO.N,N/C*%
X102410000Y-103938000D03*
%TO.P,U2,21*%
X102410000Y-101938000D03*
%TO.P,U2,20*%
X102410000Y-99938000D03*
%TO.P,U2,19*%
X102410000Y-97938000D03*
%TO.P,U2,18*%
X102410000Y-95938000D03*
%TO.P,U2,17*%
X102410000Y-93938000D03*
D13*
%TO.P,U2,16*%
X118110000Y-106648000D03*
%TO.P,U2,15*%
X116110000Y-106648000D03*
%TO.P,U2,14*%
X114110000Y-106648000D03*
%TO.P,U2,13*%
X112110000Y-106648000D03*
%TO.P,U2,12*%
%TO.N,/PULL_UP*%
X110110000Y-106648000D03*
%TO.P,U2,11*%
%TO.N,N/C*%
X108110000Y-106648000D03*
%TO.P,U2,10*%
%TO.N,Net-(R2-Pad2)*%
X106110000Y-106548000D03*
%TO.P,U2,9*%
%TO.N,GND*%
X104110000Y-106648000D03*
%TO.P,U2,8*%
%TO.N,/3.3V*%
X104110000Y-91248000D03*
%TO.P,U2,7*%
%TO.N,/SW*%
X106110000Y-91248000D03*
%TO.P,U2,6*%
%TO.N,N/C*%
X108110000Y-91248000D03*
%TO.P,U2,5*%
X110110000Y-91248000D03*
%TO.P,U2,4*%
X112110000Y-91248000D03*
%TO.P,U2,3*%
%TO.N,/PULL_UP*%
X114110000Y-91248000D03*
%TO.P,U2,2*%
%TO.N,N/C*%
X116110000Y-91248000D03*
D14*
%TO.P,U2,1*%
%TO.N,/PULL_UP*%
X118110000Y-91248000D03*
%TD*%
D15*
%TO.N,/PULL_UP*%
X91882000Y-93374000D03*
%TO.N,/3.3V*%
X92782000Y-92674000D03*
X97782000Y-92274000D03*
X100082000Y-107374000D03*
%TD*%
D16*
%TO.N,/PULL_UP*%
X91882000Y-93374000D02*
X91882000Y-89074000D01*
X91882000Y-89074000D02*
X92082000Y-88874000D01*
X92082000Y-88874000D02*
X112782000Y-88874000D01*
X114110000Y-90202000D02*
X114110000Y-91948000D01*
X112782000Y-88874000D02*
X114110000Y-90202000D01*
X114110000Y-101948000D02*
X110110000Y-105948000D01*
X114110000Y-91948000D02*
X114110000Y-101948000D01*
X112782000Y-88874000D02*
X117282000Y-88874000D01*
X118110000Y-89702000D02*
X118110000Y-91948000D01*
X117282000Y-88874000D02*
X118110000Y-89702000D01*
%TO.N,/3.3V*%
X93182000Y-92274000D02*
X97782000Y-92274000D01*
X92782000Y-92674000D02*
X93182000Y-92274000D01*
D17*
X100431999Y-107024001D02*
X100431999Y-92524001D01*
X100082000Y-107374000D02*
X100431999Y-107024001D01*
X101008000Y-91948000D02*
X104110000Y-91948000D01*
X100431999Y-92524001D02*
X101008000Y-91948000D01*
%TD*%
D18*
%TO.N,GND*%
X120355000Y-109120309D02*
X84934000Y-109121984D01*
X84934000Y-107307321D01*
X99405000Y-107307321D01*
X99405000Y-107440679D01*
X99431016Y-107571474D01*
X99482050Y-107694680D01*
X99556140Y-107805563D01*
X99650437Y-107899860D01*
X99761320Y-107973950D01*
X99884526Y-108024984D01*
X100015321Y-108051000D01*
X100148679Y-108051000D01*
X100279474Y-108024984D01*
X100402680Y-107973950D01*
X100513563Y-107899860D01*
X100607860Y-107805563D01*
X100681950Y-107694680D01*
X100705935Y-107636776D01*
X100853573Y-107489138D01*
X100877500Y-107469502D01*
X100955852Y-107374029D01*
X101014074Y-107265104D01*
X101049926Y-107146914D01*
X101058999Y-107054795D01*
X101058999Y-107054794D01*
X101062032Y-107024002D01*
X101058999Y-106993210D01*
X101058999Y-106775000D01*
X102925000Y-106775000D01*
X102925000Y-107475000D01*
X102972546Y-107703742D01*
X103063804Y-107918813D01*
X103195266Y-108111948D01*
X103361881Y-108275725D01*
X103557246Y-108403850D01*
X103773853Y-108491399D01*
X103800256Y-108491803D01*
X103983000Y-108366361D01*
X103983000Y-106775000D01*
X102925000Y-106775000D01*
X101058999Y-106775000D01*
X101058999Y-105821000D01*
X102925000Y-105821000D01*
X102925000Y-106521000D01*
X103983000Y-106521000D01*
X103983000Y-104929639D01*
X104237000Y-104929639D01*
X104237000Y-106521000D01*
X104257000Y-106521000D01*
X104257000Y-106775000D01*
X104237000Y-106775000D01*
X104237000Y-108366361D01*
X104419744Y-108491803D01*
X104446147Y-108491399D01*
X104662754Y-108403850D01*
X104858119Y-108275725D01*
X105024734Y-108111948D01*
X105156196Y-107918813D01*
X105247454Y-107703742D01*
X105281744Y-107538774D01*
X105295838Y-107585236D01*
X105377273Y-107737591D01*
X105486867Y-107871133D01*
X105620408Y-107980727D01*
X105772763Y-108062162D01*
X105938078Y-108112310D01*
X106110000Y-108129243D01*
X106281921Y-108112310D01*
X106447236Y-108062162D01*
X106599591Y-107980727D01*
X106733133Y-107871133D01*
X106842727Y-107737592D01*
X106924162Y-107585237D01*
X106974310Y-107419922D01*
X106977150Y-107391078D01*
X107233000Y-107391078D01*
X107245690Y-107519921D01*
X107295838Y-107685236D01*
X107377273Y-107837591D01*
X107486867Y-107971133D01*
X107620408Y-108080727D01*
X107772763Y-108162162D01*
X107938078Y-108212310D01*
X108110000Y-108229243D01*
X108281921Y-108212310D01*
X108447236Y-108162162D01*
X108599591Y-108080727D01*
X108733133Y-107971133D01*
X108842727Y-107837592D01*
X108924162Y-107685237D01*
X108974310Y-107519922D01*
X108987000Y-107391079D01*
X108987000Y-105904921D01*
X108974310Y-105776078D01*
X108924162Y-105610763D01*
X108842727Y-105458408D01*
X108733133Y-105324867D01*
X108599592Y-105215273D01*
X108447237Y-105133838D01*
X108281922Y-105083690D01*
X108110000Y-105066757D01*
X107938079Y-105083690D01*
X107772764Y-105133838D01*
X107620409Y-105215273D01*
X107486868Y-105324867D01*
X107377274Y-105458408D01*
X107295839Y-105610763D01*
X107245691Y-105776078D01*
X107233001Y-105904921D01*
X107233000Y-107391078D01*
X106977150Y-107391078D01*
X106987000Y-107291079D01*
X106987000Y-105804921D01*
X106974310Y-105676078D01*
X106924162Y-105510763D01*
X106842727Y-105358408D01*
X106733133Y-105224867D01*
X106599592Y-105115273D01*
X106447237Y-105033838D01*
X106281922Y-104983690D01*
X106110000Y-104966757D01*
X105938079Y-104983690D01*
X105772764Y-105033838D01*
X105620409Y-105115273D01*
X105486868Y-105224867D01*
X105377274Y-105358408D01*
X105295839Y-105510763D01*
X105257076Y-105638548D01*
X105247454Y-105592258D01*
X105156196Y-105377187D01*
X105024734Y-105184052D01*
X104858119Y-105020275D01*
X104662754Y-104892150D01*
X104446147Y-104804601D01*
X104419744Y-104804197D01*
X104237000Y-104929639D01*
X103983000Y-104929639D01*
X103800256Y-104804197D01*
X103773853Y-104804601D01*
X103557246Y-104892150D01*
X103361881Y-105020275D01*
X103195266Y-105184052D01*
X103063804Y-105377187D01*
X102972546Y-105592258D01*
X102925000Y-105821000D01*
X101058999Y-105821000D01*
X101058999Y-104527176D01*
X101086867Y-104561133D01*
X101220408Y-104670727D01*
X101372763Y-104752162D01*
X101538078Y-104802310D01*
X101666921Y-104815000D01*
X103153079Y-104815000D01*
X103281922Y-104802310D01*
X103447237Y-104752162D01*
X103599592Y-104670727D01*
X103733133Y-104561133D01*
X103842727Y-104427592D01*
X103924162Y-104275237D01*
X103974310Y-104109922D01*
X103991243Y-103938000D01*
X103974310Y-103766078D01*
X103924162Y-103600763D01*
X103842727Y-103448408D01*
X103733133Y-103314867D01*
X103599592Y-103205273D01*
X103447237Y-103123838D01*
X103281922Y-103073690D01*
X103153079Y-103061000D01*
X101666921Y-103061000D01*
X101538078Y-103073690D01*
X101372763Y-103123838D01*
X101220408Y-103205273D01*
X101086867Y-103314867D01*
X101058999Y-103348824D01*
X101058999Y-102527176D01*
X101086867Y-102561133D01*
X101220408Y-102670727D01*
X101372763Y-102752162D01*
X101538078Y-102802310D01*
X101666921Y-102815000D01*
X103153079Y-102815000D01*
X103281922Y-102802310D01*
X103447237Y-102752162D01*
X103599592Y-102670727D01*
X103733133Y-102561133D01*
X103842727Y-102427592D01*
X103924162Y-102275237D01*
X103974310Y-102109922D01*
X103991243Y-101938000D01*
X103974310Y-101766078D01*
X103924162Y-101600763D01*
X103842727Y-101448408D01*
X103733133Y-101314867D01*
X103599592Y-101205273D01*
X103447237Y-101123838D01*
X103281922Y-101073690D01*
X103153079Y-101061000D01*
X101666921Y-101061000D01*
X101538078Y-101073690D01*
X101372763Y-101123838D01*
X101220408Y-101205273D01*
X101086867Y-101314867D01*
X101058999Y-101348824D01*
X101058999Y-100527176D01*
X101086867Y-100561133D01*
X101220408Y-100670727D01*
X101372763Y-100752162D01*
X101538078Y-100802310D01*
X101666921Y-100815000D01*
X103153079Y-100815000D01*
X103281922Y-100802310D01*
X103447237Y-100752162D01*
X103599592Y-100670727D01*
X103733133Y-100561133D01*
X103842727Y-100427592D01*
X103924162Y-100275237D01*
X103974310Y-100109922D01*
X103991243Y-99938000D01*
X103974310Y-99766078D01*
X103924162Y-99600763D01*
X103842727Y-99448408D01*
X103733133Y-99314867D01*
X103599592Y-99205273D01*
X103447237Y-99123838D01*
X103281922Y-99073690D01*
X103153079Y-99061000D01*
X101666921Y-99061000D01*
X101538078Y-99073690D01*
X101372763Y-99123838D01*
X101220408Y-99205273D01*
X101086867Y-99314867D01*
X101058999Y-99348824D01*
X101058999Y-98527176D01*
X101086867Y-98561133D01*
X101220408Y-98670727D01*
X101372763Y-98752162D01*
X101538078Y-98802310D01*
X101666921Y-98815000D01*
X103153079Y-98815000D01*
X103281922Y-98802310D01*
X103447237Y-98752162D01*
X103599592Y-98670727D01*
X103733133Y-98561133D01*
X103842727Y-98427592D01*
X103924162Y-98275237D01*
X103974310Y-98109922D01*
X103991243Y-97938000D01*
X103974310Y-97766078D01*
X103924162Y-97600763D01*
X103842727Y-97448408D01*
X103733133Y-97314867D01*
X103599592Y-97205273D01*
X103447237Y-97123838D01*
X103281922Y-97073690D01*
X103153079Y-97061000D01*
X101666921Y-97061000D01*
X101538078Y-97073690D01*
X101372763Y-97123838D01*
X101220408Y-97205273D01*
X101086867Y-97314867D01*
X101058999Y-97348824D01*
X101058999Y-96527176D01*
X101086867Y-96561133D01*
X101220408Y-96670727D01*
X101372763Y-96752162D01*
X101538078Y-96802310D01*
X101666921Y-96815000D01*
X103153079Y-96815000D01*
X103281922Y-96802310D01*
X103447237Y-96752162D01*
X103599592Y-96670727D01*
X103733133Y-96561133D01*
X103842727Y-96427592D01*
X103924162Y-96275237D01*
X103974310Y-96109922D01*
X103991243Y-95938000D01*
X103974310Y-95766078D01*
X103924162Y-95600763D01*
X103842727Y-95448408D01*
X103733133Y-95314867D01*
X103599592Y-95205273D01*
X103447237Y-95123838D01*
X103281922Y-95073690D01*
X103153079Y-95061000D01*
X101666921Y-95061000D01*
X101538078Y-95073690D01*
X101372763Y-95123838D01*
X101220408Y-95205273D01*
X101086867Y-95314867D01*
X101058999Y-95348824D01*
X101058999Y-94527176D01*
X101086867Y-94561133D01*
X101220408Y-94670727D01*
X101372763Y-94752162D01*
X101538078Y-94802310D01*
X101666921Y-94815000D01*
X103153079Y-94815000D01*
X103281922Y-94802310D01*
X103447237Y-94752162D01*
X103599592Y-94670727D01*
X103733133Y-94561133D01*
X103842727Y-94427592D01*
X103924162Y-94275237D01*
X103974310Y-94109922D01*
X103991243Y-93938000D01*
X103974310Y-93766078D01*
X103924162Y-93600763D01*
X103842727Y-93448408D01*
X103733133Y-93314867D01*
X103599592Y-93205273D01*
X103447237Y-93123838D01*
X103281922Y-93073690D01*
X103153079Y-93061000D01*
X101666921Y-93061000D01*
X101538078Y-93073690D01*
X101372763Y-93123838D01*
X101220408Y-93205273D01*
X101086867Y-93314867D01*
X101058999Y-93348824D01*
X101058999Y-92783712D01*
X101267712Y-92575000D01*
X103491579Y-92575000D01*
X103620408Y-92680727D01*
X103772763Y-92762162D01*
X103938078Y-92812310D01*
X104110000Y-92829243D01*
X104281921Y-92812310D01*
X104447236Y-92762162D01*
X104599591Y-92680727D01*
X104733133Y-92571133D01*
X104842727Y-92437592D01*
X104924162Y-92285237D01*
X104974310Y-92119922D01*
X104987000Y-91991079D01*
X104987000Y-91991078D01*
X105233000Y-91991078D01*
X105245690Y-92119921D01*
X105295838Y-92285236D01*
X105377273Y-92437591D01*
X105486867Y-92571133D01*
X105620408Y-92680727D01*
X105772763Y-92762162D01*
X105938078Y-92812310D01*
X106110000Y-92829243D01*
X106281921Y-92812310D01*
X106447236Y-92762162D01*
X106599591Y-92680727D01*
X106733133Y-92571133D01*
X106842727Y-92437592D01*
X106924162Y-92285237D01*
X106974310Y-92119922D01*
X106987000Y-91991079D01*
X106987000Y-91991078D01*
X107233000Y-91991078D01*
X107245690Y-92119921D01*
X107295838Y-92285236D01*
X107377273Y-92437591D01*
X107486867Y-92571133D01*
X107620408Y-92680727D01*
X107772763Y-92762162D01*
X107938078Y-92812310D01*
X108110000Y-92829243D01*
X108281921Y-92812310D01*
X108447236Y-92762162D01*
X108599591Y-92680727D01*
X108733133Y-92571133D01*
X108842727Y-92437592D01*
X108924162Y-92285237D01*
X108974310Y-92119922D01*
X108987000Y-91991079D01*
X108987000Y-91991078D01*
X109233000Y-91991078D01*
X109245690Y-92119921D01*
X109295838Y-92285236D01*
X109377273Y-92437591D01*
X109486867Y-92571133D01*
X109620408Y-92680727D01*
X109772763Y-92762162D01*
X109938078Y-92812310D01*
X110110000Y-92829243D01*
X110281921Y-92812310D01*
X110447236Y-92762162D01*
X110599591Y-92680727D01*
X110733133Y-92571133D01*
X110842727Y-92437592D01*
X110924162Y-92285237D01*
X110974310Y-92119922D01*
X110987000Y-91991079D01*
X110987000Y-91991078D01*
X111233000Y-91991078D01*
X111245690Y-92119921D01*
X111295838Y-92285236D01*
X111377273Y-92437591D01*
X111486867Y-92571133D01*
X111620408Y-92680727D01*
X111772763Y-92762162D01*
X111938078Y-92812310D01*
X112110000Y-92829243D01*
X112281921Y-92812310D01*
X112447236Y-92762162D01*
X112599591Y-92680727D01*
X112733133Y-92571133D01*
X112842727Y-92437592D01*
X112924162Y-92285237D01*
X112974310Y-92119922D01*
X112987000Y-91991079D01*
X112987000Y-90504921D01*
X112974310Y-90376078D01*
X112924162Y-90210763D01*
X112842727Y-90058408D01*
X112733133Y-89924867D01*
X112599592Y-89815273D01*
X112447237Y-89733838D01*
X112281922Y-89683690D01*
X112110000Y-89666757D01*
X111938079Y-89683690D01*
X111772764Y-89733838D01*
X111620409Y-89815273D01*
X111486868Y-89924867D01*
X111377274Y-90058408D01*
X111295839Y-90210763D01*
X111245691Y-90376078D01*
X111233001Y-90504921D01*
X111233000Y-91991078D01*
X110987000Y-91991078D01*
X110987000Y-90504921D01*
X110974310Y-90376078D01*
X110924162Y-90210763D01*
X110842727Y-90058408D01*
X110733133Y-89924867D01*
X110599592Y-89815273D01*
X110447237Y-89733838D01*
X110281922Y-89683690D01*
X110110000Y-89666757D01*
X109938079Y-89683690D01*
X109772764Y-89733838D01*
X109620409Y-89815273D01*
X109486868Y-89924867D01*
X109377274Y-90058408D01*
X109295839Y-90210763D01*
X109245691Y-90376078D01*
X109233001Y-90504921D01*
X109233000Y-91991078D01*
X108987000Y-91991078D01*
X108987000Y-90504921D01*
X108974310Y-90376078D01*
X108924162Y-90210763D01*
X108842727Y-90058408D01*
X108733133Y-89924867D01*
X108599592Y-89815273D01*
X108447237Y-89733838D01*
X108281922Y-89683690D01*
X108110000Y-89666757D01*
X107938079Y-89683690D01*
X107772764Y-89733838D01*
X107620409Y-89815273D01*
X107486868Y-89924867D01*
X107377274Y-90058408D01*
X107295839Y-90210763D01*
X107245691Y-90376078D01*
X107233001Y-90504921D01*
X107233000Y-91991078D01*
X106987000Y-91991078D01*
X106987000Y-90504921D01*
X106974310Y-90376078D01*
X106924162Y-90210763D01*
X106842727Y-90058408D01*
X106733133Y-89924867D01*
X106599592Y-89815273D01*
X106447237Y-89733838D01*
X106281922Y-89683690D01*
X106110000Y-89666757D01*
X105938079Y-89683690D01*
X105772764Y-89733838D01*
X105620409Y-89815273D01*
X105486868Y-89924867D01*
X105377274Y-90058408D01*
X105295839Y-90210763D01*
X105245691Y-90376078D01*
X105233001Y-90504921D01*
X105233000Y-91991078D01*
X104987000Y-91991078D01*
X104987000Y-90504921D01*
X104974310Y-90376078D01*
X104924162Y-90210763D01*
X104842727Y-90058408D01*
X104733133Y-89924867D01*
X104599592Y-89815273D01*
X104447237Y-89733838D01*
X104281922Y-89683690D01*
X104110000Y-89666757D01*
X103938079Y-89683690D01*
X103772764Y-89733838D01*
X103620409Y-89815273D01*
X103486868Y-89924867D01*
X103377274Y-90058408D01*
X103295839Y-90210763D01*
X103245691Y-90376078D01*
X103233001Y-90504921D01*
X103233000Y-91321000D01*
X101038791Y-91321000D01*
X101007999Y-91317967D01*
X100977207Y-91321000D01*
X100977206Y-91321000D01*
X100885087Y-91330073D01*
X100766897Y-91365925D01*
X100657972Y-91424147D01*
X100562499Y-91502499D01*
X100542866Y-91526422D01*
X100010421Y-92058868D01*
X99986499Y-92078500D01*
X99908147Y-92173973D01*
X99890322Y-92207321D01*
X99849925Y-92282898D01*
X99814072Y-92401089D01*
X99801966Y-92524001D01*
X99805000Y-92554805D01*
X99804999Y-106755957D01*
X99761320Y-106774050D01*
X99650437Y-106848140D01*
X99556140Y-106942437D01*
X99482050Y-107053320D01*
X99431016Y-107176526D01*
X99405000Y-107307321D01*
X84934000Y-107307321D01*
X84934000Y-104572588D01*
X85559414Y-104572588D01*
X85587051Y-104689221D01*
X85711564Y-104974983D01*
X85889434Y-105230962D01*
X86113825Y-105447322D01*
X86376114Y-105615748D01*
X86666222Y-105729768D01*
X86973000Y-105785000D01*
X87773000Y-105785000D01*
X87773000Y-104327000D01*
X88027000Y-104327000D01*
X88027000Y-105785000D01*
X88827000Y-105785000D01*
X89133778Y-105729768D01*
X89423886Y-105615748D01*
X89686175Y-105447322D01*
X89910566Y-105230962D01*
X90088436Y-104974983D01*
X90212949Y-104689221D01*
X90240586Y-104572588D01*
X90120584Y-104327000D01*
X88027000Y-104327000D01*
X87773000Y-104327000D01*
X85679416Y-104327000D01*
X85559414Y-104572588D01*
X84934000Y-104572588D01*
X84934000Y-103827412D01*
X85559414Y-103827412D01*
X85679416Y-104073000D01*
X87773000Y-104073000D01*
X87773000Y-102615000D01*
X88027000Y-102615000D01*
X88027000Y-104073000D01*
X90120584Y-104073000D01*
X90240586Y-103827412D01*
X90212949Y-103710779D01*
X90088436Y-103425017D01*
X89910566Y-103169038D01*
X89686175Y-102952678D01*
X89423886Y-102784252D01*
X89133778Y-102670232D01*
X88827000Y-102615000D01*
X88027000Y-102615000D01*
X87773000Y-102615000D01*
X86973000Y-102615000D01*
X86666222Y-102670232D01*
X86376114Y-102784252D01*
X86113825Y-102952678D01*
X85889434Y-103169038D01*
X85711564Y-103425017D01*
X85587051Y-103710779D01*
X85559414Y-103827412D01*
X84934000Y-103827412D01*
X84934000Y-100713623D01*
X87023000Y-100713623D01*
X87023000Y-100886377D01*
X87056703Y-101055811D01*
X87122813Y-101215415D01*
X87218790Y-101359055D01*
X87340945Y-101481210D01*
X87484585Y-101577187D01*
X87644189Y-101643297D01*
X87813623Y-101677000D01*
X87986377Y-101677000D01*
X88155811Y-101643297D01*
X88315415Y-101577187D01*
X88459055Y-101481210D01*
X88581210Y-101359055D01*
X88677187Y-101215415D01*
X88743297Y-101055811D01*
X88777000Y-100886377D01*
X88777000Y-100713623D01*
X88743297Y-100544189D01*
X88677187Y-100384585D01*
X88581210Y-100240945D01*
X88459055Y-100118790D01*
X88315415Y-100022813D01*
X88155811Y-99956703D01*
X87986377Y-99923000D01*
X87813623Y-99923000D01*
X87644189Y-99956703D01*
X87484585Y-100022813D01*
X87340945Y-100118790D01*
X87218790Y-100240945D01*
X87122813Y-100384585D01*
X87056703Y-100544189D01*
X87023000Y-100713623D01*
X84934000Y-100713623D01*
X84934000Y-96113623D01*
X87023000Y-96113623D01*
X87023000Y-96286377D01*
X87056703Y-96455811D01*
X87122813Y-96615415D01*
X87218790Y-96759055D01*
X87340945Y-96881210D01*
X87484585Y-96977187D01*
X87644189Y-97043297D01*
X87813623Y-97077000D01*
X87986377Y-97077000D01*
X88155811Y-97043297D01*
X88315415Y-96977187D01*
X88459055Y-96881210D01*
X88581210Y-96759055D01*
X88677187Y-96615415D01*
X88743297Y-96455811D01*
X88777000Y-96286377D01*
X88777000Y-96113623D01*
X88743297Y-95944189D01*
X88677187Y-95784585D01*
X88581210Y-95640945D01*
X88459055Y-95518790D01*
X88315415Y-95422813D01*
X88155811Y-95356703D01*
X87986377Y-95323000D01*
X87813623Y-95323000D01*
X87644189Y-95356703D01*
X87484585Y-95422813D01*
X87340945Y-95518790D01*
X87218790Y-95640945D01*
X87122813Y-95784585D01*
X87056703Y-95944189D01*
X87023000Y-96113623D01*
X84934000Y-96113623D01*
X84934000Y-93172588D01*
X85559414Y-93172588D01*
X85587051Y-93289221D01*
X85711564Y-93574983D01*
X85889434Y-93830962D01*
X86113825Y-94047322D01*
X86376114Y-94215748D01*
X86666222Y-94329768D01*
X86973000Y-94385000D01*
X87773000Y-94385000D01*
X87773000Y-92927000D01*
X88027000Y-92927000D01*
X88027000Y-94385000D01*
X88827000Y-94385000D01*
X89133778Y-94329768D01*
X89423886Y-94215748D01*
X89686175Y-94047322D01*
X89910566Y-93830962D01*
X90088436Y-93574983D01*
X90205062Y-93307321D01*
X91205000Y-93307321D01*
X91205000Y-93440679D01*
X91231016Y-93571474D01*
X91282050Y-93694680D01*
X91356140Y-93805563D01*
X91450437Y-93899860D01*
X91561320Y-93973950D01*
X91684526Y-94024984D01*
X91815321Y-94051000D01*
X91948679Y-94051000D01*
X92079474Y-94024984D01*
X92202680Y-93973950D01*
X92313563Y-93899860D01*
X92407860Y-93805563D01*
X92481950Y-93694680D01*
X92532984Y-93571474D01*
X92559000Y-93440679D01*
X92559000Y-93314411D01*
X92584526Y-93324984D01*
X92715321Y-93351000D01*
X92848679Y-93351000D01*
X92979474Y-93324984D01*
X93102680Y-93273950D01*
X93213563Y-93199860D01*
X93307860Y-93105563D01*
X93381950Y-92994680D01*
X93432984Y-92871474D01*
X93459000Y-92740679D01*
X93459000Y-92701000D01*
X97253091Y-92701000D01*
X97256140Y-92705563D01*
X97350437Y-92799860D01*
X97461320Y-92873950D01*
X97584526Y-92924984D01*
X97715321Y-92951000D01*
X97848679Y-92951000D01*
X97979474Y-92924984D01*
X98102680Y-92873950D01*
X98213563Y-92799860D01*
X98307860Y-92705563D01*
X98381950Y-92594680D01*
X98432984Y-92471474D01*
X98459000Y-92340679D01*
X98459000Y-92207321D01*
X98432984Y-92076526D01*
X98381950Y-91953320D01*
X98307860Y-91842437D01*
X98213563Y-91748140D01*
X98102680Y-91674050D01*
X97979474Y-91623016D01*
X97848679Y-91597000D01*
X97777005Y-91597000D01*
X97817533Y-91499251D01*
X97867000Y-91251000D01*
X97867000Y-90901000D01*
X96709000Y-90901000D01*
X96709000Y-90921000D01*
X96455000Y-90921000D01*
X96455000Y-90901000D01*
X95297000Y-90901000D01*
X95297000Y-91251000D01*
X95346467Y-91499251D01*
X95443415Y-91733081D01*
X95519589Y-91847000D01*
X94701076Y-91847000D01*
X94736186Y-91818186D01*
X94858276Y-91669418D01*
X94948997Y-91499691D01*
X95004863Y-91315525D01*
X95019000Y-91171993D01*
X95019000Y-90376008D01*
X95004863Y-90232476D01*
X94948997Y-90048309D01*
X94858276Y-89878582D01*
X94736186Y-89729814D01*
X94587418Y-89607724D01*
X94417691Y-89517003D01*
X94233525Y-89461137D01*
X94042000Y-89442273D01*
X93850476Y-89461137D01*
X93666310Y-89517003D01*
X93496583Y-89607724D01*
X93347815Y-89729814D01*
X93225725Y-89878582D01*
X93135004Y-90048309D01*
X93079137Y-90232475D01*
X93065000Y-90376007D01*
X93065000Y-91171992D01*
X93079137Y-91315524D01*
X93135003Y-91499690D01*
X93225724Y-91669418D01*
X93347814Y-91818186D01*
X93382924Y-91847000D01*
X93202964Y-91847000D01*
X93181999Y-91844935D01*
X93161034Y-91847000D01*
X93161022Y-91847000D01*
X93098293Y-91853178D01*
X93017804Y-91877595D01*
X92987172Y-91893968D01*
X92943623Y-91917245D01*
X92894898Y-91957233D01*
X92894895Y-91957236D01*
X92878605Y-91970605D01*
X92865236Y-91986895D01*
X92854061Y-91998070D01*
X92848679Y-91997000D01*
X92715321Y-91997000D01*
X92584526Y-92023016D01*
X92461320Y-92074050D01*
X92350437Y-92148140D01*
X92309000Y-92189577D01*
X92309000Y-89301000D01*
X95949730Y-89301000D01*
X95763170Y-89425564D01*
X95584118Y-89604495D01*
X95443415Y-89814919D01*
X95346467Y-90048749D01*
X95297000Y-90297000D01*
X95297000Y-90647000D01*
X96455000Y-90647000D01*
X96455000Y-90627000D01*
X96709000Y-90627000D01*
X96709000Y-90647000D01*
X97867000Y-90647000D01*
X97867000Y-90376007D01*
X98145000Y-90376007D01*
X98145000Y-91171992D01*
X98159137Y-91315524D01*
X98215003Y-91499690D01*
X98305724Y-91669418D01*
X98427814Y-91818186D01*
X98576582Y-91940276D01*
X98746309Y-92030997D01*
X98930475Y-92086863D01*
X99122000Y-92105727D01*
X99313524Y-92086863D01*
X99497690Y-92030997D01*
X99667418Y-91940276D01*
X99816186Y-91818186D01*
X99938276Y-91669418D01*
X100028997Y-91499691D01*
X100084863Y-91315525D01*
X100099000Y-91171993D01*
X100099000Y-90376008D01*
X100084863Y-90232476D01*
X100028997Y-90048309D01*
X99938276Y-89878582D01*
X99816186Y-89729814D01*
X99667418Y-89607724D01*
X99497691Y-89517003D01*
X99313525Y-89461137D01*
X99122000Y-89442273D01*
X98930476Y-89461137D01*
X98746310Y-89517003D01*
X98576583Y-89607724D01*
X98427815Y-89729814D01*
X98305725Y-89878582D01*
X98215004Y-90048309D01*
X98159137Y-90232475D01*
X98145000Y-90376007D01*
X97867000Y-90376007D01*
X97867000Y-90297000D01*
X97817533Y-90048749D01*
X97720585Y-89814919D01*
X97579882Y-89604495D01*
X97400830Y-89425564D01*
X97214270Y-89301000D01*
X112605132Y-89301000D01*
X113372142Y-90068010D01*
X113295839Y-90210763D01*
X113245691Y-90376078D01*
X113233001Y-90504921D01*
X113233000Y-91991078D01*
X113245690Y-92119921D01*
X113295838Y-92285236D01*
X113377273Y-92437591D01*
X113486867Y-92571133D01*
X113620408Y-92680727D01*
X113683000Y-92714183D01*
X113683001Y-101771129D01*
X110349839Y-105104293D01*
X110281922Y-105083690D01*
X110110000Y-105066757D01*
X109938079Y-105083690D01*
X109772764Y-105133838D01*
X109620409Y-105215273D01*
X109486868Y-105324867D01*
X109377274Y-105458408D01*
X109295839Y-105610763D01*
X109245691Y-105776078D01*
X109233001Y-105904921D01*
X109233000Y-107391078D01*
X109245690Y-107519921D01*
X109295838Y-107685236D01*
X109377273Y-107837591D01*
X109486867Y-107971133D01*
X109620408Y-108080727D01*
X109772763Y-108162162D01*
X109938078Y-108212310D01*
X110110000Y-108229243D01*
X110281921Y-108212310D01*
X110447236Y-108162162D01*
X110599591Y-108080727D01*
X110733133Y-107971133D01*
X110842727Y-107837592D01*
X110924162Y-107685237D01*
X110974310Y-107519922D01*
X110987000Y-107391079D01*
X110987000Y-107391078D01*
X111233000Y-107391078D01*
X111245690Y-107519921D01*
X111295838Y-107685236D01*
X111377273Y-107837591D01*
X111486867Y-107971133D01*
X111620408Y-108080727D01*
X111772763Y-108162162D01*
X111938078Y-108212310D01*
X112110000Y-108229243D01*
X112281921Y-108212310D01*
X112447236Y-108162162D01*
X112599591Y-108080727D01*
X112733133Y-107971133D01*
X112842727Y-107837592D01*
X112924162Y-107685237D01*
X112974310Y-107519922D01*
X112987000Y-107391079D01*
X112987000Y-107391078D01*
X113233000Y-107391078D01*
X113245690Y-107519921D01*
X113295838Y-107685236D01*
X113377273Y-107837591D01*
X113486867Y-107971133D01*
X113620408Y-108080727D01*
X113772763Y-108162162D01*
X113938078Y-108212310D01*
X114110000Y-108229243D01*
X114281921Y-108212310D01*
X114447236Y-108162162D01*
X114599591Y-108080727D01*
X114733133Y-107971133D01*
X114842727Y-107837592D01*
X114924162Y-107685237D01*
X114974310Y-107519922D01*
X114987000Y-107391079D01*
X114987000Y-107391078D01*
X115233000Y-107391078D01*
X115245690Y-107519921D01*
X115295838Y-107685236D01*
X115377273Y-107837591D01*
X115486867Y-107971133D01*
X115620408Y-108080727D01*
X115772763Y-108162162D01*
X115938078Y-108212310D01*
X116110000Y-108229243D01*
X116281921Y-108212310D01*
X116447236Y-108162162D01*
X116599591Y-108080727D01*
X116733133Y-107971133D01*
X116842727Y-107837592D01*
X116924162Y-107685237D01*
X116974310Y-107519922D01*
X116987000Y-107391079D01*
X116987000Y-107391078D01*
X117233000Y-107391078D01*
X117245690Y-107519921D01*
X117295838Y-107685236D01*
X117377273Y-107837591D01*
X117486867Y-107971133D01*
X117620408Y-108080727D01*
X117772763Y-108162162D01*
X117938078Y-108212310D01*
X118110000Y-108229243D01*
X118281921Y-108212310D01*
X118447236Y-108162162D01*
X118599591Y-108080727D01*
X118733133Y-107971133D01*
X118842727Y-107837592D01*
X118924162Y-107685237D01*
X118974310Y-107519922D01*
X118987000Y-107391079D01*
X118987000Y-105904921D01*
X118974310Y-105776078D01*
X118924162Y-105610763D01*
X118842727Y-105458408D01*
X118733133Y-105324867D01*
X118599592Y-105215273D01*
X118447237Y-105133838D01*
X118281922Y-105083690D01*
X118110000Y-105066757D01*
X117938079Y-105083690D01*
X117772764Y-105133838D01*
X117620409Y-105215273D01*
X117486868Y-105324867D01*
X117377274Y-105458408D01*
X117295839Y-105610763D01*
X117245691Y-105776078D01*
X117233001Y-105904921D01*
X117233000Y-107391078D01*
X116987000Y-107391078D01*
X116987000Y-105904921D01*
X116974310Y-105776078D01*
X116924162Y-105610763D01*
X116842727Y-105458408D01*
X116733133Y-105324867D01*
X116599592Y-105215273D01*
X116447237Y-105133838D01*
X116281922Y-105083690D01*
X116110000Y-105066757D01*
X115938079Y-105083690D01*
X115772764Y-105133838D01*
X115620409Y-105215273D01*
X115486868Y-105324867D01*
X115377274Y-105458408D01*
X115295839Y-105610763D01*
X115245691Y-105776078D01*
X115233001Y-105904921D01*
X115233000Y-107391078D01*
X114987000Y-107391078D01*
X114987000Y-105904921D01*
X114974310Y-105776078D01*
X114924162Y-105610763D01*
X114842727Y-105458408D01*
X114733133Y-105324867D01*
X114599592Y-105215273D01*
X114447237Y-105133838D01*
X114281922Y-105083690D01*
X114110000Y-105066757D01*
X113938079Y-105083690D01*
X113772764Y-105133838D01*
X113620409Y-105215273D01*
X113486868Y-105324867D01*
X113377274Y-105458408D01*
X113295839Y-105610763D01*
X113245691Y-105776078D01*
X113233001Y-105904921D01*
X113233000Y-107391078D01*
X112987000Y-107391078D01*
X112987000Y-105904921D01*
X112974310Y-105776078D01*
X112924162Y-105610763D01*
X112842727Y-105458408D01*
X112733133Y-105324867D01*
X112599592Y-105215273D01*
X112447237Y-105133838D01*
X112281922Y-105083690D01*
X112110000Y-105066757D01*
X111938079Y-105083690D01*
X111772764Y-105133838D01*
X111620409Y-105215273D01*
X111486868Y-105324867D01*
X111377274Y-105458408D01*
X111295839Y-105610763D01*
X111245691Y-105776078D01*
X111233001Y-105904921D01*
X111233000Y-107391078D01*
X110987000Y-107391078D01*
X110987000Y-105904921D01*
X110974310Y-105776078D01*
X110953707Y-105708161D01*
X114397111Y-102264759D01*
X114413395Y-102251395D01*
X114426759Y-102235111D01*
X114426768Y-102235102D01*
X114466755Y-102186377D01*
X114506404Y-102112197D01*
X114506405Y-102112196D01*
X114530822Y-102031707D01*
X114537000Y-101968978D01*
X114537000Y-101968966D01*
X114539065Y-101948001D01*
X114537000Y-101927036D01*
X114537000Y-92714182D01*
X114599591Y-92680727D01*
X114733133Y-92571133D01*
X114842727Y-92437592D01*
X114924162Y-92285237D01*
X114974310Y-92119922D01*
X114987000Y-91991079D01*
X114987000Y-91991078D01*
X115233000Y-91991078D01*
X115245690Y-92119921D01*
X115295838Y-92285236D01*
X115377273Y-92437591D01*
X115486867Y-92571133D01*
X115620408Y-92680727D01*
X115772763Y-92762162D01*
X115938078Y-92812310D01*
X116110000Y-92829243D01*
X116281921Y-92812310D01*
X116447236Y-92762162D01*
X116599591Y-92680727D01*
X116733133Y-92571133D01*
X116842727Y-92437592D01*
X116924162Y-92285237D01*
X116974310Y-92119922D01*
X116987000Y-91991079D01*
X116987000Y-90504921D01*
X116974310Y-90376078D01*
X116924162Y-90210763D01*
X116842727Y-90058408D01*
X116733133Y-89924867D01*
X116599592Y-89815273D01*
X116447237Y-89733838D01*
X116281922Y-89683690D01*
X116110000Y-89666757D01*
X115938079Y-89683690D01*
X115772764Y-89733838D01*
X115620409Y-89815273D01*
X115486868Y-89924867D01*
X115377274Y-90058408D01*
X115295839Y-90210763D01*
X115245691Y-90376078D01*
X115233001Y-90504921D01*
X115233000Y-91991078D01*
X114987000Y-91991078D01*
X114987000Y-90504921D01*
X114974310Y-90376078D01*
X114924162Y-90210763D01*
X114842727Y-90058408D01*
X114733133Y-89924867D01*
X114599592Y-89815273D01*
X114447237Y-89733838D01*
X114281922Y-89683690D01*
X114186123Y-89674255D01*
X113812869Y-89301000D01*
X117105132Y-89301000D01*
X117483595Y-89679464D01*
X117434257Y-89694430D01*
X117377450Y-89724794D01*
X117327657Y-89765657D01*
X117286794Y-89815450D01*
X117256430Y-89872257D01*
X117237732Y-89933897D01*
X117231418Y-89998000D01*
X117231418Y-92498000D01*
X117237732Y-92562103D01*
X117256430Y-92623743D01*
X117286794Y-92680550D01*
X117327657Y-92730343D01*
X117377450Y-92771206D01*
X117434257Y-92801570D01*
X117495897Y-92820268D01*
X117560000Y-92826582D01*
X118660000Y-92826582D01*
X118724103Y-92820268D01*
X118785743Y-92801570D01*
X118842550Y-92771206D01*
X118892343Y-92730343D01*
X118933206Y-92680550D01*
X118963570Y-92623743D01*
X118982268Y-92562103D01*
X118988582Y-92498000D01*
X118988582Y-89998000D01*
X118982268Y-89933897D01*
X118963570Y-89872257D01*
X118933206Y-89815450D01*
X118892343Y-89765657D01*
X118842550Y-89724794D01*
X118785743Y-89694430D01*
X118724103Y-89675732D01*
X118660000Y-89669418D01*
X118535857Y-89669418D01*
X118530822Y-89618293D01*
X118506405Y-89537804D01*
X118466756Y-89463625D01*
X118466755Y-89463623D01*
X118426768Y-89414899D01*
X118426764Y-89414895D01*
X118413395Y-89398605D01*
X118397106Y-89385237D01*
X117598768Y-88586900D01*
X117585395Y-88570605D01*
X117520376Y-88517245D01*
X117446196Y-88477595D01*
X117365707Y-88453178D01*
X117302978Y-88447000D01*
X117302967Y-88447000D01*
X117282000Y-88444935D01*
X117261033Y-88447000D01*
X112802967Y-88447000D01*
X112782000Y-88444935D01*
X112761033Y-88447000D01*
X92102967Y-88447000D01*
X92082000Y-88444935D01*
X92061033Y-88447000D01*
X92061022Y-88447000D01*
X91998293Y-88453178D01*
X91917804Y-88477595D01*
X91894241Y-88490190D01*
X91843624Y-88517244D01*
X91796434Y-88555973D01*
X91778605Y-88570605D01*
X91765232Y-88586900D01*
X91594896Y-88757236D01*
X91578606Y-88770605D01*
X91565237Y-88786895D01*
X91565232Y-88786900D01*
X91525245Y-88835624D01*
X91485596Y-88909804D01*
X91461179Y-88990294D01*
X91452935Y-89074000D01*
X91455001Y-89094977D01*
X91455000Y-92845091D01*
X91450437Y-92848140D01*
X91356140Y-92942437D01*
X91282050Y-93053320D01*
X91231016Y-93176526D01*
X91205000Y-93307321D01*
X90205062Y-93307321D01*
X90212949Y-93289221D01*
X90240586Y-93172588D01*
X90120584Y-92927000D01*
X88027000Y-92927000D01*
X87773000Y-92927000D01*
X85679416Y-92927000D01*
X85559414Y-93172588D01*
X84934000Y-93172588D01*
X84934000Y-92427412D01*
X85559414Y-92427412D01*
X85679416Y-92673000D01*
X87773000Y-92673000D01*
X87773000Y-91215000D01*
X88027000Y-91215000D01*
X88027000Y-92673000D01*
X90120584Y-92673000D01*
X90240586Y-92427412D01*
X90212949Y-92310779D01*
X90088436Y-92025017D01*
X89910566Y-91769038D01*
X89686175Y-91552678D01*
X89423886Y-91384252D01*
X89133778Y-91270232D01*
X88827000Y-91215000D01*
X88027000Y-91215000D01*
X87773000Y-91215000D01*
X86973000Y-91215000D01*
X86666222Y-91270232D01*
X86376114Y-91384252D01*
X86113825Y-91552678D01*
X85889434Y-91769038D01*
X85711564Y-92025017D01*
X85587051Y-92310779D01*
X85559414Y-92427412D01*
X84934000Y-92427412D01*
X84934000Y-87727983D01*
X120355000Y-87726308D01*
X120355000Y-109120309D01*
%TA.AperFunction,Conductor*%
D19*
G36*
X120355000Y-109120309D02*
G01*
X84934000Y-109121984D01*
X84934000Y-107307321D01*
X99405000Y-107307321D01*
X99405000Y-107440679D01*
X99431016Y-107571474D01*
X99482050Y-107694680D01*
X99556140Y-107805563D01*
X99650437Y-107899860D01*
X99761320Y-107973950D01*
X99884526Y-108024984D01*
X100015321Y-108051000D01*
X100148679Y-108051000D01*
X100279474Y-108024984D01*
X100402680Y-107973950D01*
X100513563Y-107899860D01*
X100607860Y-107805563D01*
X100681950Y-107694680D01*
X100705935Y-107636776D01*
X100853573Y-107489138D01*
X100877500Y-107469502D01*
X100955852Y-107374029D01*
X101014074Y-107265104D01*
X101049926Y-107146914D01*
X101058999Y-107054795D01*
X101058999Y-107054794D01*
X101062032Y-107024002D01*
X101058999Y-106993210D01*
X101058999Y-106775000D01*
X102925000Y-106775000D01*
X102925000Y-107475000D01*
X102972546Y-107703742D01*
X103063804Y-107918813D01*
X103195266Y-108111948D01*
X103361881Y-108275725D01*
X103557246Y-108403850D01*
X103773853Y-108491399D01*
X103800256Y-108491803D01*
X103983000Y-108366361D01*
X103983000Y-106775000D01*
X102925000Y-106775000D01*
X101058999Y-106775000D01*
X101058999Y-105821000D01*
X102925000Y-105821000D01*
X102925000Y-106521000D01*
X103983000Y-106521000D01*
X103983000Y-104929639D01*
X104237000Y-104929639D01*
X104237000Y-106521000D01*
X104257000Y-106521000D01*
X104257000Y-106775000D01*
X104237000Y-106775000D01*
X104237000Y-108366361D01*
X104419744Y-108491803D01*
X104446147Y-108491399D01*
X104662754Y-108403850D01*
X104858119Y-108275725D01*
X105024734Y-108111948D01*
X105156196Y-107918813D01*
X105247454Y-107703742D01*
X105281744Y-107538774D01*
X105295838Y-107585236D01*
X105377273Y-107737591D01*
X105486867Y-107871133D01*
X105620408Y-107980727D01*
X105772763Y-108062162D01*
X105938078Y-108112310D01*
X106110000Y-108129243D01*
X106281921Y-108112310D01*
X106447236Y-108062162D01*
X106599591Y-107980727D01*
X106733133Y-107871133D01*
X106842727Y-107737592D01*
X106924162Y-107585237D01*
X106974310Y-107419922D01*
X106977150Y-107391078D01*
X107233000Y-107391078D01*
X107245690Y-107519921D01*
X107295838Y-107685236D01*
X107377273Y-107837591D01*
X107486867Y-107971133D01*
X107620408Y-108080727D01*
X107772763Y-108162162D01*
X107938078Y-108212310D01*
X108110000Y-108229243D01*
X108281921Y-108212310D01*
X108447236Y-108162162D01*
X108599591Y-108080727D01*
X108733133Y-107971133D01*
X108842727Y-107837592D01*
X108924162Y-107685237D01*
X108974310Y-107519922D01*
X108987000Y-107391079D01*
X108987000Y-105904921D01*
X108974310Y-105776078D01*
X108924162Y-105610763D01*
X108842727Y-105458408D01*
X108733133Y-105324867D01*
X108599592Y-105215273D01*
X108447237Y-105133838D01*
X108281922Y-105083690D01*
X108110000Y-105066757D01*
X107938079Y-105083690D01*
X107772764Y-105133838D01*
X107620409Y-105215273D01*
X107486868Y-105324867D01*
X107377274Y-105458408D01*
X107295839Y-105610763D01*
X107245691Y-105776078D01*
X107233001Y-105904921D01*
X107233000Y-107391078D01*
X106977150Y-107391078D01*
X106987000Y-107291079D01*
X106987000Y-105804921D01*
X106974310Y-105676078D01*
X106924162Y-105510763D01*
X106842727Y-105358408D01*
X106733133Y-105224867D01*
X106599592Y-105115273D01*
X106447237Y-105033838D01*
X106281922Y-104983690D01*
X106110000Y-104966757D01*
X105938079Y-104983690D01*
X105772764Y-105033838D01*
X105620409Y-105115273D01*
X105486868Y-105224867D01*
X105377274Y-105358408D01*
X105295839Y-105510763D01*
X105257076Y-105638548D01*
X105247454Y-105592258D01*
X105156196Y-105377187D01*
X105024734Y-105184052D01*
X104858119Y-105020275D01*
X104662754Y-104892150D01*
X104446147Y-104804601D01*
X104419744Y-104804197D01*
X104237000Y-104929639D01*
X103983000Y-104929639D01*
X103800256Y-104804197D01*
X103773853Y-104804601D01*
X103557246Y-104892150D01*
X103361881Y-105020275D01*
X103195266Y-105184052D01*
X103063804Y-105377187D01*
X102972546Y-105592258D01*
X102925000Y-105821000D01*
X101058999Y-105821000D01*
X101058999Y-104527176D01*
X101086867Y-104561133D01*
X101220408Y-104670727D01*
X101372763Y-104752162D01*
X101538078Y-104802310D01*
X101666921Y-104815000D01*
X103153079Y-104815000D01*
X103281922Y-104802310D01*
X103447237Y-104752162D01*
X103599592Y-104670727D01*
X103733133Y-104561133D01*
X103842727Y-104427592D01*
X103924162Y-104275237D01*
X103974310Y-104109922D01*
X103991243Y-103938000D01*
X103974310Y-103766078D01*
X103924162Y-103600763D01*
X103842727Y-103448408D01*
X103733133Y-103314867D01*
X103599592Y-103205273D01*
X103447237Y-103123838D01*
X103281922Y-103073690D01*
X103153079Y-103061000D01*
X101666921Y-103061000D01*
X101538078Y-103073690D01*
X101372763Y-103123838D01*
X101220408Y-103205273D01*
X101086867Y-103314867D01*
X101058999Y-103348824D01*
X101058999Y-102527176D01*
X101086867Y-102561133D01*
X101220408Y-102670727D01*
X101372763Y-102752162D01*
X101538078Y-102802310D01*
X101666921Y-102815000D01*
X103153079Y-102815000D01*
X103281922Y-102802310D01*
X103447237Y-102752162D01*
X103599592Y-102670727D01*
X103733133Y-102561133D01*
X103842727Y-102427592D01*
X103924162Y-102275237D01*
X103974310Y-102109922D01*
X103991243Y-101938000D01*
X103974310Y-101766078D01*
X103924162Y-101600763D01*
X103842727Y-101448408D01*
X103733133Y-101314867D01*
X103599592Y-101205273D01*
X103447237Y-101123838D01*
X103281922Y-101073690D01*
X103153079Y-101061000D01*
X101666921Y-101061000D01*
X101538078Y-101073690D01*
X101372763Y-101123838D01*
X101220408Y-101205273D01*
X101086867Y-101314867D01*
X101058999Y-101348824D01*
X101058999Y-100527176D01*
X101086867Y-100561133D01*
X101220408Y-100670727D01*
X101372763Y-100752162D01*
X101538078Y-100802310D01*
X101666921Y-100815000D01*
X103153079Y-100815000D01*
X103281922Y-100802310D01*
X103447237Y-100752162D01*
X103599592Y-100670727D01*
X103733133Y-100561133D01*
X103842727Y-100427592D01*
X103924162Y-100275237D01*
X103974310Y-100109922D01*
X103991243Y-99938000D01*
X103974310Y-99766078D01*
X103924162Y-99600763D01*
X103842727Y-99448408D01*
X103733133Y-99314867D01*
X103599592Y-99205273D01*
X103447237Y-99123838D01*
X103281922Y-99073690D01*
X103153079Y-99061000D01*
X101666921Y-99061000D01*
X101538078Y-99073690D01*
X101372763Y-99123838D01*
X101220408Y-99205273D01*
X101086867Y-99314867D01*
X101058999Y-99348824D01*
X101058999Y-98527176D01*
X101086867Y-98561133D01*
X101220408Y-98670727D01*
X101372763Y-98752162D01*
X101538078Y-98802310D01*
X101666921Y-98815000D01*
X103153079Y-98815000D01*
X103281922Y-98802310D01*
X103447237Y-98752162D01*
X103599592Y-98670727D01*
X103733133Y-98561133D01*
X103842727Y-98427592D01*
X103924162Y-98275237D01*
X103974310Y-98109922D01*
X103991243Y-97938000D01*
X103974310Y-97766078D01*
X103924162Y-97600763D01*
X103842727Y-97448408D01*
X103733133Y-97314867D01*
X103599592Y-97205273D01*
X103447237Y-97123838D01*
X103281922Y-97073690D01*
X103153079Y-97061000D01*
X101666921Y-97061000D01*
X101538078Y-97073690D01*
X101372763Y-97123838D01*
X101220408Y-97205273D01*
X101086867Y-97314867D01*
X101058999Y-97348824D01*
X101058999Y-96527176D01*
X101086867Y-96561133D01*
X101220408Y-96670727D01*
X101372763Y-96752162D01*
X101538078Y-96802310D01*
X101666921Y-96815000D01*
X103153079Y-96815000D01*
X103281922Y-96802310D01*
X103447237Y-96752162D01*
X103599592Y-96670727D01*
X103733133Y-96561133D01*
X103842727Y-96427592D01*
X103924162Y-96275237D01*
X103974310Y-96109922D01*
X103991243Y-95938000D01*
X103974310Y-95766078D01*
X103924162Y-95600763D01*
X103842727Y-95448408D01*
X103733133Y-95314867D01*
X103599592Y-95205273D01*
X103447237Y-95123838D01*
X103281922Y-95073690D01*
X103153079Y-95061000D01*
X101666921Y-95061000D01*
X101538078Y-95073690D01*
X101372763Y-95123838D01*
X101220408Y-95205273D01*
X101086867Y-95314867D01*
X101058999Y-95348824D01*
X101058999Y-94527176D01*
X101086867Y-94561133D01*
X101220408Y-94670727D01*
X101372763Y-94752162D01*
X101538078Y-94802310D01*
X101666921Y-94815000D01*
X103153079Y-94815000D01*
X103281922Y-94802310D01*
X103447237Y-94752162D01*
X103599592Y-94670727D01*
X103733133Y-94561133D01*
X103842727Y-94427592D01*
X103924162Y-94275237D01*
X103974310Y-94109922D01*
X103991243Y-93938000D01*
X103974310Y-93766078D01*
X103924162Y-93600763D01*
X103842727Y-93448408D01*
X103733133Y-93314867D01*
X103599592Y-93205273D01*
X103447237Y-93123838D01*
X103281922Y-93073690D01*
X103153079Y-93061000D01*
X101666921Y-93061000D01*
X101538078Y-93073690D01*
X101372763Y-93123838D01*
X101220408Y-93205273D01*
X101086867Y-93314867D01*
X101058999Y-93348824D01*
X101058999Y-92783712D01*
X101267712Y-92575000D01*
X103491579Y-92575000D01*
X103620408Y-92680727D01*
X103772763Y-92762162D01*
X103938078Y-92812310D01*
X104110000Y-92829243D01*
X104281921Y-92812310D01*
X104447236Y-92762162D01*
X104599591Y-92680727D01*
X104733133Y-92571133D01*
X104842727Y-92437592D01*
X104924162Y-92285237D01*
X104974310Y-92119922D01*
X104987000Y-91991079D01*
X104987000Y-91991078D01*
X105233000Y-91991078D01*
X105245690Y-92119921D01*
X105295838Y-92285236D01*
X105377273Y-92437591D01*
X105486867Y-92571133D01*
X105620408Y-92680727D01*
X105772763Y-92762162D01*
X105938078Y-92812310D01*
X106110000Y-92829243D01*
X106281921Y-92812310D01*
X106447236Y-92762162D01*
X106599591Y-92680727D01*
X106733133Y-92571133D01*
X106842727Y-92437592D01*
X106924162Y-92285237D01*
X106974310Y-92119922D01*
X106987000Y-91991079D01*
X106987000Y-91991078D01*
X107233000Y-91991078D01*
X107245690Y-92119921D01*
X107295838Y-92285236D01*
X107377273Y-92437591D01*
X107486867Y-92571133D01*
X107620408Y-92680727D01*
X107772763Y-92762162D01*
X107938078Y-92812310D01*
X108110000Y-92829243D01*
X108281921Y-92812310D01*
X108447236Y-92762162D01*
X108599591Y-92680727D01*
X108733133Y-92571133D01*
X108842727Y-92437592D01*
X108924162Y-92285237D01*
X108974310Y-92119922D01*
X108987000Y-91991079D01*
X108987000Y-91991078D01*
X109233000Y-91991078D01*
X109245690Y-92119921D01*
X109295838Y-92285236D01*
X109377273Y-92437591D01*
X109486867Y-92571133D01*
X109620408Y-92680727D01*
X109772763Y-92762162D01*
X109938078Y-92812310D01*
X110110000Y-92829243D01*
X110281921Y-92812310D01*
X110447236Y-92762162D01*
X110599591Y-92680727D01*
X110733133Y-92571133D01*
X110842727Y-92437592D01*
X110924162Y-92285237D01*
X110974310Y-92119922D01*
X110987000Y-91991079D01*
X110987000Y-91991078D01*
X111233000Y-91991078D01*
X111245690Y-92119921D01*
X111295838Y-92285236D01*
X111377273Y-92437591D01*
X111486867Y-92571133D01*
X111620408Y-92680727D01*
X111772763Y-92762162D01*
X111938078Y-92812310D01*
X112110000Y-92829243D01*
X112281921Y-92812310D01*
X112447236Y-92762162D01*
X112599591Y-92680727D01*
X112733133Y-92571133D01*
X112842727Y-92437592D01*
X112924162Y-92285237D01*
X112974310Y-92119922D01*
X112987000Y-91991079D01*
X112987000Y-90504921D01*
X112974310Y-90376078D01*
X112924162Y-90210763D01*
X112842727Y-90058408D01*
X112733133Y-89924867D01*
X112599592Y-89815273D01*
X112447237Y-89733838D01*
X112281922Y-89683690D01*
X112110000Y-89666757D01*
X111938079Y-89683690D01*
X111772764Y-89733838D01*
X111620409Y-89815273D01*
X111486868Y-89924867D01*
X111377274Y-90058408D01*
X111295839Y-90210763D01*
X111245691Y-90376078D01*
X111233001Y-90504921D01*
X111233000Y-91991078D01*
X110987000Y-91991078D01*
X110987000Y-90504921D01*
X110974310Y-90376078D01*
X110924162Y-90210763D01*
X110842727Y-90058408D01*
X110733133Y-89924867D01*
X110599592Y-89815273D01*
X110447237Y-89733838D01*
X110281922Y-89683690D01*
X110110000Y-89666757D01*
X109938079Y-89683690D01*
X109772764Y-89733838D01*
X109620409Y-89815273D01*
X109486868Y-89924867D01*
X109377274Y-90058408D01*
X109295839Y-90210763D01*
X109245691Y-90376078D01*
X109233001Y-90504921D01*
X109233000Y-91991078D01*
X108987000Y-91991078D01*
X108987000Y-90504921D01*
X108974310Y-90376078D01*
X108924162Y-90210763D01*
X108842727Y-90058408D01*
X108733133Y-89924867D01*
X108599592Y-89815273D01*
X108447237Y-89733838D01*
X108281922Y-89683690D01*
X108110000Y-89666757D01*
X107938079Y-89683690D01*
X107772764Y-89733838D01*
X107620409Y-89815273D01*
X107486868Y-89924867D01*
X107377274Y-90058408D01*
X107295839Y-90210763D01*
X107245691Y-90376078D01*
X107233001Y-90504921D01*
X107233000Y-91991078D01*
X106987000Y-91991078D01*
X106987000Y-90504921D01*
X106974310Y-90376078D01*
X106924162Y-90210763D01*
X106842727Y-90058408D01*
X106733133Y-89924867D01*
X106599592Y-89815273D01*
X106447237Y-89733838D01*
X106281922Y-89683690D01*
X106110000Y-89666757D01*
X105938079Y-89683690D01*
X105772764Y-89733838D01*
X105620409Y-89815273D01*
X105486868Y-89924867D01*
X105377274Y-90058408D01*
X105295839Y-90210763D01*
X105245691Y-90376078D01*
X105233001Y-90504921D01*
X105233000Y-91991078D01*
X104987000Y-91991078D01*
X104987000Y-90504921D01*
X104974310Y-90376078D01*
X104924162Y-90210763D01*
X104842727Y-90058408D01*
X104733133Y-89924867D01*
X104599592Y-89815273D01*
X104447237Y-89733838D01*
X104281922Y-89683690D01*
X104110000Y-89666757D01*
X103938079Y-89683690D01*
X103772764Y-89733838D01*
X103620409Y-89815273D01*
X103486868Y-89924867D01*
X103377274Y-90058408D01*
X103295839Y-90210763D01*
X103245691Y-90376078D01*
X103233001Y-90504921D01*
X103233000Y-91321000D01*
X101038791Y-91321000D01*
X101007999Y-91317967D01*
X100977207Y-91321000D01*
X100977206Y-91321000D01*
X100885087Y-91330073D01*
X100766897Y-91365925D01*
X100657972Y-91424147D01*
X100562499Y-91502499D01*
X100542866Y-91526422D01*
X100010421Y-92058868D01*
X99986499Y-92078500D01*
X99908147Y-92173973D01*
X99890322Y-92207321D01*
X99849925Y-92282898D01*
X99814072Y-92401089D01*
X99801966Y-92524001D01*
X99805000Y-92554805D01*
X99804999Y-106755957D01*
X99761320Y-106774050D01*
X99650437Y-106848140D01*
X99556140Y-106942437D01*
X99482050Y-107053320D01*
X99431016Y-107176526D01*
X99405000Y-107307321D01*
X84934000Y-107307321D01*
X84934000Y-104572588D01*
X85559414Y-104572588D01*
X85587051Y-104689221D01*
X85711564Y-104974983D01*
X85889434Y-105230962D01*
X86113825Y-105447322D01*
X86376114Y-105615748D01*
X86666222Y-105729768D01*
X86973000Y-105785000D01*
X87773000Y-105785000D01*
X87773000Y-104327000D01*
X88027000Y-104327000D01*
X88027000Y-105785000D01*
X88827000Y-105785000D01*
X89133778Y-105729768D01*
X89423886Y-105615748D01*
X89686175Y-105447322D01*
X89910566Y-105230962D01*
X90088436Y-104974983D01*
X90212949Y-104689221D01*
X90240586Y-104572588D01*
X90120584Y-104327000D01*
X88027000Y-104327000D01*
X87773000Y-104327000D01*
X85679416Y-104327000D01*
X85559414Y-104572588D01*
X84934000Y-104572588D01*
X84934000Y-103827412D01*
X85559414Y-103827412D01*
X85679416Y-104073000D01*
X87773000Y-104073000D01*
X87773000Y-102615000D01*
X88027000Y-102615000D01*
X88027000Y-104073000D01*
X90120584Y-104073000D01*
X90240586Y-103827412D01*
X90212949Y-103710779D01*
X90088436Y-103425017D01*
X89910566Y-103169038D01*
X89686175Y-102952678D01*
X89423886Y-102784252D01*
X89133778Y-102670232D01*
X88827000Y-102615000D01*
X88027000Y-102615000D01*
X87773000Y-102615000D01*
X86973000Y-102615000D01*
X86666222Y-102670232D01*
X86376114Y-102784252D01*
X86113825Y-102952678D01*
X85889434Y-103169038D01*
X85711564Y-103425017D01*
X85587051Y-103710779D01*
X85559414Y-103827412D01*
X84934000Y-103827412D01*
X84934000Y-100713623D01*
X87023000Y-100713623D01*
X87023000Y-100886377D01*
X87056703Y-101055811D01*
X87122813Y-101215415D01*
X87218790Y-101359055D01*
X87340945Y-101481210D01*
X87484585Y-101577187D01*
X87644189Y-101643297D01*
X87813623Y-101677000D01*
X87986377Y-101677000D01*
X88155811Y-101643297D01*
X88315415Y-101577187D01*
X88459055Y-101481210D01*
X88581210Y-101359055D01*
X88677187Y-101215415D01*
X88743297Y-101055811D01*
X88777000Y-100886377D01*
X88777000Y-100713623D01*
X88743297Y-100544189D01*
X88677187Y-100384585D01*
X88581210Y-100240945D01*
X88459055Y-100118790D01*
X88315415Y-100022813D01*
X88155811Y-99956703D01*
X87986377Y-99923000D01*
X87813623Y-99923000D01*
X87644189Y-99956703D01*
X87484585Y-100022813D01*
X87340945Y-100118790D01*
X87218790Y-100240945D01*
X87122813Y-100384585D01*
X87056703Y-100544189D01*
X87023000Y-100713623D01*
X84934000Y-100713623D01*
X84934000Y-96113623D01*
X87023000Y-96113623D01*
X87023000Y-96286377D01*
X87056703Y-96455811D01*
X87122813Y-96615415D01*
X87218790Y-96759055D01*
X87340945Y-96881210D01*
X87484585Y-96977187D01*
X87644189Y-97043297D01*
X87813623Y-97077000D01*
X87986377Y-97077000D01*
X88155811Y-97043297D01*
X88315415Y-96977187D01*
X88459055Y-96881210D01*
X88581210Y-96759055D01*
X88677187Y-96615415D01*
X88743297Y-96455811D01*
X88777000Y-96286377D01*
X88777000Y-96113623D01*
X88743297Y-95944189D01*
X88677187Y-95784585D01*
X88581210Y-95640945D01*
X88459055Y-95518790D01*
X88315415Y-95422813D01*
X88155811Y-95356703D01*
X87986377Y-95323000D01*
X87813623Y-95323000D01*
X87644189Y-95356703D01*
X87484585Y-95422813D01*
X87340945Y-95518790D01*
X87218790Y-95640945D01*
X87122813Y-95784585D01*
X87056703Y-95944189D01*
X87023000Y-96113623D01*
X84934000Y-96113623D01*
X84934000Y-93172588D01*
X85559414Y-93172588D01*
X85587051Y-93289221D01*
X85711564Y-93574983D01*
X85889434Y-93830962D01*
X86113825Y-94047322D01*
X86376114Y-94215748D01*
X86666222Y-94329768D01*
X86973000Y-94385000D01*
X87773000Y-94385000D01*
X87773000Y-92927000D01*
X88027000Y-92927000D01*
X88027000Y-94385000D01*
X88827000Y-94385000D01*
X89133778Y-94329768D01*
X89423886Y-94215748D01*
X89686175Y-94047322D01*
X89910566Y-93830962D01*
X90088436Y-93574983D01*
X90205062Y-93307321D01*
X91205000Y-93307321D01*
X91205000Y-93440679D01*
X91231016Y-93571474D01*
X91282050Y-93694680D01*
X91356140Y-93805563D01*
X91450437Y-93899860D01*
X91561320Y-93973950D01*
X91684526Y-94024984D01*
X91815321Y-94051000D01*
X91948679Y-94051000D01*
X92079474Y-94024984D01*
X92202680Y-93973950D01*
X92313563Y-93899860D01*
X92407860Y-93805563D01*
X92481950Y-93694680D01*
X92532984Y-93571474D01*
X92559000Y-93440679D01*
X92559000Y-93314411D01*
X92584526Y-93324984D01*
X92715321Y-93351000D01*
X92848679Y-93351000D01*
X92979474Y-93324984D01*
X93102680Y-93273950D01*
X93213563Y-93199860D01*
X93307860Y-93105563D01*
X93381950Y-92994680D01*
X93432984Y-92871474D01*
X93459000Y-92740679D01*
X93459000Y-92701000D01*
X97253091Y-92701000D01*
X97256140Y-92705563D01*
X97350437Y-92799860D01*
X97461320Y-92873950D01*
X97584526Y-92924984D01*
X97715321Y-92951000D01*
X97848679Y-92951000D01*
X97979474Y-92924984D01*
X98102680Y-92873950D01*
X98213563Y-92799860D01*
X98307860Y-92705563D01*
X98381950Y-92594680D01*
X98432984Y-92471474D01*
X98459000Y-92340679D01*
X98459000Y-92207321D01*
X98432984Y-92076526D01*
X98381950Y-91953320D01*
X98307860Y-91842437D01*
X98213563Y-91748140D01*
X98102680Y-91674050D01*
X97979474Y-91623016D01*
X97848679Y-91597000D01*
X97777005Y-91597000D01*
X97817533Y-91499251D01*
X97867000Y-91251000D01*
X97867000Y-90901000D01*
X96709000Y-90901000D01*
X96709000Y-90921000D01*
X96455000Y-90921000D01*
X96455000Y-90901000D01*
X95297000Y-90901000D01*
X95297000Y-91251000D01*
X95346467Y-91499251D01*
X95443415Y-91733081D01*
X95519589Y-91847000D01*
X94701076Y-91847000D01*
X94736186Y-91818186D01*
X94858276Y-91669418D01*
X94948997Y-91499691D01*
X95004863Y-91315525D01*
X95019000Y-91171993D01*
X95019000Y-90376008D01*
X95004863Y-90232476D01*
X94948997Y-90048309D01*
X94858276Y-89878582D01*
X94736186Y-89729814D01*
X94587418Y-89607724D01*
X94417691Y-89517003D01*
X94233525Y-89461137D01*
X94042000Y-89442273D01*
X93850476Y-89461137D01*
X93666310Y-89517003D01*
X93496583Y-89607724D01*
X93347815Y-89729814D01*
X93225725Y-89878582D01*
X93135004Y-90048309D01*
X93079137Y-90232475D01*
X93065000Y-90376007D01*
X93065000Y-91171992D01*
X93079137Y-91315524D01*
X93135003Y-91499690D01*
X93225724Y-91669418D01*
X93347814Y-91818186D01*
X93382924Y-91847000D01*
X93202964Y-91847000D01*
X93181999Y-91844935D01*
X93161034Y-91847000D01*
X93161022Y-91847000D01*
X93098293Y-91853178D01*
X93017804Y-91877595D01*
X92987172Y-91893968D01*
X92943623Y-91917245D01*
X92894898Y-91957233D01*
X92894895Y-91957236D01*
X92878605Y-91970605D01*
X92865236Y-91986895D01*
X92854061Y-91998070D01*
X92848679Y-91997000D01*
X92715321Y-91997000D01*
X92584526Y-92023016D01*
X92461320Y-92074050D01*
X92350437Y-92148140D01*
X92309000Y-92189577D01*
X92309000Y-89301000D01*
X95949730Y-89301000D01*
X95763170Y-89425564D01*
X95584118Y-89604495D01*
X95443415Y-89814919D01*
X95346467Y-90048749D01*
X95297000Y-90297000D01*
X95297000Y-90647000D01*
X96455000Y-90647000D01*
X96455000Y-90627000D01*
X96709000Y-90627000D01*
X96709000Y-90647000D01*
X97867000Y-90647000D01*
X97867000Y-90376007D01*
X98145000Y-90376007D01*
X98145000Y-91171992D01*
X98159137Y-91315524D01*
X98215003Y-91499690D01*
X98305724Y-91669418D01*
X98427814Y-91818186D01*
X98576582Y-91940276D01*
X98746309Y-92030997D01*
X98930475Y-92086863D01*
X99122000Y-92105727D01*
X99313524Y-92086863D01*
X99497690Y-92030997D01*
X99667418Y-91940276D01*
X99816186Y-91818186D01*
X99938276Y-91669418D01*
X100028997Y-91499691D01*
X100084863Y-91315525D01*
X100099000Y-91171993D01*
X100099000Y-90376008D01*
X100084863Y-90232476D01*
X100028997Y-90048309D01*
X99938276Y-89878582D01*
X99816186Y-89729814D01*
X99667418Y-89607724D01*
X99497691Y-89517003D01*
X99313525Y-89461137D01*
X99122000Y-89442273D01*
X98930476Y-89461137D01*
X98746310Y-89517003D01*
X98576583Y-89607724D01*
X98427815Y-89729814D01*
X98305725Y-89878582D01*
X98215004Y-90048309D01*
X98159137Y-90232475D01*
X98145000Y-90376007D01*
X97867000Y-90376007D01*
X97867000Y-90297000D01*
X97817533Y-90048749D01*
X97720585Y-89814919D01*
X97579882Y-89604495D01*
X97400830Y-89425564D01*
X97214270Y-89301000D01*
X112605132Y-89301000D01*
X113372142Y-90068010D01*
X113295839Y-90210763D01*
X113245691Y-90376078D01*
X113233001Y-90504921D01*
X113233000Y-91991078D01*
X113245690Y-92119921D01*
X113295838Y-92285236D01*
X113377273Y-92437591D01*
X113486867Y-92571133D01*
X113620408Y-92680727D01*
X113683000Y-92714183D01*
X113683001Y-101771129D01*
X110349839Y-105104293D01*
X110281922Y-105083690D01*
X110110000Y-105066757D01*
X109938079Y-105083690D01*
X109772764Y-105133838D01*
X109620409Y-105215273D01*
X109486868Y-105324867D01*
X109377274Y-105458408D01*
X109295839Y-105610763D01*
X109245691Y-105776078D01*
X109233001Y-105904921D01*
X109233000Y-107391078D01*
X109245690Y-107519921D01*
X109295838Y-107685236D01*
X109377273Y-107837591D01*
X109486867Y-107971133D01*
X109620408Y-108080727D01*
X109772763Y-108162162D01*
X109938078Y-108212310D01*
X110110000Y-108229243D01*
X110281921Y-108212310D01*
X110447236Y-108162162D01*
X110599591Y-108080727D01*
X110733133Y-107971133D01*
X110842727Y-107837592D01*
X110924162Y-107685237D01*
X110974310Y-107519922D01*
X110987000Y-107391079D01*
X110987000Y-107391078D01*
X111233000Y-107391078D01*
X111245690Y-107519921D01*
X111295838Y-107685236D01*
X111377273Y-107837591D01*
X111486867Y-107971133D01*
X111620408Y-108080727D01*
X111772763Y-108162162D01*
X111938078Y-108212310D01*
X112110000Y-108229243D01*
X112281921Y-108212310D01*
X112447236Y-108162162D01*
X112599591Y-108080727D01*
X112733133Y-107971133D01*
X112842727Y-107837592D01*
X112924162Y-107685237D01*
X112974310Y-107519922D01*
X112987000Y-107391079D01*
X112987000Y-107391078D01*
X113233000Y-107391078D01*
X113245690Y-107519921D01*
X113295838Y-107685236D01*
X113377273Y-107837591D01*
X113486867Y-107971133D01*
X113620408Y-108080727D01*
X113772763Y-108162162D01*
X113938078Y-108212310D01*
X114110000Y-108229243D01*
X114281921Y-108212310D01*
X114447236Y-108162162D01*
X114599591Y-108080727D01*
X114733133Y-107971133D01*
X114842727Y-107837592D01*
X114924162Y-107685237D01*
X114974310Y-107519922D01*
X114987000Y-107391079D01*
X114987000Y-107391078D01*
X115233000Y-107391078D01*
X115245690Y-107519921D01*
X115295838Y-107685236D01*
X115377273Y-107837591D01*
X115486867Y-107971133D01*
X115620408Y-108080727D01*
X115772763Y-108162162D01*
X115938078Y-108212310D01*
X116110000Y-108229243D01*
X116281921Y-108212310D01*
X116447236Y-108162162D01*
X116599591Y-108080727D01*
X116733133Y-107971133D01*
X116842727Y-107837592D01*
X116924162Y-107685237D01*
X116974310Y-107519922D01*
X116987000Y-107391079D01*
X116987000Y-107391078D01*
X117233000Y-107391078D01*
X117245690Y-107519921D01*
X117295838Y-107685236D01*
X117377273Y-107837591D01*
X117486867Y-107971133D01*
X117620408Y-108080727D01*
X117772763Y-108162162D01*
X117938078Y-108212310D01*
X118110000Y-108229243D01*
X118281921Y-108212310D01*
X118447236Y-108162162D01*
X118599591Y-108080727D01*
X118733133Y-107971133D01*
X118842727Y-107837592D01*
X118924162Y-107685237D01*
X118974310Y-107519922D01*
X118987000Y-107391079D01*
X118987000Y-105904921D01*
X118974310Y-105776078D01*
X118924162Y-105610763D01*
X118842727Y-105458408D01*
X118733133Y-105324867D01*
X118599592Y-105215273D01*
X118447237Y-105133838D01*
X118281922Y-105083690D01*
X118110000Y-105066757D01*
X117938079Y-105083690D01*
X117772764Y-105133838D01*
X117620409Y-105215273D01*
X117486868Y-105324867D01*
X117377274Y-105458408D01*
X117295839Y-105610763D01*
X117245691Y-105776078D01*
X117233001Y-105904921D01*
X117233000Y-107391078D01*
X116987000Y-107391078D01*
X116987000Y-105904921D01*
X116974310Y-105776078D01*
X116924162Y-105610763D01*
X116842727Y-105458408D01*
X116733133Y-105324867D01*
X116599592Y-105215273D01*
X116447237Y-105133838D01*
X116281922Y-105083690D01*
X116110000Y-105066757D01*
X115938079Y-105083690D01*
X115772764Y-105133838D01*
X115620409Y-105215273D01*
X115486868Y-105324867D01*
X115377274Y-105458408D01*
X115295839Y-105610763D01*
X115245691Y-105776078D01*
X115233001Y-105904921D01*
X115233000Y-107391078D01*
X114987000Y-107391078D01*
X114987000Y-105904921D01*
X114974310Y-105776078D01*
X114924162Y-105610763D01*
X114842727Y-105458408D01*
X114733133Y-105324867D01*
X114599592Y-105215273D01*
X114447237Y-105133838D01*
X114281922Y-105083690D01*
X114110000Y-105066757D01*
X113938079Y-105083690D01*
X113772764Y-105133838D01*
X113620409Y-105215273D01*
X113486868Y-105324867D01*
X113377274Y-105458408D01*
X113295839Y-105610763D01*
X113245691Y-105776078D01*
X113233001Y-105904921D01*
X113233000Y-107391078D01*
X112987000Y-107391078D01*
X112987000Y-105904921D01*
X112974310Y-105776078D01*
X112924162Y-105610763D01*
X112842727Y-105458408D01*
X112733133Y-105324867D01*
X112599592Y-105215273D01*
X112447237Y-105133838D01*
X112281922Y-105083690D01*
X112110000Y-105066757D01*
X111938079Y-105083690D01*
X111772764Y-105133838D01*
X111620409Y-105215273D01*
X111486868Y-105324867D01*
X111377274Y-105458408D01*
X111295839Y-105610763D01*
X111245691Y-105776078D01*
X111233001Y-105904921D01*
X111233000Y-107391078D01*
X110987000Y-107391078D01*
X110987000Y-105904921D01*
X110974310Y-105776078D01*
X110953707Y-105708161D01*
X114397111Y-102264759D01*
X114413395Y-102251395D01*
X114426759Y-102235111D01*
X114426768Y-102235102D01*
X114466755Y-102186377D01*
X114506404Y-102112197D01*
X114506405Y-102112196D01*
X114530822Y-102031707D01*
X114537000Y-101968978D01*
X114537000Y-101968966D01*
X114539065Y-101948001D01*
X114537000Y-101927036D01*
X114537000Y-92714182D01*
X114599591Y-92680727D01*
X114733133Y-92571133D01*
X114842727Y-92437592D01*
X114924162Y-92285237D01*
X114974310Y-92119922D01*
X114987000Y-91991079D01*
X114987000Y-91991078D01*
X115233000Y-91991078D01*
X115245690Y-92119921D01*
X115295838Y-92285236D01*
X115377273Y-92437591D01*
X115486867Y-92571133D01*
X115620408Y-92680727D01*
X115772763Y-92762162D01*
X115938078Y-92812310D01*
X116110000Y-92829243D01*
X116281921Y-92812310D01*
X116447236Y-92762162D01*
X116599591Y-92680727D01*
X116733133Y-92571133D01*
X116842727Y-92437592D01*
X116924162Y-92285237D01*
X116974310Y-92119922D01*
X116987000Y-91991079D01*
X116987000Y-90504921D01*
X116974310Y-90376078D01*
X116924162Y-90210763D01*
X116842727Y-90058408D01*
X116733133Y-89924867D01*
X116599592Y-89815273D01*
X116447237Y-89733838D01*
X116281922Y-89683690D01*
X116110000Y-89666757D01*
X115938079Y-89683690D01*
X115772764Y-89733838D01*
X115620409Y-89815273D01*
X115486868Y-89924867D01*
X115377274Y-90058408D01*
X115295839Y-90210763D01*
X115245691Y-90376078D01*
X115233001Y-90504921D01*
X115233000Y-91991078D01*
X114987000Y-91991078D01*
X114987000Y-90504921D01*
X114974310Y-90376078D01*
X114924162Y-90210763D01*
X114842727Y-90058408D01*
X114733133Y-89924867D01*
X114599592Y-89815273D01*
X114447237Y-89733838D01*
X114281922Y-89683690D01*
X114186123Y-89674255D01*
X113812869Y-89301000D01*
X117105132Y-89301000D01*
X117483595Y-89679464D01*
X117434257Y-89694430D01*
X117377450Y-89724794D01*
X117327657Y-89765657D01*
X117286794Y-89815450D01*
X117256430Y-89872257D01*
X117237732Y-89933897D01*
X117231418Y-89998000D01*
X117231418Y-92498000D01*
X117237732Y-92562103D01*
X117256430Y-92623743D01*
X117286794Y-92680550D01*
X117327657Y-92730343D01*
X117377450Y-92771206D01*
X117434257Y-92801570D01*
X117495897Y-92820268D01*
X117560000Y-92826582D01*
X118660000Y-92826582D01*
X118724103Y-92820268D01*
X118785743Y-92801570D01*
X118842550Y-92771206D01*
X118892343Y-92730343D01*
X118933206Y-92680550D01*
X118963570Y-92623743D01*
X118982268Y-92562103D01*
X118988582Y-92498000D01*
X118988582Y-89998000D01*
X118982268Y-89933897D01*
X118963570Y-89872257D01*
X118933206Y-89815450D01*
X118892343Y-89765657D01*
X118842550Y-89724794D01*
X118785743Y-89694430D01*
X118724103Y-89675732D01*
X118660000Y-89669418D01*
X118535857Y-89669418D01*
X118530822Y-89618293D01*
X118506405Y-89537804D01*
X118466756Y-89463625D01*
X118466755Y-89463623D01*
X118426768Y-89414899D01*
X118426764Y-89414895D01*
X118413395Y-89398605D01*
X118397106Y-89385237D01*
X117598768Y-88586900D01*
X117585395Y-88570605D01*
X117520376Y-88517245D01*
X117446196Y-88477595D01*
X117365707Y-88453178D01*
X117302978Y-88447000D01*
X117302967Y-88447000D01*
X117282000Y-88444935D01*
X117261033Y-88447000D01*
X112802967Y-88447000D01*
X112782000Y-88444935D01*
X112761033Y-88447000D01*
X92102967Y-88447000D01*
X92082000Y-88444935D01*
X92061033Y-88447000D01*
X92061022Y-88447000D01*
X91998293Y-88453178D01*
X91917804Y-88477595D01*
X91894241Y-88490190D01*
X91843624Y-88517244D01*
X91796434Y-88555973D01*
X91778605Y-88570605D01*
X91765232Y-88586900D01*
X91594896Y-88757236D01*
X91578606Y-88770605D01*
X91565237Y-88786895D01*
X91565232Y-88786900D01*
X91525245Y-88835624D01*
X91485596Y-88909804D01*
X91461179Y-88990294D01*
X91452935Y-89074000D01*
X91455001Y-89094977D01*
X91455000Y-92845091D01*
X91450437Y-92848140D01*
X91356140Y-92942437D01*
X91282050Y-93053320D01*
X91231016Y-93176526D01*
X91205000Y-93307321D01*
X90205062Y-93307321D01*
X90212949Y-93289221D01*
X90240586Y-93172588D01*
X90120584Y-92927000D01*
X88027000Y-92927000D01*
X87773000Y-92927000D01*
X85679416Y-92927000D01*
X85559414Y-93172588D01*
X84934000Y-93172588D01*
X84934000Y-92427412D01*
X85559414Y-92427412D01*
X85679416Y-92673000D01*
X87773000Y-92673000D01*
X87773000Y-91215000D01*
X88027000Y-91215000D01*
X88027000Y-92673000D01*
X90120584Y-92673000D01*
X90240586Y-92427412D01*
X90212949Y-92310779D01*
X90088436Y-92025017D01*
X89910566Y-91769038D01*
X89686175Y-91552678D01*
X89423886Y-91384252D01*
X89133778Y-91270232D01*
X88827000Y-91215000D01*
X88027000Y-91215000D01*
X87773000Y-91215000D01*
X86973000Y-91215000D01*
X86666222Y-91270232D01*
X86376114Y-91384252D01*
X86113825Y-91552678D01*
X85889434Y-91769038D01*
X85711564Y-92025017D01*
X85587051Y-92310779D01*
X85559414Y-92427412D01*
X84934000Y-92427412D01*
X84934000Y-87727983D01*
X120355000Y-87726308D01*
X120355000Y-109120309D01*
G37*
%TD.AperFunction*%
%TD*%
D20*
X91882000Y-93374000D03*
X92782000Y-92674000D03*
X97782000Y-92274000D03*
X100082000Y-107374000D03*
X87900000Y-96200000D03*
X87900000Y-100800000D03*
D21*
X87900000Y-92800000D03*
X87900000Y-104200000D03*
D20*
X94042000Y-90774000D03*
X96582000Y-90774000D03*
X99122000Y-90774000D03*
X103110000Y-103938000D03*
X103110000Y-101938000D03*
X103110000Y-99938000D03*
X103110000Y-97938000D03*
X103110000Y-95938000D03*
X103110000Y-93938000D03*
X118110000Y-105948000D03*
X116110000Y-105948000D03*
X114110000Y-105948000D03*
X112110000Y-105948000D03*
X110110000Y-105948000D03*
X108110000Y-105948000D03*
X106110000Y-105948000D03*
X104110000Y-105948000D03*
X104110000Y-91948000D03*
X106110000Y-91948000D03*
X108110000Y-91948000D03*
X110110000Y-91948000D03*
X112110000Y-91948000D03*
X114110000Y-91948000D03*
X116110000Y-91948000D03*
X118110000Y-91948000D03*
M02*
