%TF.GenerationSoftware,KiCad,Pcbnew,(5.1.10)-1*%
%TF.CreationDate,2021-10-24T22:50:07+08:00*%
%TF.ProjectId,ESP8266_Wakener,45535038-3236-4365-9f57-616b656e6572,rev?*%
%TF.SameCoordinates,Original*%
%TF.FileFunction,Paste,Top*%
%TF.FilePolarity,Positive*%
%FSLAX46Y46*%
G04 Gerber Fmt 4.6, Leading zero omitted, Abs format (unit mm)*
G04 Created by KiCad (PCBNEW (5.1.10)-1) date 2021-10-24 22:50:07*
%MOMM*%
%LPD*%
G01*
G04 APERTURE LIST*
%ADD10R,2.500000X1.100000*%
%ADD11R,1.500000X2.000000*%
%ADD12R,3.800000X2.000000*%
G04 APERTURE END LIST*
D10*
%TO.C,J1*%
X90650000Y-95000000D03*
X90650000Y-102000000D03*
X90650000Y-97500000D03*
X90650000Y-99500000D03*
%TD*%
%TO.C,R1*%
G36*
G01*
X94057000Y-93624000D02*
X93507000Y-93624000D01*
G75*
G02*
X93307000Y-93424000I0J200000D01*
G01*
X93307000Y-93024000D01*
G75*
G02*
X93507000Y-92824000I200000J0D01*
G01*
X94057000Y-92824000D01*
G75*
G02*
X94257000Y-93024000I0J-200000D01*
G01*
X94257000Y-93424000D01*
G75*
G02*
X94057000Y-93624000I-200000J0D01*
G01*
G37*
G36*
G01*
X94057000Y-95274000D02*
X93507000Y-95274000D01*
G75*
G02*
X93307000Y-95074000I0J200000D01*
G01*
X93307000Y-94674000D01*
G75*
G02*
X93507000Y-94474000I200000J0D01*
G01*
X94057000Y-94474000D01*
G75*
G02*
X94257000Y-94674000I0J-200000D01*
G01*
X94257000Y-95074000D01*
G75*
G02*
X94057000Y-95274000I-200000J0D01*
G01*
G37*
%TD*%
%TO.C,R2*%
G36*
G01*
X95240333Y-94474000D02*
X95790333Y-94474000D01*
G75*
G02*
X95990333Y-94674000I0J-200000D01*
G01*
X95990333Y-95074000D01*
G75*
G02*
X95790333Y-95274000I-200000J0D01*
G01*
X95240333Y-95274000D01*
G75*
G02*
X95040333Y-95074000I0J200000D01*
G01*
X95040333Y-94674000D01*
G75*
G02*
X95240333Y-94474000I200000J0D01*
G01*
G37*
G36*
G01*
X95240333Y-92824000D02*
X95790333Y-92824000D01*
G75*
G02*
X95990333Y-93024000I0J-200000D01*
G01*
X95990333Y-93424000D01*
G75*
G02*
X95790333Y-93624000I-200000J0D01*
G01*
X95240333Y-93624000D01*
G75*
G02*
X95040333Y-93424000I0J200000D01*
G01*
X95040333Y-93024000D01*
G75*
G02*
X95240333Y-92824000I200000J0D01*
G01*
G37*
%TD*%
%TO.C,C6*%
G36*
G01*
X96998666Y-94374000D02*
X97498666Y-94374000D01*
G75*
G02*
X97723666Y-94599000I0J-225000D01*
G01*
X97723666Y-95049000D01*
G75*
G02*
X97498666Y-95274000I-225000J0D01*
G01*
X96998666Y-95274000D01*
G75*
G02*
X96773666Y-95049000I0J225000D01*
G01*
X96773666Y-94599000D01*
G75*
G02*
X96998666Y-94374000I225000J0D01*
G01*
G37*
G36*
G01*
X96998666Y-92824000D02*
X97498666Y-92824000D01*
G75*
G02*
X97723666Y-93049000I0J-225000D01*
G01*
X97723666Y-93499000D01*
G75*
G02*
X97498666Y-93724000I-225000J0D01*
G01*
X96998666Y-93724000D01*
G75*
G02*
X96773666Y-93499000I0J225000D01*
G01*
X96773666Y-93049000D01*
G75*
G02*
X96998666Y-92824000I225000J0D01*
G01*
G37*
%TD*%
%TO.C,C4*%
G36*
G01*
X98732000Y-94374000D02*
X99232000Y-94374000D01*
G75*
G02*
X99457000Y-94599000I0J-225000D01*
G01*
X99457000Y-95049000D01*
G75*
G02*
X99232000Y-95274000I-225000J0D01*
G01*
X98732000Y-95274000D01*
G75*
G02*
X98507000Y-95049000I0J225000D01*
G01*
X98507000Y-94599000D01*
G75*
G02*
X98732000Y-94374000I225000J0D01*
G01*
G37*
G36*
G01*
X98732000Y-92824000D02*
X99232000Y-92824000D01*
G75*
G02*
X99457000Y-93049000I0J-225000D01*
G01*
X99457000Y-93499000D01*
G75*
G02*
X99232000Y-93724000I-225000J0D01*
G01*
X98732000Y-93724000D01*
G75*
G02*
X98507000Y-93499000I0J225000D01*
G01*
X98507000Y-93049000D01*
G75*
G02*
X98732000Y-92824000I225000J0D01*
G01*
G37*
%TD*%
D11*
%TO.C,U1*%
X98820000Y-100736000D03*
X94220000Y-100736000D03*
X96520000Y-100736000D03*
D12*
X96520000Y-107036000D03*
%TD*%
%TO.C,C5*%
G36*
G01*
X99310000Y-97222999D02*
X98810000Y-97222999D01*
G75*
G02*
X98585000Y-96997999I0J225000D01*
G01*
X98585000Y-96547999D01*
G75*
G02*
X98810000Y-96322999I225000J0D01*
G01*
X99310000Y-96322999D01*
G75*
G02*
X99535000Y-96547999I0J-225000D01*
G01*
X99535000Y-96997999D01*
G75*
G02*
X99310000Y-97222999I-225000J0D01*
G01*
G37*
G36*
G01*
X99310000Y-98772999D02*
X98810000Y-98772999D01*
G75*
G02*
X98585000Y-98547999I0J225000D01*
G01*
X98585000Y-98097999D01*
G75*
G02*
X98810000Y-97872999I225000J0D01*
G01*
X99310000Y-97872999D01*
G75*
G02*
X99535000Y-98097999I0J-225000D01*
G01*
X99535000Y-98547999D01*
G75*
G02*
X99310000Y-98772999I-225000J0D01*
G01*
G37*
%TD*%
%TO.C,C3*%
G36*
G01*
X97532000Y-97198000D02*
X97032000Y-97198000D01*
G75*
G02*
X96807000Y-96973000I0J225000D01*
G01*
X96807000Y-96523000D01*
G75*
G02*
X97032000Y-96298000I225000J0D01*
G01*
X97532000Y-96298000D01*
G75*
G02*
X97757000Y-96523000I0J-225000D01*
G01*
X97757000Y-96973000D01*
G75*
G02*
X97532000Y-97198000I-225000J0D01*
G01*
G37*
G36*
G01*
X97532000Y-98748000D02*
X97032000Y-98748000D01*
G75*
G02*
X96807000Y-98523000I0J225000D01*
G01*
X96807000Y-98073000D01*
G75*
G02*
X97032000Y-97848000I225000J0D01*
G01*
X97532000Y-97848000D01*
G75*
G02*
X97757000Y-98073000I0J-225000D01*
G01*
X97757000Y-98523000D01*
G75*
G02*
X97532000Y-98748000I-225000J0D01*
G01*
G37*
%TD*%
%TO.C,C2*%
G36*
G01*
X95754000Y-97214666D02*
X95254000Y-97214666D01*
G75*
G02*
X95029000Y-96989666I0J225000D01*
G01*
X95029000Y-96539666D01*
G75*
G02*
X95254000Y-96314666I225000J0D01*
G01*
X95754000Y-96314666D01*
G75*
G02*
X95979000Y-96539666I0J-225000D01*
G01*
X95979000Y-96989666D01*
G75*
G02*
X95754000Y-97214666I-225000J0D01*
G01*
G37*
G36*
G01*
X95754000Y-98764666D02*
X95254000Y-98764666D01*
G75*
G02*
X95029000Y-98539666I0J225000D01*
G01*
X95029000Y-98089666D01*
G75*
G02*
X95254000Y-97864666I225000J0D01*
G01*
X95754000Y-97864666D01*
G75*
G02*
X95979000Y-98089666I0J-225000D01*
G01*
X95979000Y-98539666D01*
G75*
G02*
X95754000Y-98764666I-225000J0D01*
G01*
G37*
%TD*%
%TO.C,C1*%
G36*
G01*
X93976000Y-97206333D02*
X93476000Y-97206333D01*
G75*
G02*
X93251000Y-96981333I0J225000D01*
G01*
X93251000Y-96531333D01*
G75*
G02*
X93476000Y-96306333I225000J0D01*
G01*
X93976000Y-96306333D01*
G75*
G02*
X94201000Y-96531333I0J-225000D01*
G01*
X94201000Y-96981333D01*
G75*
G02*
X93976000Y-97206333I-225000J0D01*
G01*
G37*
G36*
G01*
X93976000Y-98756333D02*
X93476000Y-98756333D01*
G75*
G02*
X93251000Y-98531333I0J225000D01*
G01*
X93251000Y-98081333D01*
G75*
G02*
X93476000Y-97856333I225000J0D01*
G01*
X93976000Y-97856333D01*
G75*
G02*
X94201000Y-98081333I0J-225000D01*
G01*
X94201000Y-98531333D01*
G75*
G02*
X93976000Y-98756333I-225000J0D01*
G01*
G37*
%TD*%
M02*
