%TF.GenerationSoftware,KiCad,Pcbnew,(5.1.10)-1*%
%TF.CreationDate,2021-10-24T22:50:07+08:00*%
%TF.ProjectId,ESP8266_Wakener,45535038-3236-4365-9f57-616b656e6572,rev?*%
%TF.SameCoordinates,Original*%
%TF.FileFunction,Copper,L1,Top*%
%TF.FilePolarity,Positive*%
%FSLAX46Y46*%
G04 Gerber Fmt 4.6, Leading zero omitted, Abs format (unit mm)*
G04 Created by KiCad (PCBNEW (5.1.10)-1) date 2021-10-24 22:50:07*
%MOMM*%
%LPD*%
G01*
G04 APERTURE LIST*
%TA.AperFunction,ComponentPad*%
%ADD10O,3.500000X1.900000*%
%TD*%
%TA.AperFunction,SMDPad,CuDef*%
%ADD11R,2.500000X1.100000*%
%TD*%
%TA.AperFunction,ComponentPad*%
%ADD12O,1.300000X2.000000*%
%TD*%
%TA.AperFunction,ComponentPad*%
%ADD13O,2.500000X1.100000*%
%TD*%
%TA.AperFunction,ComponentPad*%
%ADD14O,1.100000X2.500000*%
%TD*%
%TA.AperFunction,ComponentPad*%
%ADD15R,1.100000X2.500000*%
%TD*%
%TA.AperFunction,SMDPad,CuDef*%
%ADD16R,1.500000X2.000000*%
%TD*%
%TA.AperFunction,SMDPad,CuDef*%
%ADD17R,3.800000X2.000000*%
%TD*%
%TA.AperFunction,ViaPad*%
%ADD18C,0.700000*%
%TD*%
%TA.AperFunction,Conductor*%
%ADD19C,0.800000*%
%TD*%
%TA.AperFunction,Conductor*%
%ADD20C,0.350000*%
%TD*%
%TA.AperFunction,Conductor*%
%ADD21C,0.200000*%
%TD*%
%TA.AperFunction,Conductor*%
%ADD22C,0.254000*%
%TD*%
%ADD23C,0.350000*%
%ADD24O,2.500000X0.900000*%
G04 APERTURE END LIST*
D10*
%TO.P,J1,5*%
%TO.N,GND*%
X87900000Y-92800000D03*
X87900000Y-104200000D03*
D11*
%TO.P,J1,4*%
X90650000Y-95000000D03*
%TO.P,J1,1*%
%TO.N,VCC*%
X90650000Y-102000000D03*
%TO.P,J1,3*%
%TO.N,N/C*%
X90650000Y-97500000D03*
%TO.P,J1,2*%
X90650000Y-99500000D03*
%TD*%
%TO.P,R1,2*%
%TO.N,/3.3V*%
%TA.AperFunction,SMDPad,CuDef*%
G36*
G01*
X94057000Y-93624000D02*
X93507000Y-93624000D01*
G75*
G02*
X93307000Y-93424000I0J200000D01*
G01*
X93307000Y-93024000D01*
G75*
G02*
X93507000Y-92824000I200000J0D01*
G01*
X94057000Y-92824000D01*
G75*
G02*
X94257000Y-93024000I0J-200000D01*
G01*
X94257000Y-93424000D01*
G75*
G02*
X94057000Y-93624000I-200000J0D01*
G01*
G37*
%TD.AperFunction*%
%TO.P,R1,1*%
%TO.N,/PULL_UP*%
%TA.AperFunction,SMDPad,CuDef*%
G36*
G01*
X94057000Y-95274000D02*
X93507000Y-95274000D01*
G75*
G02*
X93307000Y-95074000I0J200000D01*
G01*
X93307000Y-94674000D01*
G75*
G02*
X93507000Y-94474000I200000J0D01*
G01*
X94057000Y-94474000D01*
G75*
G02*
X94257000Y-94674000I0J-200000D01*
G01*
X94257000Y-95074000D01*
G75*
G02*
X94057000Y-95274000I-200000J0D01*
G01*
G37*
%TD.AperFunction*%
%TD*%
%TO.P,R2,2*%
%TO.N,Net-(R2-Pad2)*%
%TA.AperFunction,SMDPad,CuDef*%
G36*
G01*
X95240333Y-94474000D02*
X95790333Y-94474000D01*
G75*
G02*
X95990333Y-94674000I0J-200000D01*
G01*
X95990333Y-95074000D01*
G75*
G02*
X95790333Y-95274000I-200000J0D01*
G01*
X95240333Y-95274000D01*
G75*
G02*
X95040333Y-95074000I0J200000D01*
G01*
X95040333Y-94674000D01*
G75*
G02*
X95240333Y-94474000I200000J0D01*
G01*
G37*
%TD.AperFunction*%
%TO.P,R2,1*%
%TO.N,GND*%
%TA.AperFunction,SMDPad,CuDef*%
G36*
G01*
X95240333Y-92824000D02*
X95790333Y-92824000D01*
G75*
G02*
X95990333Y-93024000I0J-200000D01*
G01*
X95990333Y-93424000D01*
G75*
G02*
X95790333Y-93624000I-200000J0D01*
G01*
X95240333Y-93624000D01*
G75*
G02*
X95040333Y-93424000I0J200000D01*
G01*
X95040333Y-93024000D01*
G75*
G02*
X95240333Y-92824000I200000J0D01*
G01*
G37*
%TD.AperFunction*%
%TD*%
D12*
%TO.P,S1,3*%
%TO.N,N/C*%
X94042000Y-90774000D03*
%TO.P,S1,2*%
%TO.N,GND*%
X96582000Y-90774000D03*
%TO.P,S1,1*%
%TO.N,/SW*%
X99122000Y-90774000D03*
%TD*%
%TO.P,C6,2*%
%TO.N,GND*%
%TA.AperFunction,SMDPad,CuDef*%
G36*
G01*
X96998666Y-94374000D02*
X97498666Y-94374000D01*
G75*
G02*
X97723666Y-94599000I0J-225000D01*
G01*
X97723666Y-95049000D01*
G75*
G02*
X97498666Y-95274000I-225000J0D01*
G01*
X96998666Y-95274000D01*
G75*
G02*
X96773666Y-95049000I0J225000D01*
G01*
X96773666Y-94599000D01*
G75*
G02*
X96998666Y-94374000I225000J0D01*
G01*
G37*
%TD.AperFunction*%
%TO.P,C6,1*%
%TO.N,/3.3V*%
%TA.AperFunction,SMDPad,CuDef*%
G36*
G01*
X96998666Y-92824000D02*
X97498666Y-92824000D01*
G75*
G02*
X97723666Y-93049000I0J-225000D01*
G01*
X97723666Y-93499000D01*
G75*
G02*
X97498666Y-93724000I-225000J0D01*
G01*
X96998666Y-93724000D01*
G75*
G02*
X96773666Y-93499000I0J225000D01*
G01*
X96773666Y-93049000D01*
G75*
G02*
X96998666Y-92824000I225000J0D01*
G01*
G37*
%TD.AperFunction*%
%TD*%
%TO.P,C4,2*%
%TO.N,GND*%
%TA.AperFunction,SMDPad,CuDef*%
G36*
G01*
X98732000Y-94374000D02*
X99232000Y-94374000D01*
G75*
G02*
X99457000Y-94599000I0J-225000D01*
G01*
X99457000Y-95049000D01*
G75*
G02*
X99232000Y-95274000I-225000J0D01*
G01*
X98732000Y-95274000D01*
G75*
G02*
X98507000Y-95049000I0J225000D01*
G01*
X98507000Y-94599000D01*
G75*
G02*
X98732000Y-94374000I225000J0D01*
G01*
G37*
%TD.AperFunction*%
%TO.P,C4,1*%
%TO.N,/3.3V*%
%TA.AperFunction,SMDPad,CuDef*%
G36*
G01*
X98732000Y-92824000D02*
X99232000Y-92824000D01*
G75*
G02*
X99457000Y-93049000I0J-225000D01*
G01*
X99457000Y-93499000D01*
G75*
G02*
X99232000Y-93724000I-225000J0D01*
G01*
X98732000Y-93724000D01*
G75*
G02*
X98507000Y-93499000I0J225000D01*
G01*
X98507000Y-93049000D01*
G75*
G02*
X98732000Y-92824000I225000J0D01*
G01*
G37*
%TD.AperFunction*%
%TD*%
D13*
%TO.P,U2,22*%
%TO.N,N/C*%
X102410000Y-103938000D03*
%TO.P,U2,21*%
X102410000Y-101938000D03*
%TO.P,U2,20*%
X102410000Y-99938000D03*
%TO.P,U2,19*%
X102410000Y-97938000D03*
%TO.P,U2,18*%
X102410000Y-95938000D03*
%TO.P,U2,17*%
X102410000Y-93938000D03*
D14*
%TO.P,U2,16*%
X118110000Y-106648000D03*
%TO.P,U2,15*%
X116110000Y-106648000D03*
%TO.P,U2,14*%
X114110000Y-106648000D03*
%TO.P,U2,13*%
X112110000Y-106648000D03*
%TO.P,U2,12*%
%TO.N,/PULL_UP*%
X110110000Y-106648000D03*
%TO.P,U2,11*%
%TO.N,N/C*%
X108110000Y-106648000D03*
%TO.P,U2,10*%
%TO.N,Net-(R2-Pad2)*%
X106110000Y-106548000D03*
%TO.P,U2,9*%
%TO.N,GND*%
X104110000Y-106648000D03*
%TO.P,U2,8*%
%TO.N,/3.3V*%
X104110000Y-91248000D03*
%TO.P,U2,7*%
%TO.N,/SW*%
X106110000Y-91248000D03*
%TO.P,U2,6*%
%TO.N,N/C*%
X108110000Y-91248000D03*
%TO.P,U2,5*%
X110110000Y-91248000D03*
%TO.P,U2,4*%
X112110000Y-91248000D03*
%TO.P,U2,3*%
%TO.N,/PULL_UP*%
X114110000Y-91248000D03*
%TO.P,U2,2*%
%TO.N,N/C*%
X116110000Y-91248000D03*
D15*
%TO.P,U2,1*%
%TO.N,/PULL_UP*%
X118110000Y-91248000D03*
%TD*%
D16*
%TO.P,U1,1*%
%TO.N,GND*%
X98820000Y-100736000D03*
%TO.P,U1,3*%
%TO.N,VCC*%
X94220000Y-100736000D03*
%TO.P,U1,2*%
%TO.N,/3.3V*%
X96520000Y-100736000D03*
D17*
X96520000Y-107036000D03*
%TD*%
%TO.P,C5,2*%
%TO.N,GND*%
%TA.AperFunction,SMDPad,CuDef*%
G36*
G01*
X99310000Y-97222999D02*
X98810000Y-97222999D01*
G75*
G02*
X98585000Y-96997999I0J225000D01*
G01*
X98585000Y-96547999D01*
G75*
G02*
X98810000Y-96322999I225000J0D01*
G01*
X99310000Y-96322999D01*
G75*
G02*
X99535000Y-96547999I0J-225000D01*
G01*
X99535000Y-96997999D01*
G75*
G02*
X99310000Y-97222999I-225000J0D01*
G01*
G37*
%TD.AperFunction*%
%TO.P,C5,1*%
%TO.N,/3.3V*%
%TA.AperFunction,SMDPad,CuDef*%
G36*
G01*
X99310000Y-98772999D02*
X98810000Y-98772999D01*
G75*
G02*
X98585000Y-98547999I0J225000D01*
G01*
X98585000Y-98097999D01*
G75*
G02*
X98810000Y-97872999I225000J0D01*
G01*
X99310000Y-97872999D01*
G75*
G02*
X99535000Y-98097999I0J-225000D01*
G01*
X99535000Y-98547999D01*
G75*
G02*
X99310000Y-98772999I-225000J0D01*
G01*
G37*
%TD.AperFunction*%
%TD*%
%TO.P,C3,2*%
%TO.N,GND*%
%TA.AperFunction,SMDPad,CuDef*%
G36*
G01*
X97532000Y-97198000D02*
X97032000Y-97198000D01*
G75*
G02*
X96807000Y-96973000I0J225000D01*
G01*
X96807000Y-96523000D01*
G75*
G02*
X97032000Y-96298000I225000J0D01*
G01*
X97532000Y-96298000D01*
G75*
G02*
X97757000Y-96523000I0J-225000D01*
G01*
X97757000Y-96973000D01*
G75*
G02*
X97532000Y-97198000I-225000J0D01*
G01*
G37*
%TD.AperFunction*%
%TO.P,C3,1*%
%TO.N,/3.3V*%
%TA.AperFunction,SMDPad,CuDef*%
G36*
G01*
X97532000Y-98748000D02*
X97032000Y-98748000D01*
G75*
G02*
X96807000Y-98523000I0J225000D01*
G01*
X96807000Y-98073000D01*
G75*
G02*
X97032000Y-97848000I225000J0D01*
G01*
X97532000Y-97848000D01*
G75*
G02*
X97757000Y-98073000I0J-225000D01*
G01*
X97757000Y-98523000D01*
G75*
G02*
X97532000Y-98748000I-225000J0D01*
G01*
G37*
%TD.AperFunction*%
%TD*%
%TO.P,C2,2*%
%TO.N,GND*%
%TA.AperFunction,SMDPad,CuDef*%
G36*
G01*
X95754000Y-97214666D02*
X95254000Y-97214666D01*
G75*
G02*
X95029000Y-96989666I0J225000D01*
G01*
X95029000Y-96539666D01*
G75*
G02*
X95254000Y-96314666I225000J0D01*
G01*
X95754000Y-96314666D01*
G75*
G02*
X95979000Y-96539666I0J-225000D01*
G01*
X95979000Y-96989666D01*
G75*
G02*
X95754000Y-97214666I-225000J0D01*
G01*
G37*
%TD.AperFunction*%
%TO.P,C2,1*%
%TO.N,VCC*%
%TA.AperFunction,SMDPad,CuDef*%
G36*
G01*
X95754000Y-98764666D02*
X95254000Y-98764666D01*
G75*
G02*
X95029000Y-98539666I0J225000D01*
G01*
X95029000Y-98089666D01*
G75*
G02*
X95254000Y-97864666I225000J0D01*
G01*
X95754000Y-97864666D01*
G75*
G02*
X95979000Y-98089666I0J-225000D01*
G01*
X95979000Y-98539666D01*
G75*
G02*
X95754000Y-98764666I-225000J0D01*
G01*
G37*
%TD.AperFunction*%
%TD*%
%TO.P,C1,2*%
%TO.N,GND*%
%TA.AperFunction,SMDPad,CuDef*%
G36*
G01*
X93976000Y-97206333D02*
X93476000Y-97206333D01*
G75*
G02*
X93251000Y-96981333I0J225000D01*
G01*
X93251000Y-96531333D01*
G75*
G02*
X93476000Y-96306333I225000J0D01*
G01*
X93976000Y-96306333D01*
G75*
G02*
X94201000Y-96531333I0J-225000D01*
G01*
X94201000Y-96981333D01*
G75*
G02*
X93976000Y-97206333I-225000J0D01*
G01*
G37*
%TD.AperFunction*%
%TO.P,C1,1*%
%TO.N,VCC*%
%TA.AperFunction,SMDPad,CuDef*%
G36*
G01*
X93976000Y-98756333D02*
X93476000Y-98756333D01*
G75*
G02*
X93251000Y-98531333I0J225000D01*
G01*
X93251000Y-98081333D01*
G75*
G02*
X93476000Y-97856333I225000J0D01*
G01*
X93976000Y-97856333D01*
G75*
G02*
X94201000Y-98081333I0J-225000D01*
G01*
X94201000Y-98531333D01*
G75*
G02*
X93976000Y-98756333I-225000J0D01*
G01*
G37*
%TD.AperFunction*%
%TD*%
D18*
%TO.N,/PULL_UP*%
X91882000Y-93374000D03*
%TO.N,/3.3V*%
X92782000Y-92674000D03*
X97782000Y-92274000D03*
X100082000Y-107374000D03*
%TD*%
D19*
%TO.N,VCC*%
X90650000Y-102000000D02*
X91476000Y-101174000D01*
X93782000Y-101174000D02*
X94220000Y-100736000D01*
X91476000Y-101174000D02*
X93782000Y-101174000D01*
D20*
X94220000Y-100736000D02*
X93682000Y-100198000D01*
X93682000Y-98350333D02*
X93726000Y-98306333D01*
X93682000Y-100198000D02*
X93682000Y-98350333D01*
X95495667Y-98306333D02*
X95504000Y-98314666D01*
X93726000Y-98306333D02*
X95495667Y-98306333D01*
%TO.N,/SW*%
X99122000Y-90774000D02*
X100522000Y-89374000D01*
X100522000Y-89374000D02*
X105382000Y-89374000D01*
X106110000Y-90102000D02*
X106110000Y-91948000D01*
X105382000Y-89374000D02*
X106110000Y-90102000D01*
D21*
%TO.N,/PULL_UP*%
X93782000Y-94874000D02*
X93382000Y-94874000D01*
X93382000Y-94874000D02*
X91882000Y-93374000D01*
%TO.N,Net-(R2-Pad2)*%
X100782000Y-104974000D02*
X105136000Y-104974000D01*
X100482000Y-104674000D02*
X100782000Y-104974000D01*
X100482000Y-95974000D02*
X100482000Y-104674000D01*
X100282000Y-95774000D02*
X100482000Y-95974000D01*
X105136000Y-104974000D02*
X106110000Y-105948000D01*
X96015333Y-95774000D02*
X100282000Y-95774000D01*
X95515333Y-95274000D02*
X96015333Y-95774000D01*
X95515333Y-94874000D02*
X95515333Y-95274000D01*
%TO.N,/3.3V*%
X97248666Y-93274000D02*
X98982000Y-93274000D01*
X96520000Y-100736000D02*
X97382000Y-99874000D01*
X97382000Y-98398000D02*
X97282000Y-98298000D01*
X97382000Y-99874000D02*
X97382000Y-98398000D01*
X99035001Y-98298000D02*
X99060000Y-98322999D01*
X97282000Y-98298000D02*
X99035001Y-98298000D01*
X104110000Y-91948000D02*
X101808000Y-91948000D01*
X100482000Y-93274000D02*
X98982000Y-93274000D01*
X101808000Y-91948000D02*
X100482000Y-93274000D01*
X93332000Y-93224000D02*
X92782000Y-92674000D01*
X93782000Y-93224000D02*
X93332000Y-93224000D01*
X97782000Y-92740666D02*
X97248666Y-93274000D01*
X97782000Y-92274000D02*
X97782000Y-92740666D01*
D19*
X96520000Y-100736000D02*
X96520000Y-107036000D01*
X99744000Y-107036000D02*
X100082000Y-107374000D01*
X96520000Y-107036000D02*
X99744000Y-107036000D01*
%TD*%
D22*
%TO.N,GND*%
X120355000Y-109120309D02*
X84934000Y-109121984D01*
X84934000Y-104572588D01*
X85559414Y-104572588D01*
X85587051Y-104689221D01*
X85711564Y-104974983D01*
X85889434Y-105230962D01*
X86113825Y-105447322D01*
X86376114Y-105615748D01*
X86666222Y-105729768D01*
X86973000Y-105785000D01*
X87773000Y-105785000D01*
X87773000Y-104327000D01*
X88027000Y-104327000D01*
X88027000Y-105785000D01*
X88827000Y-105785000D01*
X89133778Y-105729768D01*
X89423886Y-105615748D01*
X89686175Y-105447322D01*
X89910566Y-105230962D01*
X90088436Y-104974983D01*
X90212949Y-104689221D01*
X90240586Y-104572588D01*
X90120584Y-104327000D01*
X88027000Y-104327000D01*
X87773000Y-104327000D01*
X85679416Y-104327000D01*
X85559414Y-104572588D01*
X84934000Y-104572588D01*
X84934000Y-103827412D01*
X85559414Y-103827412D01*
X85679416Y-104073000D01*
X87773000Y-104073000D01*
X87773000Y-102615000D01*
X88027000Y-102615000D01*
X88027000Y-104073000D01*
X90120584Y-104073000D01*
X90240586Y-103827412D01*
X90212949Y-103710779D01*
X90088436Y-103425017D01*
X89910566Y-103169038D01*
X89686175Y-102952678D01*
X89570786Y-102878582D01*
X91900000Y-102878582D01*
X91964103Y-102872268D01*
X92025743Y-102853570D01*
X92082550Y-102823206D01*
X92132343Y-102782343D01*
X92173206Y-102732550D01*
X92203570Y-102675743D01*
X92222268Y-102614103D01*
X92228582Y-102550000D01*
X92228582Y-101901000D01*
X93187413Y-101901000D01*
X93196794Y-101918550D01*
X93237657Y-101968343D01*
X93287450Y-102009206D01*
X93344257Y-102039570D01*
X93405897Y-102058268D01*
X93470000Y-102064582D01*
X94970000Y-102064582D01*
X95034103Y-102058268D01*
X95095743Y-102039570D01*
X95152550Y-102009206D01*
X95202343Y-101968343D01*
X95243206Y-101918550D01*
X95273570Y-101861743D01*
X95292268Y-101800103D01*
X95298582Y-101736000D01*
X95298582Y-99736000D01*
X95292268Y-99671897D01*
X95273570Y-99610257D01*
X95243206Y-99553450D01*
X95202343Y-99503657D01*
X95152550Y-99462794D01*
X95095743Y-99432430D01*
X95034103Y-99413732D01*
X94970000Y-99407418D01*
X94184000Y-99407418D01*
X94184000Y-99043943D01*
X94187847Y-99042776D01*
X94283554Y-98991620D01*
X94367442Y-98922775D01*
X94436287Y-98838887D01*
X94452618Y-98808333D01*
X94772928Y-98808333D01*
X94793713Y-98847220D01*
X94862558Y-98931108D01*
X94946446Y-98999953D01*
X95042153Y-99051109D01*
X95146002Y-99082611D01*
X95254000Y-99093248D01*
X95754000Y-99093248D01*
X95861998Y-99082611D01*
X95965847Y-99051109D01*
X96061554Y-98999953D01*
X96145442Y-98931108D01*
X96214287Y-98847220D01*
X96265443Y-98751513D01*
X96296945Y-98647664D01*
X96307582Y-98539666D01*
X96307582Y-98089666D01*
X96296945Y-97981668D01*
X96265443Y-97877819D01*
X96225433Y-97802964D01*
X96333494Y-97745203D01*
X96403154Y-97688035D01*
X96452506Y-97728537D01*
X96560567Y-97786298D01*
X96520557Y-97861153D01*
X96489055Y-97965002D01*
X96478418Y-98073000D01*
X96478418Y-98523000D01*
X96489055Y-98630998D01*
X96520557Y-98734847D01*
X96571713Y-98830554D01*
X96640558Y-98914442D01*
X96724446Y-98983287D01*
X96820153Y-99034443D01*
X96924002Y-99065945D01*
X96955001Y-99068998D01*
X96955000Y-99407418D01*
X95770000Y-99407418D01*
X95705897Y-99413732D01*
X95644257Y-99432430D01*
X95587450Y-99462794D01*
X95537657Y-99503657D01*
X95496794Y-99553450D01*
X95466430Y-99610257D01*
X95447732Y-99671897D01*
X95441418Y-99736000D01*
X95441418Y-101736000D01*
X95447732Y-101800103D01*
X95466430Y-101861743D01*
X95496794Y-101918550D01*
X95537657Y-101968343D01*
X95587450Y-102009206D01*
X95644257Y-102039570D01*
X95705897Y-102058268D01*
X95770000Y-102064582D01*
X95793000Y-102064582D01*
X95793001Y-105707418D01*
X94620000Y-105707418D01*
X94555897Y-105713732D01*
X94494257Y-105732430D01*
X94437450Y-105762794D01*
X94387657Y-105803657D01*
X94346794Y-105853450D01*
X94316430Y-105910257D01*
X94297732Y-105971897D01*
X94291418Y-106036000D01*
X94291418Y-108036000D01*
X94297732Y-108100103D01*
X94316430Y-108161743D01*
X94346794Y-108218550D01*
X94387657Y-108268343D01*
X94437450Y-108309206D01*
X94494257Y-108339570D01*
X94555897Y-108358268D01*
X94620000Y-108364582D01*
X98420000Y-108364582D01*
X98484103Y-108358268D01*
X98545743Y-108339570D01*
X98602550Y-108309206D01*
X98652343Y-108268343D01*
X98693206Y-108218550D01*
X98723570Y-108161743D01*
X98742268Y-108100103D01*
X98748582Y-108036000D01*
X98748582Y-107763000D01*
X99442868Y-107763000D01*
X99593183Y-107913315D01*
X99676147Y-107981402D01*
X99802443Y-108048909D01*
X99939482Y-108090480D01*
X100081999Y-108104517D01*
X100224517Y-108090480D01*
X100361556Y-108048909D01*
X100487852Y-107981402D01*
X100598553Y-107890553D01*
X100689402Y-107779852D01*
X100756909Y-107653556D01*
X100798480Y-107516517D01*
X100812517Y-107373999D01*
X100798480Y-107231482D01*
X100756909Y-107094443D01*
X100689402Y-106968147D01*
X100621315Y-106885183D01*
X100511132Y-106775000D01*
X102925000Y-106775000D01*
X102925000Y-107475000D01*
X102972546Y-107703742D01*
X103063804Y-107918813D01*
X103195266Y-108111948D01*
X103361881Y-108275725D01*
X103557246Y-108403850D01*
X103773853Y-108491399D01*
X103800256Y-108491803D01*
X103983000Y-108366361D01*
X103983000Y-106775000D01*
X102925000Y-106775000D01*
X100511132Y-106775000D01*
X100283326Y-106547194D01*
X100260554Y-106519446D01*
X100149853Y-106428597D01*
X100023557Y-106361090D01*
X99886517Y-106319520D01*
X99779708Y-106309000D01*
X99744000Y-106305483D01*
X99708292Y-106309000D01*
X98748582Y-106309000D01*
X98748582Y-106036000D01*
X98742268Y-105971897D01*
X98723570Y-105910257D01*
X98693206Y-105853450D01*
X98652343Y-105803657D01*
X98602550Y-105762794D01*
X98545743Y-105732430D01*
X98484103Y-105713732D01*
X98420000Y-105707418D01*
X97247000Y-105707418D01*
X97247000Y-102064582D01*
X97270000Y-102064582D01*
X97334103Y-102058268D01*
X97395743Y-102039570D01*
X97452550Y-102009206D01*
X97482761Y-101984413D01*
X97539463Y-102090494D01*
X97618815Y-102187185D01*
X97715506Y-102266537D01*
X97825820Y-102325502D01*
X97945518Y-102361812D01*
X98070000Y-102374072D01*
X98534250Y-102371000D01*
X98693000Y-102212250D01*
X98693000Y-100863000D01*
X98673000Y-100863000D01*
X98673000Y-100609000D01*
X98693000Y-100609000D01*
X98693000Y-100589000D01*
X98947000Y-100589000D01*
X98947000Y-100609000D01*
X98967000Y-100609000D01*
X98967000Y-100863000D01*
X98947000Y-100863000D01*
X98947000Y-102212250D01*
X99105750Y-102371000D01*
X99570000Y-102374072D01*
X99694482Y-102361812D01*
X99814180Y-102325502D01*
X99924494Y-102266537D01*
X100021185Y-102187185D01*
X100055001Y-102145980D01*
X100055001Y-104653023D01*
X100052935Y-104674000D01*
X100061179Y-104757706D01*
X100085596Y-104838196D01*
X100125245Y-104912376D01*
X100165232Y-104961100D01*
X100165237Y-104961105D01*
X100178606Y-104977395D01*
X100194895Y-104990763D01*
X100465236Y-105261105D01*
X100478605Y-105277395D01*
X100494895Y-105290764D01*
X100494899Y-105290768D01*
X100543623Y-105330755D01*
X100583273Y-105351948D01*
X100617804Y-105370405D01*
X100698293Y-105394822D01*
X100761022Y-105401000D01*
X100761032Y-105401000D01*
X100781999Y-105403065D01*
X100802966Y-105401000D01*
X103053700Y-105401000D01*
X102972546Y-105592258D01*
X102925000Y-105821000D01*
X102925000Y-106521000D01*
X103983000Y-106521000D01*
X103983000Y-106501000D01*
X104237000Y-106501000D01*
X104237000Y-106521000D01*
X104257000Y-106521000D01*
X104257000Y-106775000D01*
X104237000Y-106775000D01*
X104237000Y-108366361D01*
X104419744Y-108491803D01*
X104446147Y-108491399D01*
X104662754Y-108403850D01*
X104858119Y-108275725D01*
X105024734Y-108111948D01*
X105156196Y-107918813D01*
X105247454Y-107703742D01*
X105281744Y-107538774D01*
X105295838Y-107585236D01*
X105377273Y-107737591D01*
X105486867Y-107871133D01*
X105620408Y-107980727D01*
X105772763Y-108062162D01*
X105938078Y-108112310D01*
X106110000Y-108129243D01*
X106281921Y-108112310D01*
X106447236Y-108062162D01*
X106599591Y-107980727D01*
X106733133Y-107871133D01*
X106842727Y-107737592D01*
X106924162Y-107585237D01*
X106974310Y-107419922D01*
X106977150Y-107391078D01*
X107233000Y-107391078D01*
X107245690Y-107519921D01*
X107295838Y-107685236D01*
X107377273Y-107837591D01*
X107486867Y-107971133D01*
X107620408Y-108080727D01*
X107772763Y-108162162D01*
X107938078Y-108212310D01*
X108110000Y-108229243D01*
X108281921Y-108212310D01*
X108447236Y-108162162D01*
X108599591Y-108080727D01*
X108733133Y-107971133D01*
X108842727Y-107837592D01*
X108924162Y-107685237D01*
X108974310Y-107519922D01*
X108987000Y-107391079D01*
X108987000Y-107391078D01*
X109233000Y-107391078D01*
X109245690Y-107519921D01*
X109295838Y-107685236D01*
X109377273Y-107837591D01*
X109486867Y-107971133D01*
X109620408Y-108080727D01*
X109772763Y-108162162D01*
X109938078Y-108212310D01*
X110110000Y-108229243D01*
X110281921Y-108212310D01*
X110447236Y-108162162D01*
X110599591Y-108080727D01*
X110733133Y-107971133D01*
X110842727Y-107837592D01*
X110924162Y-107685237D01*
X110974310Y-107519922D01*
X110987000Y-107391079D01*
X110987000Y-107391078D01*
X111233000Y-107391078D01*
X111245690Y-107519921D01*
X111295838Y-107685236D01*
X111377273Y-107837591D01*
X111486867Y-107971133D01*
X111620408Y-108080727D01*
X111772763Y-108162162D01*
X111938078Y-108212310D01*
X112110000Y-108229243D01*
X112281921Y-108212310D01*
X112447236Y-108162162D01*
X112599591Y-108080727D01*
X112733133Y-107971133D01*
X112842727Y-107837592D01*
X112924162Y-107685237D01*
X112974310Y-107519922D01*
X112987000Y-107391079D01*
X112987000Y-107391078D01*
X113233000Y-107391078D01*
X113245690Y-107519921D01*
X113295838Y-107685236D01*
X113377273Y-107837591D01*
X113486867Y-107971133D01*
X113620408Y-108080727D01*
X113772763Y-108162162D01*
X113938078Y-108212310D01*
X114110000Y-108229243D01*
X114281921Y-108212310D01*
X114447236Y-108162162D01*
X114599591Y-108080727D01*
X114733133Y-107971133D01*
X114842727Y-107837592D01*
X114924162Y-107685237D01*
X114974310Y-107519922D01*
X114987000Y-107391079D01*
X114987000Y-107391078D01*
X115233000Y-107391078D01*
X115245690Y-107519921D01*
X115295838Y-107685236D01*
X115377273Y-107837591D01*
X115486867Y-107971133D01*
X115620408Y-108080727D01*
X115772763Y-108162162D01*
X115938078Y-108212310D01*
X116110000Y-108229243D01*
X116281921Y-108212310D01*
X116447236Y-108162162D01*
X116599591Y-108080727D01*
X116733133Y-107971133D01*
X116842727Y-107837592D01*
X116924162Y-107685237D01*
X116974310Y-107519922D01*
X116987000Y-107391079D01*
X116987000Y-107391078D01*
X117233000Y-107391078D01*
X117245690Y-107519921D01*
X117295838Y-107685236D01*
X117377273Y-107837591D01*
X117486867Y-107971133D01*
X117620408Y-108080727D01*
X117772763Y-108162162D01*
X117938078Y-108212310D01*
X118110000Y-108229243D01*
X118281921Y-108212310D01*
X118447236Y-108162162D01*
X118599591Y-108080727D01*
X118733133Y-107971133D01*
X118842727Y-107837592D01*
X118924162Y-107685237D01*
X118974310Y-107519922D01*
X118987000Y-107391079D01*
X118987000Y-105904921D01*
X118974310Y-105776078D01*
X118924162Y-105610763D01*
X118842727Y-105458408D01*
X118733133Y-105324867D01*
X118599592Y-105215273D01*
X118447237Y-105133838D01*
X118281922Y-105083690D01*
X118110000Y-105066757D01*
X117938079Y-105083690D01*
X117772764Y-105133838D01*
X117620409Y-105215273D01*
X117486868Y-105324867D01*
X117377274Y-105458408D01*
X117295839Y-105610763D01*
X117245691Y-105776078D01*
X117233001Y-105904921D01*
X117233000Y-107391078D01*
X116987000Y-107391078D01*
X116987000Y-105904921D01*
X116974310Y-105776078D01*
X116924162Y-105610763D01*
X116842727Y-105458408D01*
X116733133Y-105324867D01*
X116599592Y-105215273D01*
X116447237Y-105133838D01*
X116281922Y-105083690D01*
X116110000Y-105066757D01*
X115938079Y-105083690D01*
X115772764Y-105133838D01*
X115620409Y-105215273D01*
X115486868Y-105324867D01*
X115377274Y-105458408D01*
X115295839Y-105610763D01*
X115245691Y-105776078D01*
X115233001Y-105904921D01*
X115233000Y-107391078D01*
X114987000Y-107391078D01*
X114987000Y-105904921D01*
X114974310Y-105776078D01*
X114924162Y-105610763D01*
X114842727Y-105458408D01*
X114733133Y-105324867D01*
X114599592Y-105215273D01*
X114447237Y-105133838D01*
X114281922Y-105083690D01*
X114110000Y-105066757D01*
X113938079Y-105083690D01*
X113772764Y-105133838D01*
X113620409Y-105215273D01*
X113486868Y-105324867D01*
X113377274Y-105458408D01*
X113295839Y-105610763D01*
X113245691Y-105776078D01*
X113233001Y-105904921D01*
X113233000Y-107391078D01*
X112987000Y-107391078D01*
X112987000Y-105904921D01*
X112974310Y-105776078D01*
X112924162Y-105610763D01*
X112842727Y-105458408D01*
X112733133Y-105324867D01*
X112599592Y-105215273D01*
X112447237Y-105133838D01*
X112281922Y-105083690D01*
X112110000Y-105066757D01*
X111938079Y-105083690D01*
X111772764Y-105133838D01*
X111620409Y-105215273D01*
X111486868Y-105324867D01*
X111377274Y-105458408D01*
X111295839Y-105610763D01*
X111245691Y-105776078D01*
X111233001Y-105904921D01*
X111233000Y-107391078D01*
X110987000Y-107391078D01*
X110987000Y-105904921D01*
X110974310Y-105776078D01*
X110924162Y-105610763D01*
X110842727Y-105458408D01*
X110733133Y-105324867D01*
X110599592Y-105215273D01*
X110447237Y-105133838D01*
X110281922Y-105083690D01*
X110110000Y-105066757D01*
X109938079Y-105083690D01*
X109772764Y-105133838D01*
X109620409Y-105215273D01*
X109486868Y-105324867D01*
X109377274Y-105458408D01*
X109295839Y-105610763D01*
X109245691Y-105776078D01*
X109233001Y-105904921D01*
X109233000Y-107391078D01*
X108987000Y-107391078D01*
X108987000Y-105904921D01*
X108974310Y-105776078D01*
X108924162Y-105610763D01*
X108842727Y-105458408D01*
X108733133Y-105324867D01*
X108599592Y-105215273D01*
X108447237Y-105133838D01*
X108281922Y-105083690D01*
X108110000Y-105066757D01*
X107938079Y-105083690D01*
X107772764Y-105133838D01*
X107620409Y-105215273D01*
X107486868Y-105324867D01*
X107377274Y-105458408D01*
X107295839Y-105610763D01*
X107245691Y-105776078D01*
X107233001Y-105904921D01*
X107233000Y-107391078D01*
X106977150Y-107391078D01*
X106987000Y-107291079D01*
X106987000Y-105804921D01*
X106974310Y-105676078D01*
X106924162Y-105510763D01*
X106842727Y-105358408D01*
X106733133Y-105224867D01*
X106599592Y-105115273D01*
X106447237Y-105033838D01*
X106281922Y-104983690D01*
X106110000Y-104966757D01*
X105938079Y-104983690D01*
X105793436Y-105027567D01*
X105452767Y-104686899D01*
X105439395Y-104670605D01*
X105374376Y-104617245D01*
X105300196Y-104577595D01*
X105219707Y-104553178D01*
X105156978Y-104547000D01*
X105156967Y-104547000D01*
X105136000Y-104544935D01*
X105115033Y-104547000D01*
X103744732Y-104547000D01*
X103842727Y-104427592D01*
X103924162Y-104275237D01*
X103974310Y-104109922D01*
X103991243Y-103938000D01*
X103974310Y-103766078D01*
X103924162Y-103600763D01*
X103842727Y-103448408D01*
X103733133Y-103314867D01*
X103599592Y-103205273D01*
X103447237Y-103123838D01*
X103281922Y-103073690D01*
X103153079Y-103061000D01*
X101666921Y-103061000D01*
X101538078Y-103073690D01*
X101372763Y-103123838D01*
X101220408Y-103205273D01*
X101086867Y-103314867D01*
X100977273Y-103448408D01*
X100909000Y-103576138D01*
X100909000Y-102299862D01*
X100977273Y-102427592D01*
X101086867Y-102561133D01*
X101220408Y-102670727D01*
X101372763Y-102752162D01*
X101538078Y-102802310D01*
X101666921Y-102815000D01*
X103153079Y-102815000D01*
X103281922Y-102802310D01*
X103447237Y-102752162D01*
X103599592Y-102670727D01*
X103733133Y-102561133D01*
X103842727Y-102427592D01*
X103924162Y-102275237D01*
X103974310Y-102109922D01*
X103991243Y-101938000D01*
X103974310Y-101766078D01*
X103924162Y-101600763D01*
X103842727Y-101448408D01*
X103733133Y-101314867D01*
X103599592Y-101205273D01*
X103447237Y-101123838D01*
X103281922Y-101073690D01*
X103153079Y-101061000D01*
X101666921Y-101061000D01*
X101538078Y-101073690D01*
X101372763Y-101123838D01*
X101220408Y-101205273D01*
X101086867Y-101314867D01*
X100977273Y-101448408D01*
X100909000Y-101576138D01*
X100909000Y-100299862D01*
X100977273Y-100427592D01*
X101086867Y-100561133D01*
X101220408Y-100670727D01*
X101372763Y-100752162D01*
X101538078Y-100802310D01*
X101666921Y-100815000D01*
X103153079Y-100815000D01*
X103281922Y-100802310D01*
X103447237Y-100752162D01*
X103599592Y-100670727D01*
X103733133Y-100561133D01*
X103842727Y-100427592D01*
X103924162Y-100275237D01*
X103974310Y-100109922D01*
X103991243Y-99938000D01*
X103974310Y-99766078D01*
X103924162Y-99600763D01*
X103842727Y-99448408D01*
X103733133Y-99314867D01*
X103599592Y-99205273D01*
X103447237Y-99123838D01*
X103281922Y-99073690D01*
X103153079Y-99061000D01*
X101666921Y-99061000D01*
X101538078Y-99073690D01*
X101372763Y-99123838D01*
X101220408Y-99205273D01*
X101086867Y-99314867D01*
X100977273Y-99448408D01*
X100909000Y-99576138D01*
X100909000Y-98299862D01*
X100977273Y-98427592D01*
X101086867Y-98561133D01*
X101220408Y-98670727D01*
X101372763Y-98752162D01*
X101538078Y-98802310D01*
X101666921Y-98815000D01*
X103153079Y-98815000D01*
X103281922Y-98802310D01*
X103447237Y-98752162D01*
X103599592Y-98670727D01*
X103733133Y-98561133D01*
X103842727Y-98427592D01*
X103924162Y-98275237D01*
X103974310Y-98109922D01*
X103991243Y-97938000D01*
X103974310Y-97766078D01*
X103924162Y-97600763D01*
X103842727Y-97448408D01*
X103733133Y-97314867D01*
X103599592Y-97205273D01*
X103447237Y-97123838D01*
X103281922Y-97073690D01*
X103153079Y-97061000D01*
X101666921Y-97061000D01*
X101538078Y-97073690D01*
X101372763Y-97123838D01*
X101220408Y-97205273D01*
X101086867Y-97314867D01*
X100977273Y-97448408D01*
X100909000Y-97576138D01*
X100909000Y-96299862D01*
X100977273Y-96427592D01*
X101086867Y-96561133D01*
X101220408Y-96670727D01*
X101372763Y-96752162D01*
X101538078Y-96802310D01*
X101666921Y-96815000D01*
X103153079Y-96815000D01*
X103281922Y-96802310D01*
X103447237Y-96752162D01*
X103599592Y-96670727D01*
X103733133Y-96561133D01*
X103842727Y-96427592D01*
X103924162Y-96275237D01*
X103974310Y-96109922D01*
X103991243Y-95938000D01*
X103974310Y-95766078D01*
X103924162Y-95600763D01*
X103842727Y-95448408D01*
X103733133Y-95314867D01*
X103599592Y-95205273D01*
X103447237Y-95123838D01*
X103281922Y-95073690D01*
X103153079Y-95061000D01*
X101666921Y-95061000D01*
X101538078Y-95073690D01*
X101372763Y-95123838D01*
X101220408Y-95205273D01*
X101086867Y-95314867D01*
X100977273Y-95448408D01*
X100895838Y-95600763D01*
X100849073Y-95754926D01*
X100838756Y-95735624D01*
X100798768Y-95686900D01*
X100785395Y-95670605D01*
X100769101Y-95657233D01*
X100598767Y-95486899D01*
X100585395Y-95470605D01*
X100520376Y-95417245D01*
X100446196Y-95377595D01*
X100365707Y-95353178D01*
X100302978Y-95347000D01*
X100302967Y-95347000D01*
X100282000Y-95344935D01*
X100261033Y-95347000D01*
X100087882Y-95347000D01*
X100095072Y-95274000D01*
X100092000Y-95109750D01*
X99933250Y-94951000D01*
X99109000Y-94951000D01*
X99109000Y-94971000D01*
X98855000Y-94971000D01*
X98855000Y-94951000D01*
X97375666Y-94951000D01*
X97375666Y-94971000D01*
X97121666Y-94971000D01*
X97121666Y-94951000D01*
X97101666Y-94951000D01*
X97101666Y-94697000D01*
X97121666Y-94697000D01*
X97121666Y-94677000D01*
X97375666Y-94677000D01*
X97375666Y-94697000D01*
X98855000Y-94697000D01*
X98855000Y-94677000D01*
X99109000Y-94677000D01*
X99109000Y-94697000D01*
X99933250Y-94697000D01*
X100092000Y-94538250D01*
X100095072Y-94374000D01*
X100082812Y-94249518D01*
X100046502Y-94129820D01*
X99987537Y-94019506D01*
X99920647Y-93938000D01*
X100828757Y-93938000D01*
X100845690Y-94109922D01*
X100895838Y-94275237D01*
X100977273Y-94427592D01*
X101086867Y-94561133D01*
X101220408Y-94670727D01*
X101372763Y-94752162D01*
X101538078Y-94802310D01*
X101666921Y-94815000D01*
X103153079Y-94815000D01*
X103281922Y-94802310D01*
X103447237Y-94752162D01*
X103599592Y-94670727D01*
X103733133Y-94561133D01*
X103842727Y-94427592D01*
X103924162Y-94275237D01*
X103974310Y-94109922D01*
X103991243Y-93938000D01*
X103974310Y-93766078D01*
X103924162Y-93600763D01*
X103842727Y-93448408D01*
X103733133Y-93314867D01*
X103599592Y-93205273D01*
X103447237Y-93123838D01*
X103281922Y-93073690D01*
X103153079Y-93061000D01*
X101666921Y-93061000D01*
X101538078Y-93073690D01*
X101372763Y-93123838D01*
X101220408Y-93205273D01*
X101086867Y-93314867D01*
X100977273Y-93448408D01*
X100895838Y-93600763D01*
X100845690Y-93766078D01*
X100828757Y-93938000D01*
X99920647Y-93938000D01*
X99908185Y-93922815D01*
X99811494Y-93843463D01*
X99703433Y-93785702D01*
X99743443Y-93710847D01*
X99746430Y-93701000D01*
X100461033Y-93701000D01*
X100482000Y-93703065D01*
X100502967Y-93701000D01*
X100502978Y-93701000D01*
X100565707Y-93694822D01*
X100646196Y-93670405D01*
X100720376Y-93630755D01*
X100785395Y-93577395D01*
X100798768Y-93561100D01*
X101984870Y-92375000D01*
X103343818Y-92375000D01*
X103377273Y-92437591D01*
X103486867Y-92571133D01*
X103620408Y-92680727D01*
X103772763Y-92762162D01*
X103938078Y-92812310D01*
X104110000Y-92829243D01*
X104281921Y-92812310D01*
X104447236Y-92762162D01*
X104599591Y-92680727D01*
X104733133Y-92571133D01*
X104842727Y-92437592D01*
X104924162Y-92285237D01*
X104974310Y-92119922D01*
X104987000Y-91991079D01*
X104987000Y-90504921D01*
X104974310Y-90376078D01*
X104924162Y-90210763D01*
X104842727Y-90058408D01*
X104733133Y-89924867D01*
X104673588Y-89876000D01*
X105174066Y-89876000D01*
X105370029Y-90071963D01*
X105295839Y-90210763D01*
X105245691Y-90376078D01*
X105233001Y-90504921D01*
X105233000Y-91991078D01*
X105245690Y-92119921D01*
X105295838Y-92285236D01*
X105377273Y-92437591D01*
X105486867Y-92571133D01*
X105620408Y-92680727D01*
X105772763Y-92762162D01*
X105938078Y-92812310D01*
X106110000Y-92829243D01*
X106281921Y-92812310D01*
X106447236Y-92762162D01*
X106599591Y-92680727D01*
X106733133Y-92571133D01*
X106842727Y-92437592D01*
X106924162Y-92285237D01*
X106974310Y-92119922D01*
X106987000Y-91991079D01*
X106987000Y-91991078D01*
X107233000Y-91991078D01*
X107245690Y-92119921D01*
X107295838Y-92285236D01*
X107377273Y-92437591D01*
X107486867Y-92571133D01*
X107620408Y-92680727D01*
X107772763Y-92762162D01*
X107938078Y-92812310D01*
X108110000Y-92829243D01*
X108281921Y-92812310D01*
X108447236Y-92762162D01*
X108599591Y-92680727D01*
X108733133Y-92571133D01*
X108842727Y-92437592D01*
X108924162Y-92285237D01*
X108974310Y-92119922D01*
X108987000Y-91991079D01*
X108987000Y-91991078D01*
X109233000Y-91991078D01*
X109245690Y-92119921D01*
X109295838Y-92285236D01*
X109377273Y-92437591D01*
X109486867Y-92571133D01*
X109620408Y-92680727D01*
X109772763Y-92762162D01*
X109938078Y-92812310D01*
X110110000Y-92829243D01*
X110281921Y-92812310D01*
X110447236Y-92762162D01*
X110599591Y-92680727D01*
X110733133Y-92571133D01*
X110842727Y-92437592D01*
X110924162Y-92285237D01*
X110974310Y-92119922D01*
X110987000Y-91991079D01*
X110987000Y-91991078D01*
X111233000Y-91991078D01*
X111245690Y-92119921D01*
X111295838Y-92285236D01*
X111377273Y-92437591D01*
X111486867Y-92571133D01*
X111620408Y-92680727D01*
X111772763Y-92762162D01*
X111938078Y-92812310D01*
X112110000Y-92829243D01*
X112281921Y-92812310D01*
X112447236Y-92762162D01*
X112599591Y-92680727D01*
X112733133Y-92571133D01*
X112842727Y-92437592D01*
X112924162Y-92285237D01*
X112974310Y-92119922D01*
X112987000Y-91991079D01*
X112987000Y-91991078D01*
X113233000Y-91991078D01*
X113245690Y-92119921D01*
X113295838Y-92285236D01*
X113377273Y-92437591D01*
X113486867Y-92571133D01*
X113620408Y-92680727D01*
X113772763Y-92762162D01*
X113938078Y-92812310D01*
X114110000Y-92829243D01*
X114281921Y-92812310D01*
X114447236Y-92762162D01*
X114599591Y-92680727D01*
X114733133Y-92571133D01*
X114842727Y-92437592D01*
X114924162Y-92285237D01*
X114974310Y-92119922D01*
X114987000Y-91991079D01*
X114987000Y-91991078D01*
X115233000Y-91991078D01*
X115245690Y-92119921D01*
X115295838Y-92285236D01*
X115377273Y-92437591D01*
X115486867Y-92571133D01*
X115620408Y-92680727D01*
X115772763Y-92762162D01*
X115938078Y-92812310D01*
X116110000Y-92829243D01*
X116281921Y-92812310D01*
X116447236Y-92762162D01*
X116599591Y-92680727D01*
X116733133Y-92571133D01*
X116842727Y-92437592D01*
X116924162Y-92285237D01*
X116974310Y-92119922D01*
X116987000Y-91991079D01*
X116987000Y-90504921D01*
X116974310Y-90376078D01*
X116924162Y-90210763D01*
X116842727Y-90058408D01*
X116793152Y-89998000D01*
X117231418Y-89998000D01*
X117231418Y-92498000D01*
X117237732Y-92562103D01*
X117256430Y-92623743D01*
X117286794Y-92680550D01*
X117327657Y-92730343D01*
X117377450Y-92771206D01*
X117434257Y-92801570D01*
X117495897Y-92820268D01*
X117560000Y-92826582D01*
X118660000Y-92826582D01*
X118724103Y-92820268D01*
X118785743Y-92801570D01*
X118842550Y-92771206D01*
X118892343Y-92730343D01*
X118933206Y-92680550D01*
X118963570Y-92623743D01*
X118982268Y-92562103D01*
X118988582Y-92498000D01*
X118988582Y-89998000D01*
X118982268Y-89933897D01*
X118963570Y-89872257D01*
X118933206Y-89815450D01*
X118892343Y-89765657D01*
X118842550Y-89724794D01*
X118785743Y-89694430D01*
X118724103Y-89675732D01*
X118660000Y-89669418D01*
X117560000Y-89669418D01*
X117495897Y-89675732D01*
X117434257Y-89694430D01*
X117377450Y-89724794D01*
X117327657Y-89765657D01*
X117286794Y-89815450D01*
X117256430Y-89872257D01*
X117237732Y-89933897D01*
X117231418Y-89998000D01*
X116793152Y-89998000D01*
X116733133Y-89924867D01*
X116599592Y-89815273D01*
X116447237Y-89733838D01*
X116281922Y-89683690D01*
X116110000Y-89666757D01*
X115938079Y-89683690D01*
X115772764Y-89733838D01*
X115620409Y-89815273D01*
X115486868Y-89924867D01*
X115377274Y-90058408D01*
X115295839Y-90210763D01*
X115245691Y-90376078D01*
X115233001Y-90504921D01*
X115233000Y-91991078D01*
X114987000Y-91991078D01*
X114987000Y-90504921D01*
X114974310Y-90376078D01*
X114924162Y-90210763D01*
X114842727Y-90058408D01*
X114733133Y-89924867D01*
X114599592Y-89815273D01*
X114447237Y-89733838D01*
X114281922Y-89683690D01*
X114110000Y-89666757D01*
X113938079Y-89683690D01*
X113772764Y-89733838D01*
X113620409Y-89815273D01*
X113486868Y-89924867D01*
X113377274Y-90058408D01*
X113295839Y-90210763D01*
X113245691Y-90376078D01*
X113233001Y-90504921D01*
X113233000Y-91991078D01*
X112987000Y-91991078D01*
X112987000Y-90504921D01*
X112974310Y-90376078D01*
X112924162Y-90210763D01*
X112842727Y-90058408D01*
X112733133Y-89924867D01*
X112599592Y-89815273D01*
X112447237Y-89733838D01*
X112281922Y-89683690D01*
X112110000Y-89666757D01*
X111938079Y-89683690D01*
X111772764Y-89733838D01*
X111620409Y-89815273D01*
X111486868Y-89924867D01*
X111377274Y-90058408D01*
X111295839Y-90210763D01*
X111245691Y-90376078D01*
X111233001Y-90504921D01*
X111233000Y-91991078D01*
X110987000Y-91991078D01*
X110987000Y-90504921D01*
X110974310Y-90376078D01*
X110924162Y-90210763D01*
X110842727Y-90058408D01*
X110733133Y-89924867D01*
X110599592Y-89815273D01*
X110447237Y-89733838D01*
X110281922Y-89683690D01*
X110110000Y-89666757D01*
X109938079Y-89683690D01*
X109772764Y-89733838D01*
X109620409Y-89815273D01*
X109486868Y-89924867D01*
X109377274Y-90058408D01*
X109295839Y-90210763D01*
X109245691Y-90376078D01*
X109233001Y-90504921D01*
X109233000Y-91991078D01*
X108987000Y-91991078D01*
X108987000Y-90504921D01*
X108974310Y-90376078D01*
X108924162Y-90210763D01*
X108842727Y-90058408D01*
X108733133Y-89924867D01*
X108599592Y-89815273D01*
X108447237Y-89733838D01*
X108281922Y-89683690D01*
X108110000Y-89666757D01*
X107938079Y-89683690D01*
X107772764Y-89733838D01*
X107620409Y-89815273D01*
X107486868Y-89924867D01*
X107377274Y-90058408D01*
X107295839Y-90210763D01*
X107245691Y-90376078D01*
X107233001Y-90504921D01*
X107233000Y-91991078D01*
X106987000Y-91991078D01*
X106987000Y-90504921D01*
X106974310Y-90376078D01*
X106924162Y-90210763D01*
X106842727Y-90058408D01*
X106733133Y-89924867D01*
X106599592Y-89815273D01*
X106462898Y-89742209D01*
X106447538Y-89729603D01*
X105754401Y-89036467D01*
X105738684Y-89017316D01*
X105662245Y-88954583D01*
X105575036Y-88907969D01*
X105480409Y-88879264D01*
X105406653Y-88872000D01*
X105406643Y-88872000D01*
X105382000Y-88869573D01*
X105357357Y-88872000D01*
X100546643Y-88872000D01*
X100522000Y-88869573D01*
X100497357Y-88872000D01*
X100497347Y-88872000D01*
X100423591Y-88879264D01*
X100328964Y-88907969D01*
X100241755Y-88954583D01*
X100165316Y-89017316D01*
X100149603Y-89036462D01*
X99609369Y-89576696D01*
X99497691Y-89517003D01*
X99313525Y-89461137D01*
X99122000Y-89442273D01*
X98930476Y-89461137D01*
X98746310Y-89517003D01*
X98576583Y-89607724D01*
X98427815Y-89729814D01*
X98305725Y-89878582D01*
X98215004Y-90048309D01*
X98159137Y-90232475D01*
X98145000Y-90376007D01*
X98145000Y-91171992D01*
X98159137Y-91315524D01*
X98215003Y-91499690D01*
X98305724Y-91669418D01*
X98427814Y-91818186D01*
X98576582Y-91940276D01*
X98746309Y-92030997D01*
X98930475Y-92086863D01*
X99122000Y-92105727D01*
X99313524Y-92086863D01*
X99497690Y-92030997D01*
X99667418Y-91940276D01*
X99816186Y-91818186D01*
X99938276Y-91669418D01*
X100028997Y-91499691D01*
X100084863Y-91315525D01*
X100099000Y-91171993D01*
X100099000Y-90506934D01*
X100729935Y-89876000D01*
X103546413Y-89876000D01*
X103486868Y-89924867D01*
X103377274Y-90058408D01*
X103295839Y-90210763D01*
X103245691Y-90376078D01*
X103233001Y-90504921D01*
X103233000Y-91521000D01*
X101828966Y-91521000D01*
X101807999Y-91518935D01*
X101787032Y-91521000D01*
X101787022Y-91521000D01*
X101724293Y-91527178D01*
X101643804Y-91551595D01*
X101609273Y-91570052D01*
X101569623Y-91591245D01*
X101520898Y-91631232D01*
X101520889Y-91631241D01*
X101504605Y-91644605D01*
X101491241Y-91660889D01*
X100305132Y-92847000D01*
X99746430Y-92847000D01*
X99743443Y-92837153D01*
X99692287Y-92741446D01*
X99623442Y-92657558D01*
X99539554Y-92588713D01*
X99443847Y-92537557D01*
X99339998Y-92506055D01*
X99232000Y-92495418D01*
X98732000Y-92495418D01*
X98624002Y-92506055D01*
X98520153Y-92537557D01*
X98424446Y-92588713D01*
X98340558Y-92657558D01*
X98337211Y-92661636D01*
X98381950Y-92594680D01*
X98432984Y-92471474D01*
X98459000Y-92340679D01*
X98459000Y-92207321D01*
X98432984Y-92076526D01*
X98381950Y-91953320D01*
X98307860Y-91842437D01*
X98213563Y-91748140D01*
X98102680Y-91674050D01*
X97979474Y-91623016D01*
X97848679Y-91597000D01*
X97777005Y-91597000D01*
X97817533Y-91499251D01*
X97867000Y-91251000D01*
X97867000Y-90901000D01*
X96709000Y-90901000D01*
X96709000Y-92243067D01*
X96907471Y-92367099D01*
X96956415Y-92359787D01*
X97105000Y-92298300D01*
X97105000Y-92340679D01*
X97131016Y-92471474D01*
X97140934Y-92495418D01*
X96998666Y-92495418D01*
X96890668Y-92506055D01*
X96786819Y-92537557D01*
X96691112Y-92588713D01*
X96607224Y-92657558D01*
X96604444Y-92660945D01*
X96579835Y-92579820D01*
X96520870Y-92469506D01*
X96441518Y-92372815D01*
X96357593Y-92303940D01*
X96455000Y-92243067D01*
X96455000Y-90901000D01*
X95297000Y-90901000D01*
X95297000Y-91251000D01*
X95346467Y-91499251D01*
X95443415Y-91733081D01*
X95584118Y-91943505D01*
X95763170Y-92122436D01*
X95861397Y-92188021D01*
X95801083Y-92189000D01*
X95642333Y-92347750D01*
X95642333Y-93097000D01*
X95662333Y-93097000D01*
X95662333Y-93351000D01*
X95642333Y-93351000D01*
X95642333Y-93371000D01*
X95388333Y-93371000D01*
X95388333Y-93351000D01*
X95368333Y-93351000D01*
X95368333Y-93097000D01*
X95388333Y-93097000D01*
X95388333Y-92347750D01*
X95229583Y-92189000D01*
X95040333Y-92185928D01*
X94915851Y-92198188D01*
X94796153Y-92234498D01*
X94685839Y-92293463D01*
X94589148Y-92372815D01*
X94509796Y-92469506D01*
X94450831Y-92579820D01*
X94429728Y-92649386D01*
X94350664Y-92584500D01*
X94259280Y-92535654D01*
X94160121Y-92505575D01*
X94057000Y-92495418D01*
X93507000Y-92495418D01*
X93438092Y-92502205D01*
X93432984Y-92476526D01*
X93381950Y-92353320D01*
X93307860Y-92242437D01*
X93213563Y-92148140D01*
X93102680Y-92074050D01*
X92979474Y-92023016D01*
X92848679Y-91997000D01*
X92715321Y-91997000D01*
X92584526Y-92023016D01*
X92461320Y-92074050D01*
X92350437Y-92148140D01*
X92256140Y-92242437D01*
X92182050Y-92353320D01*
X92131016Y-92476526D01*
X92105000Y-92607321D01*
X92105000Y-92733589D01*
X92079474Y-92723016D01*
X91948679Y-92697000D01*
X91815321Y-92697000D01*
X91684526Y-92723016D01*
X91561320Y-92774050D01*
X91450437Y-92848140D01*
X91356140Y-92942437D01*
X91282050Y-93053320D01*
X91231016Y-93176526D01*
X91205000Y-93307321D01*
X91205000Y-93440679D01*
X91231016Y-93571474D01*
X91282050Y-93694680D01*
X91356140Y-93805563D01*
X91364212Y-93813635D01*
X90935750Y-93815000D01*
X90777000Y-93973750D01*
X90777000Y-94873000D01*
X92376250Y-94873000D01*
X92535000Y-94714250D01*
X92535958Y-94631827D01*
X92978449Y-95074319D01*
X92988575Y-95177121D01*
X93018654Y-95276280D01*
X93067500Y-95367664D01*
X93133236Y-95447764D01*
X93213336Y-95513500D01*
X93304720Y-95562346D01*
X93403879Y-95592425D01*
X93507000Y-95602582D01*
X94057000Y-95602582D01*
X94160121Y-95592425D01*
X94259280Y-95562346D01*
X94350664Y-95513500D01*
X94430764Y-95447764D01*
X94496500Y-95367664D01*
X94545346Y-95276280D01*
X94575425Y-95177121D01*
X94585582Y-95074000D01*
X94585582Y-94674000D01*
X94575425Y-94570879D01*
X94545346Y-94471720D01*
X94496500Y-94380336D01*
X94430764Y-94300236D01*
X94350664Y-94234500D01*
X94259280Y-94185654D01*
X94160121Y-94155575D01*
X94057000Y-94145418D01*
X93507000Y-94145418D01*
X93403879Y-94155575D01*
X93304720Y-94185654D01*
X93300030Y-94188161D01*
X92557929Y-93446061D01*
X92559000Y-93440679D01*
X92559000Y-93314411D01*
X92584526Y-93324984D01*
X92715321Y-93351000D01*
X92848679Y-93351000D01*
X92854061Y-93349930D01*
X92983912Y-93479781D01*
X92988575Y-93527121D01*
X93018654Y-93626280D01*
X93067500Y-93717664D01*
X93133236Y-93797764D01*
X93213336Y-93863500D01*
X93304720Y-93912346D01*
X93403879Y-93942425D01*
X93507000Y-93952582D01*
X94057000Y-93952582D01*
X94160121Y-93942425D01*
X94259280Y-93912346D01*
X94350664Y-93863500D01*
X94429728Y-93798614D01*
X94450831Y-93868180D01*
X94509796Y-93978494D01*
X94589148Y-94075185D01*
X94685839Y-94154537D01*
X94796153Y-94213502D01*
X94915851Y-94249812D01*
X94926708Y-94250881D01*
X94866569Y-94300236D01*
X94800833Y-94380336D01*
X94751987Y-94471720D01*
X94721908Y-94570879D01*
X94711751Y-94674000D01*
X94711751Y-95074000D01*
X94721908Y-95177121D01*
X94751987Y-95276280D01*
X94800833Y-95367664D01*
X94866569Y-95447764D01*
X94946669Y-95513500D01*
X95038053Y-95562346D01*
X95137212Y-95592425D01*
X95240016Y-95602551D01*
X95376998Y-95739533D01*
X95376998Y-95838414D01*
X95218250Y-95679666D01*
X95029000Y-95676594D01*
X94904518Y-95688854D01*
X94784820Y-95725164D01*
X94674506Y-95784129D01*
X94620077Y-95828798D01*
X94555494Y-95775796D01*
X94445180Y-95716831D01*
X94325482Y-95680521D01*
X94201000Y-95668261D01*
X94011750Y-95671333D01*
X93853000Y-95830083D01*
X93853000Y-96629333D01*
X94544417Y-96629333D01*
X94552750Y-96637666D01*
X95377000Y-96637666D01*
X95377000Y-96617666D01*
X95631000Y-96617666D01*
X95631000Y-96637666D01*
X96455250Y-96637666D01*
X96471916Y-96621000D01*
X97155000Y-96621000D01*
X97155000Y-96601000D01*
X97409000Y-96601000D01*
X97409000Y-96621000D01*
X98083751Y-96621000D01*
X98108750Y-96645999D01*
X98933000Y-96645999D01*
X98933000Y-96625999D01*
X99187000Y-96625999D01*
X99187000Y-96645999D01*
X99207000Y-96645999D01*
X99207000Y-96899999D01*
X99187000Y-96899999D01*
X99187000Y-96919999D01*
X98933000Y-96919999D01*
X98933000Y-96899999D01*
X98258249Y-96899999D01*
X98233250Y-96875000D01*
X97409000Y-96875000D01*
X97409000Y-96895000D01*
X97155000Y-96895000D01*
X97155000Y-96875000D01*
X96330750Y-96875000D01*
X96314084Y-96891666D01*
X95631000Y-96891666D01*
X95631000Y-96911666D01*
X95377000Y-96911666D01*
X95377000Y-96891666D01*
X94685583Y-96891666D01*
X94677250Y-96883333D01*
X93853000Y-96883333D01*
X93853000Y-96903333D01*
X93599000Y-96903333D01*
X93599000Y-96883333D01*
X92774750Y-96883333D01*
X92616000Y-97042083D01*
X92612928Y-97206333D01*
X92625188Y-97330815D01*
X92661498Y-97450513D01*
X92720463Y-97560827D01*
X92799815Y-97657518D01*
X92896506Y-97736870D01*
X93004567Y-97794631D01*
X92964557Y-97869486D01*
X92933055Y-97973335D01*
X92922418Y-98081333D01*
X92922418Y-98531333D01*
X92933055Y-98639331D01*
X92964557Y-98743180D01*
X93015713Y-98838887D01*
X93084558Y-98922775D01*
X93168446Y-98991620D01*
X93180001Y-98997796D01*
X93180000Y-99584869D01*
X93166430Y-99610257D01*
X93147732Y-99671897D01*
X93141418Y-99736000D01*
X93141418Y-100447000D01*
X91511705Y-100447000D01*
X91475999Y-100443483D01*
X91440294Y-100447000D01*
X91440292Y-100447000D01*
X91333483Y-100457520D01*
X91196443Y-100499090D01*
X91070147Y-100566597D01*
X90959446Y-100657446D01*
X90936679Y-100685188D01*
X90500450Y-101121418D01*
X89400000Y-101121418D01*
X89335897Y-101127732D01*
X89274257Y-101146430D01*
X89217450Y-101176794D01*
X89167657Y-101217657D01*
X89126794Y-101267450D01*
X89096430Y-101324257D01*
X89077732Y-101385897D01*
X89071418Y-101450000D01*
X89071418Y-102550000D01*
X89077732Y-102614103D01*
X89092504Y-102662801D01*
X88827000Y-102615000D01*
X88027000Y-102615000D01*
X87773000Y-102615000D01*
X86973000Y-102615000D01*
X86666222Y-102670232D01*
X86376114Y-102784252D01*
X86113825Y-102952678D01*
X85889434Y-103169038D01*
X85711564Y-103425017D01*
X85587051Y-103710779D01*
X85559414Y-103827412D01*
X84934000Y-103827412D01*
X84934000Y-100713623D01*
X87023000Y-100713623D01*
X87023000Y-100886377D01*
X87056703Y-101055811D01*
X87122813Y-101215415D01*
X87218790Y-101359055D01*
X87340945Y-101481210D01*
X87484585Y-101577187D01*
X87644189Y-101643297D01*
X87813623Y-101677000D01*
X87986377Y-101677000D01*
X88155811Y-101643297D01*
X88315415Y-101577187D01*
X88459055Y-101481210D01*
X88581210Y-101359055D01*
X88677187Y-101215415D01*
X88743297Y-101055811D01*
X88777000Y-100886377D01*
X88777000Y-100713623D01*
X88743297Y-100544189D01*
X88677187Y-100384585D01*
X88581210Y-100240945D01*
X88459055Y-100118790D01*
X88315415Y-100022813D01*
X88155811Y-99956703D01*
X87986377Y-99923000D01*
X87813623Y-99923000D01*
X87644189Y-99956703D01*
X87484585Y-100022813D01*
X87340945Y-100118790D01*
X87218790Y-100240945D01*
X87122813Y-100384585D01*
X87056703Y-100544189D01*
X87023000Y-100713623D01*
X84934000Y-100713623D01*
X84934000Y-98950000D01*
X89071418Y-98950000D01*
X89071418Y-100050000D01*
X89077732Y-100114103D01*
X89096430Y-100175743D01*
X89126794Y-100232550D01*
X89167657Y-100282343D01*
X89217450Y-100323206D01*
X89274257Y-100353570D01*
X89335897Y-100372268D01*
X89400000Y-100378582D01*
X91900000Y-100378582D01*
X91964103Y-100372268D01*
X92025743Y-100353570D01*
X92082550Y-100323206D01*
X92132343Y-100282343D01*
X92173206Y-100232550D01*
X92203570Y-100175743D01*
X92222268Y-100114103D01*
X92228582Y-100050000D01*
X92228582Y-98950000D01*
X92222268Y-98885897D01*
X92203570Y-98824257D01*
X92173206Y-98767450D01*
X92132343Y-98717657D01*
X92082550Y-98676794D01*
X92025743Y-98646430D01*
X91964103Y-98627732D01*
X91900000Y-98621418D01*
X89400000Y-98621418D01*
X89335897Y-98627732D01*
X89274257Y-98646430D01*
X89217450Y-98676794D01*
X89167657Y-98717657D01*
X89126794Y-98767450D01*
X89096430Y-98824257D01*
X89077732Y-98885897D01*
X89071418Y-98950000D01*
X84934000Y-98950000D01*
X84934000Y-96113623D01*
X87023000Y-96113623D01*
X87023000Y-96286377D01*
X87056703Y-96455811D01*
X87122813Y-96615415D01*
X87218790Y-96759055D01*
X87340945Y-96881210D01*
X87484585Y-96977187D01*
X87644189Y-97043297D01*
X87813623Y-97077000D01*
X87986377Y-97077000D01*
X88155811Y-97043297D01*
X88315415Y-96977187D01*
X88356103Y-96950000D01*
X89071418Y-96950000D01*
X89071418Y-98050000D01*
X89077732Y-98114103D01*
X89096430Y-98175743D01*
X89126794Y-98232550D01*
X89167657Y-98282343D01*
X89217450Y-98323206D01*
X89274257Y-98353570D01*
X89335897Y-98372268D01*
X89400000Y-98378582D01*
X91900000Y-98378582D01*
X91964103Y-98372268D01*
X92025743Y-98353570D01*
X92082550Y-98323206D01*
X92132343Y-98282343D01*
X92173206Y-98232550D01*
X92203570Y-98175743D01*
X92222268Y-98114103D01*
X92228582Y-98050000D01*
X92228582Y-96950000D01*
X92222268Y-96885897D01*
X92203570Y-96824257D01*
X92173206Y-96767450D01*
X92132343Y-96717657D01*
X92082550Y-96676794D01*
X92025743Y-96646430D01*
X91964103Y-96627732D01*
X91900000Y-96621418D01*
X89400000Y-96621418D01*
X89335897Y-96627732D01*
X89274257Y-96646430D01*
X89217450Y-96676794D01*
X89167657Y-96717657D01*
X89126794Y-96767450D01*
X89096430Y-96824257D01*
X89077732Y-96885897D01*
X89071418Y-96950000D01*
X88356103Y-96950000D01*
X88459055Y-96881210D01*
X88581210Y-96759055D01*
X88677187Y-96615415D01*
X88743297Y-96455811D01*
X88773030Y-96306333D01*
X92612928Y-96306333D01*
X92616000Y-96470583D01*
X92774750Y-96629333D01*
X93599000Y-96629333D01*
X93599000Y-95830083D01*
X93440250Y-95671333D01*
X93251000Y-95668261D01*
X93126518Y-95680521D01*
X93006820Y-95716831D01*
X92896506Y-95775796D01*
X92799815Y-95855148D01*
X92720463Y-95951839D01*
X92661498Y-96062153D01*
X92625188Y-96181851D01*
X92612928Y-96306333D01*
X88773030Y-96306333D01*
X88777000Y-96286377D01*
X88777000Y-96113623D01*
X88743297Y-95944189D01*
X88677187Y-95784585D01*
X88581210Y-95640945D01*
X88490265Y-95550000D01*
X88761928Y-95550000D01*
X88774188Y-95674482D01*
X88810498Y-95794180D01*
X88869463Y-95904494D01*
X88948815Y-96001185D01*
X89045506Y-96080537D01*
X89155820Y-96139502D01*
X89275518Y-96175812D01*
X89400000Y-96188072D01*
X90364250Y-96185000D01*
X90523000Y-96026250D01*
X90523000Y-95127000D01*
X90777000Y-95127000D01*
X90777000Y-96026250D01*
X90935750Y-96185000D01*
X91900000Y-96188072D01*
X92024482Y-96175812D01*
X92144180Y-96139502D01*
X92254494Y-96080537D01*
X92351185Y-96001185D01*
X92430537Y-95904494D01*
X92489502Y-95794180D01*
X92525812Y-95674482D01*
X92538072Y-95550000D01*
X92535000Y-95285750D01*
X92376250Y-95127000D01*
X90777000Y-95127000D01*
X90523000Y-95127000D01*
X88923750Y-95127000D01*
X88765000Y-95285750D01*
X88761928Y-95550000D01*
X88490265Y-95550000D01*
X88459055Y-95518790D01*
X88315415Y-95422813D01*
X88155811Y-95356703D01*
X87986377Y-95323000D01*
X87813623Y-95323000D01*
X87644189Y-95356703D01*
X87484585Y-95422813D01*
X87340945Y-95518790D01*
X87218790Y-95640945D01*
X87122813Y-95784585D01*
X87056703Y-95944189D01*
X87023000Y-96113623D01*
X84934000Y-96113623D01*
X84934000Y-93172588D01*
X85559414Y-93172588D01*
X85587051Y-93289221D01*
X85711564Y-93574983D01*
X85889434Y-93830962D01*
X86113825Y-94047322D01*
X86376114Y-94215748D01*
X86666222Y-94329768D01*
X86973000Y-94385000D01*
X87773000Y-94385000D01*
X87773000Y-92927000D01*
X88027000Y-92927000D01*
X88027000Y-94385000D01*
X88768330Y-94385000D01*
X88761928Y-94450000D01*
X88765000Y-94714250D01*
X88923750Y-94873000D01*
X90523000Y-94873000D01*
X90523000Y-93973750D01*
X90364250Y-93815000D01*
X89922635Y-93813593D01*
X90088436Y-93574983D01*
X90212949Y-93289221D01*
X90240586Y-93172588D01*
X90120584Y-92927000D01*
X88027000Y-92927000D01*
X87773000Y-92927000D01*
X85679416Y-92927000D01*
X85559414Y-93172588D01*
X84934000Y-93172588D01*
X84934000Y-92427412D01*
X85559414Y-92427412D01*
X85679416Y-92673000D01*
X87773000Y-92673000D01*
X87773000Y-91215000D01*
X88027000Y-91215000D01*
X88027000Y-92673000D01*
X90120584Y-92673000D01*
X90240586Y-92427412D01*
X90212949Y-92310779D01*
X90088436Y-92025017D01*
X89910566Y-91769038D01*
X89686175Y-91552678D01*
X89423886Y-91384252D01*
X89133778Y-91270232D01*
X88827000Y-91215000D01*
X88027000Y-91215000D01*
X87773000Y-91215000D01*
X86973000Y-91215000D01*
X86666222Y-91270232D01*
X86376114Y-91384252D01*
X86113825Y-91552678D01*
X85889434Y-91769038D01*
X85711564Y-92025017D01*
X85587051Y-92310779D01*
X85559414Y-92427412D01*
X84934000Y-92427412D01*
X84934000Y-90376007D01*
X93065000Y-90376007D01*
X93065000Y-91171992D01*
X93079137Y-91315524D01*
X93135003Y-91499690D01*
X93225724Y-91669418D01*
X93347814Y-91818186D01*
X93496582Y-91940276D01*
X93666309Y-92030997D01*
X93850475Y-92086863D01*
X94042000Y-92105727D01*
X94233524Y-92086863D01*
X94417690Y-92030997D01*
X94587418Y-91940276D01*
X94736186Y-91818186D01*
X94858276Y-91669418D01*
X94948997Y-91499691D01*
X95004863Y-91315525D01*
X95019000Y-91171993D01*
X95019000Y-90376008D01*
X95011219Y-90297000D01*
X95297000Y-90297000D01*
X95297000Y-90647000D01*
X96455000Y-90647000D01*
X96455000Y-89304933D01*
X96709000Y-89304933D01*
X96709000Y-90647000D01*
X97867000Y-90647000D01*
X97867000Y-90297000D01*
X97817533Y-90048749D01*
X97720585Y-89814919D01*
X97579882Y-89604495D01*
X97400830Y-89425564D01*
X97190311Y-89285003D01*
X96956415Y-89188213D01*
X96907471Y-89180901D01*
X96709000Y-89304933D01*
X96455000Y-89304933D01*
X96256529Y-89180901D01*
X96207585Y-89188213D01*
X95973689Y-89285003D01*
X95763170Y-89425564D01*
X95584118Y-89604495D01*
X95443415Y-89814919D01*
X95346467Y-90048749D01*
X95297000Y-90297000D01*
X95011219Y-90297000D01*
X95004863Y-90232476D01*
X94948997Y-90048309D01*
X94858276Y-89878582D01*
X94736186Y-89729814D01*
X94587418Y-89607724D01*
X94417691Y-89517003D01*
X94233525Y-89461137D01*
X94042000Y-89442273D01*
X93850476Y-89461137D01*
X93666310Y-89517003D01*
X93496583Y-89607724D01*
X93347815Y-89729814D01*
X93225725Y-89878582D01*
X93135004Y-90048309D01*
X93079137Y-90232475D01*
X93065000Y-90376007D01*
X84934000Y-90376007D01*
X84934000Y-87727983D01*
X120355000Y-87726308D01*
X120355000Y-109120309D01*
%TA.AperFunction,Conductor*%
D20*
G36*
X120355000Y-109120309D02*
G01*
X84934000Y-109121984D01*
X84934000Y-104572588D01*
X85559414Y-104572588D01*
X85587051Y-104689221D01*
X85711564Y-104974983D01*
X85889434Y-105230962D01*
X86113825Y-105447322D01*
X86376114Y-105615748D01*
X86666222Y-105729768D01*
X86973000Y-105785000D01*
X87773000Y-105785000D01*
X87773000Y-104327000D01*
X88027000Y-104327000D01*
X88027000Y-105785000D01*
X88827000Y-105785000D01*
X89133778Y-105729768D01*
X89423886Y-105615748D01*
X89686175Y-105447322D01*
X89910566Y-105230962D01*
X90088436Y-104974983D01*
X90212949Y-104689221D01*
X90240586Y-104572588D01*
X90120584Y-104327000D01*
X88027000Y-104327000D01*
X87773000Y-104327000D01*
X85679416Y-104327000D01*
X85559414Y-104572588D01*
X84934000Y-104572588D01*
X84934000Y-103827412D01*
X85559414Y-103827412D01*
X85679416Y-104073000D01*
X87773000Y-104073000D01*
X87773000Y-102615000D01*
X88027000Y-102615000D01*
X88027000Y-104073000D01*
X90120584Y-104073000D01*
X90240586Y-103827412D01*
X90212949Y-103710779D01*
X90088436Y-103425017D01*
X89910566Y-103169038D01*
X89686175Y-102952678D01*
X89570786Y-102878582D01*
X91900000Y-102878582D01*
X91964103Y-102872268D01*
X92025743Y-102853570D01*
X92082550Y-102823206D01*
X92132343Y-102782343D01*
X92173206Y-102732550D01*
X92203570Y-102675743D01*
X92222268Y-102614103D01*
X92228582Y-102550000D01*
X92228582Y-101901000D01*
X93187413Y-101901000D01*
X93196794Y-101918550D01*
X93237657Y-101968343D01*
X93287450Y-102009206D01*
X93344257Y-102039570D01*
X93405897Y-102058268D01*
X93470000Y-102064582D01*
X94970000Y-102064582D01*
X95034103Y-102058268D01*
X95095743Y-102039570D01*
X95152550Y-102009206D01*
X95202343Y-101968343D01*
X95243206Y-101918550D01*
X95273570Y-101861743D01*
X95292268Y-101800103D01*
X95298582Y-101736000D01*
X95298582Y-99736000D01*
X95292268Y-99671897D01*
X95273570Y-99610257D01*
X95243206Y-99553450D01*
X95202343Y-99503657D01*
X95152550Y-99462794D01*
X95095743Y-99432430D01*
X95034103Y-99413732D01*
X94970000Y-99407418D01*
X94184000Y-99407418D01*
X94184000Y-99043943D01*
X94187847Y-99042776D01*
X94283554Y-98991620D01*
X94367442Y-98922775D01*
X94436287Y-98838887D01*
X94452618Y-98808333D01*
X94772928Y-98808333D01*
X94793713Y-98847220D01*
X94862558Y-98931108D01*
X94946446Y-98999953D01*
X95042153Y-99051109D01*
X95146002Y-99082611D01*
X95254000Y-99093248D01*
X95754000Y-99093248D01*
X95861998Y-99082611D01*
X95965847Y-99051109D01*
X96061554Y-98999953D01*
X96145442Y-98931108D01*
X96214287Y-98847220D01*
X96265443Y-98751513D01*
X96296945Y-98647664D01*
X96307582Y-98539666D01*
X96307582Y-98089666D01*
X96296945Y-97981668D01*
X96265443Y-97877819D01*
X96225433Y-97802964D01*
X96333494Y-97745203D01*
X96403154Y-97688035D01*
X96452506Y-97728537D01*
X96560567Y-97786298D01*
X96520557Y-97861153D01*
X96489055Y-97965002D01*
X96478418Y-98073000D01*
X96478418Y-98523000D01*
X96489055Y-98630998D01*
X96520557Y-98734847D01*
X96571713Y-98830554D01*
X96640558Y-98914442D01*
X96724446Y-98983287D01*
X96820153Y-99034443D01*
X96924002Y-99065945D01*
X96955001Y-99068998D01*
X96955000Y-99407418D01*
X95770000Y-99407418D01*
X95705897Y-99413732D01*
X95644257Y-99432430D01*
X95587450Y-99462794D01*
X95537657Y-99503657D01*
X95496794Y-99553450D01*
X95466430Y-99610257D01*
X95447732Y-99671897D01*
X95441418Y-99736000D01*
X95441418Y-101736000D01*
X95447732Y-101800103D01*
X95466430Y-101861743D01*
X95496794Y-101918550D01*
X95537657Y-101968343D01*
X95587450Y-102009206D01*
X95644257Y-102039570D01*
X95705897Y-102058268D01*
X95770000Y-102064582D01*
X95793000Y-102064582D01*
X95793001Y-105707418D01*
X94620000Y-105707418D01*
X94555897Y-105713732D01*
X94494257Y-105732430D01*
X94437450Y-105762794D01*
X94387657Y-105803657D01*
X94346794Y-105853450D01*
X94316430Y-105910257D01*
X94297732Y-105971897D01*
X94291418Y-106036000D01*
X94291418Y-108036000D01*
X94297732Y-108100103D01*
X94316430Y-108161743D01*
X94346794Y-108218550D01*
X94387657Y-108268343D01*
X94437450Y-108309206D01*
X94494257Y-108339570D01*
X94555897Y-108358268D01*
X94620000Y-108364582D01*
X98420000Y-108364582D01*
X98484103Y-108358268D01*
X98545743Y-108339570D01*
X98602550Y-108309206D01*
X98652343Y-108268343D01*
X98693206Y-108218550D01*
X98723570Y-108161743D01*
X98742268Y-108100103D01*
X98748582Y-108036000D01*
X98748582Y-107763000D01*
X99442868Y-107763000D01*
X99593183Y-107913315D01*
X99676147Y-107981402D01*
X99802443Y-108048909D01*
X99939482Y-108090480D01*
X100081999Y-108104517D01*
X100224517Y-108090480D01*
X100361556Y-108048909D01*
X100487852Y-107981402D01*
X100598553Y-107890553D01*
X100689402Y-107779852D01*
X100756909Y-107653556D01*
X100798480Y-107516517D01*
X100812517Y-107373999D01*
X100798480Y-107231482D01*
X100756909Y-107094443D01*
X100689402Y-106968147D01*
X100621315Y-106885183D01*
X100511132Y-106775000D01*
X102925000Y-106775000D01*
X102925000Y-107475000D01*
X102972546Y-107703742D01*
X103063804Y-107918813D01*
X103195266Y-108111948D01*
X103361881Y-108275725D01*
X103557246Y-108403850D01*
X103773853Y-108491399D01*
X103800256Y-108491803D01*
X103983000Y-108366361D01*
X103983000Y-106775000D01*
X102925000Y-106775000D01*
X100511132Y-106775000D01*
X100283326Y-106547194D01*
X100260554Y-106519446D01*
X100149853Y-106428597D01*
X100023557Y-106361090D01*
X99886517Y-106319520D01*
X99779708Y-106309000D01*
X99744000Y-106305483D01*
X99708292Y-106309000D01*
X98748582Y-106309000D01*
X98748582Y-106036000D01*
X98742268Y-105971897D01*
X98723570Y-105910257D01*
X98693206Y-105853450D01*
X98652343Y-105803657D01*
X98602550Y-105762794D01*
X98545743Y-105732430D01*
X98484103Y-105713732D01*
X98420000Y-105707418D01*
X97247000Y-105707418D01*
X97247000Y-102064582D01*
X97270000Y-102064582D01*
X97334103Y-102058268D01*
X97395743Y-102039570D01*
X97452550Y-102009206D01*
X97482761Y-101984413D01*
X97539463Y-102090494D01*
X97618815Y-102187185D01*
X97715506Y-102266537D01*
X97825820Y-102325502D01*
X97945518Y-102361812D01*
X98070000Y-102374072D01*
X98534250Y-102371000D01*
X98693000Y-102212250D01*
X98693000Y-100863000D01*
X98673000Y-100863000D01*
X98673000Y-100609000D01*
X98693000Y-100609000D01*
X98693000Y-100589000D01*
X98947000Y-100589000D01*
X98947000Y-100609000D01*
X98967000Y-100609000D01*
X98967000Y-100863000D01*
X98947000Y-100863000D01*
X98947000Y-102212250D01*
X99105750Y-102371000D01*
X99570000Y-102374072D01*
X99694482Y-102361812D01*
X99814180Y-102325502D01*
X99924494Y-102266537D01*
X100021185Y-102187185D01*
X100055001Y-102145980D01*
X100055001Y-104653023D01*
X100052935Y-104674000D01*
X100061179Y-104757706D01*
X100085596Y-104838196D01*
X100125245Y-104912376D01*
X100165232Y-104961100D01*
X100165237Y-104961105D01*
X100178606Y-104977395D01*
X100194895Y-104990763D01*
X100465236Y-105261105D01*
X100478605Y-105277395D01*
X100494895Y-105290764D01*
X100494899Y-105290768D01*
X100543623Y-105330755D01*
X100583273Y-105351948D01*
X100617804Y-105370405D01*
X100698293Y-105394822D01*
X100761022Y-105401000D01*
X100761032Y-105401000D01*
X100781999Y-105403065D01*
X100802966Y-105401000D01*
X103053700Y-105401000D01*
X102972546Y-105592258D01*
X102925000Y-105821000D01*
X102925000Y-106521000D01*
X103983000Y-106521000D01*
X103983000Y-106501000D01*
X104237000Y-106501000D01*
X104237000Y-106521000D01*
X104257000Y-106521000D01*
X104257000Y-106775000D01*
X104237000Y-106775000D01*
X104237000Y-108366361D01*
X104419744Y-108491803D01*
X104446147Y-108491399D01*
X104662754Y-108403850D01*
X104858119Y-108275725D01*
X105024734Y-108111948D01*
X105156196Y-107918813D01*
X105247454Y-107703742D01*
X105281744Y-107538774D01*
X105295838Y-107585236D01*
X105377273Y-107737591D01*
X105486867Y-107871133D01*
X105620408Y-107980727D01*
X105772763Y-108062162D01*
X105938078Y-108112310D01*
X106110000Y-108129243D01*
X106281921Y-108112310D01*
X106447236Y-108062162D01*
X106599591Y-107980727D01*
X106733133Y-107871133D01*
X106842727Y-107737592D01*
X106924162Y-107585237D01*
X106974310Y-107419922D01*
X106977150Y-107391078D01*
X107233000Y-107391078D01*
X107245690Y-107519921D01*
X107295838Y-107685236D01*
X107377273Y-107837591D01*
X107486867Y-107971133D01*
X107620408Y-108080727D01*
X107772763Y-108162162D01*
X107938078Y-108212310D01*
X108110000Y-108229243D01*
X108281921Y-108212310D01*
X108447236Y-108162162D01*
X108599591Y-108080727D01*
X108733133Y-107971133D01*
X108842727Y-107837592D01*
X108924162Y-107685237D01*
X108974310Y-107519922D01*
X108987000Y-107391079D01*
X108987000Y-107391078D01*
X109233000Y-107391078D01*
X109245690Y-107519921D01*
X109295838Y-107685236D01*
X109377273Y-107837591D01*
X109486867Y-107971133D01*
X109620408Y-108080727D01*
X109772763Y-108162162D01*
X109938078Y-108212310D01*
X110110000Y-108229243D01*
X110281921Y-108212310D01*
X110447236Y-108162162D01*
X110599591Y-108080727D01*
X110733133Y-107971133D01*
X110842727Y-107837592D01*
X110924162Y-107685237D01*
X110974310Y-107519922D01*
X110987000Y-107391079D01*
X110987000Y-107391078D01*
X111233000Y-107391078D01*
X111245690Y-107519921D01*
X111295838Y-107685236D01*
X111377273Y-107837591D01*
X111486867Y-107971133D01*
X111620408Y-108080727D01*
X111772763Y-108162162D01*
X111938078Y-108212310D01*
X112110000Y-108229243D01*
X112281921Y-108212310D01*
X112447236Y-108162162D01*
X112599591Y-108080727D01*
X112733133Y-107971133D01*
X112842727Y-107837592D01*
X112924162Y-107685237D01*
X112974310Y-107519922D01*
X112987000Y-107391079D01*
X112987000Y-107391078D01*
X113233000Y-107391078D01*
X113245690Y-107519921D01*
X113295838Y-107685236D01*
X113377273Y-107837591D01*
X113486867Y-107971133D01*
X113620408Y-108080727D01*
X113772763Y-108162162D01*
X113938078Y-108212310D01*
X114110000Y-108229243D01*
X114281921Y-108212310D01*
X114447236Y-108162162D01*
X114599591Y-108080727D01*
X114733133Y-107971133D01*
X114842727Y-107837592D01*
X114924162Y-107685237D01*
X114974310Y-107519922D01*
X114987000Y-107391079D01*
X114987000Y-107391078D01*
X115233000Y-107391078D01*
X115245690Y-107519921D01*
X115295838Y-107685236D01*
X115377273Y-107837591D01*
X115486867Y-107971133D01*
X115620408Y-108080727D01*
X115772763Y-108162162D01*
X115938078Y-108212310D01*
X116110000Y-108229243D01*
X116281921Y-108212310D01*
X116447236Y-108162162D01*
X116599591Y-108080727D01*
X116733133Y-107971133D01*
X116842727Y-107837592D01*
X116924162Y-107685237D01*
X116974310Y-107519922D01*
X116987000Y-107391079D01*
X116987000Y-107391078D01*
X117233000Y-107391078D01*
X117245690Y-107519921D01*
X117295838Y-107685236D01*
X117377273Y-107837591D01*
X117486867Y-107971133D01*
X117620408Y-108080727D01*
X117772763Y-108162162D01*
X117938078Y-108212310D01*
X118110000Y-108229243D01*
X118281921Y-108212310D01*
X118447236Y-108162162D01*
X118599591Y-108080727D01*
X118733133Y-107971133D01*
X118842727Y-107837592D01*
X118924162Y-107685237D01*
X118974310Y-107519922D01*
X118987000Y-107391079D01*
X118987000Y-105904921D01*
X118974310Y-105776078D01*
X118924162Y-105610763D01*
X118842727Y-105458408D01*
X118733133Y-105324867D01*
X118599592Y-105215273D01*
X118447237Y-105133838D01*
X118281922Y-105083690D01*
X118110000Y-105066757D01*
X117938079Y-105083690D01*
X117772764Y-105133838D01*
X117620409Y-105215273D01*
X117486868Y-105324867D01*
X117377274Y-105458408D01*
X117295839Y-105610763D01*
X117245691Y-105776078D01*
X117233001Y-105904921D01*
X117233000Y-107391078D01*
X116987000Y-107391078D01*
X116987000Y-105904921D01*
X116974310Y-105776078D01*
X116924162Y-105610763D01*
X116842727Y-105458408D01*
X116733133Y-105324867D01*
X116599592Y-105215273D01*
X116447237Y-105133838D01*
X116281922Y-105083690D01*
X116110000Y-105066757D01*
X115938079Y-105083690D01*
X115772764Y-105133838D01*
X115620409Y-105215273D01*
X115486868Y-105324867D01*
X115377274Y-105458408D01*
X115295839Y-105610763D01*
X115245691Y-105776078D01*
X115233001Y-105904921D01*
X115233000Y-107391078D01*
X114987000Y-107391078D01*
X114987000Y-105904921D01*
X114974310Y-105776078D01*
X114924162Y-105610763D01*
X114842727Y-105458408D01*
X114733133Y-105324867D01*
X114599592Y-105215273D01*
X114447237Y-105133838D01*
X114281922Y-105083690D01*
X114110000Y-105066757D01*
X113938079Y-105083690D01*
X113772764Y-105133838D01*
X113620409Y-105215273D01*
X113486868Y-105324867D01*
X113377274Y-105458408D01*
X113295839Y-105610763D01*
X113245691Y-105776078D01*
X113233001Y-105904921D01*
X113233000Y-107391078D01*
X112987000Y-107391078D01*
X112987000Y-105904921D01*
X112974310Y-105776078D01*
X112924162Y-105610763D01*
X112842727Y-105458408D01*
X112733133Y-105324867D01*
X112599592Y-105215273D01*
X112447237Y-105133838D01*
X112281922Y-105083690D01*
X112110000Y-105066757D01*
X111938079Y-105083690D01*
X111772764Y-105133838D01*
X111620409Y-105215273D01*
X111486868Y-105324867D01*
X111377274Y-105458408D01*
X111295839Y-105610763D01*
X111245691Y-105776078D01*
X111233001Y-105904921D01*
X111233000Y-107391078D01*
X110987000Y-107391078D01*
X110987000Y-105904921D01*
X110974310Y-105776078D01*
X110924162Y-105610763D01*
X110842727Y-105458408D01*
X110733133Y-105324867D01*
X110599592Y-105215273D01*
X110447237Y-105133838D01*
X110281922Y-105083690D01*
X110110000Y-105066757D01*
X109938079Y-105083690D01*
X109772764Y-105133838D01*
X109620409Y-105215273D01*
X109486868Y-105324867D01*
X109377274Y-105458408D01*
X109295839Y-105610763D01*
X109245691Y-105776078D01*
X109233001Y-105904921D01*
X109233000Y-107391078D01*
X108987000Y-107391078D01*
X108987000Y-105904921D01*
X108974310Y-105776078D01*
X108924162Y-105610763D01*
X108842727Y-105458408D01*
X108733133Y-105324867D01*
X108599592Y-105215273D01*
X108447237Y-105133838D01*
X108281922Y-105083690D01*
X108110000Y-105066757D01*
X107938079Y-105083690D01*
X107772764Y-105133838D01*
X107620409Y-105215273D01*
X107486868Y-105324867D01*
X107377274Y-105458408D01*
X107295839Y-105610763D01*
X107245691Y-105776078D01*
X107233001Y-105904921D01*
X107233000Y-107391078D01*
X106977150Y-107391078D01*
X106987000Y-107291079D01*
X106987000Y-105804921D01*
X106974310Y-105676078D01*
X106924162Y-105510763D01*
X106842727Y-105358408D01*
X106733133Y-105224867D01*
X106599592Y-105115273D01*
X106447237Y-105033838D01*
X106281922Y-104983690D01*
X106110000Y-104966757D01*
X105938079Y-104983690D01*
X105793436Y-105027567D01*
X105452767Y-104686899D01*
X105439395Y-104670605D01*
X105374376Y-104617245D01*
X105300196Y-104577595D01*
X105219707Y-104553178D01*
X105156978Y-104547000D01*
X105156967Y-104547000D01*
X105136000Y-104544935D01*
X105115033Y-104547000D01*
X103744732Y-104547000D01*
X103842727Y-104427592D01*
X103924162Y-104275237D01*
X103974310Y-104109922D01*
X103991243Y-103938000D01*
X103974310Y-103766078D01*
X103924162Y-103600763D01*
X103842727Y-103448408D01*
X103733133Y-103314867D01*
X103599592Y-103205273D01*
X103447237Y-103123838D01*
X103281922Y-103073690D01*
X103153079Y-103061000D01*
X101666921Y-103061000D01*
X101538078Y-103073690D01*
X101372763Y-103123838D01*
X101220408Y-103205273D01*
X101086867Y-103314867D01*
X100977273Y-103448408D01*
X100909000Y-103576138D01*
X100909000Y-102299862D01*
X100977273Y-102427592D01*
X101086867Y-102561133D01*
X101220408Y-102670727D01*
X101372763Y-102752162D01*
X101538078Y-102802310D01*
X101666921Y-102815000D01*
X103153079Y-102815000D01*
X103281922Y-102802310D01*
X103447237Y-102752162D01*
X103599592Y-102670727D01*
X103733133Y-102561133D01*
X103842727Y-102427592D01*
X103924162Y-102275237D01*
X103974310Y-102109922D01*
X103991243Y-101938000D01*
X103974310Y-101766078D01*
X103924162Y-101600763D01*
X103842727Y-101448408D01*
X103733133Y-101314867D01*
X103599592Y-101205273D01*
X103447237Y-101123838D01*
X103281922Y-101073690D01*
X103153079Y-101061000D01*
X101666921Y-101061000D01*
X101538078Y-101073690D01*
X101372763Y-101123838D01*
X101220408Y-101205273D01*
X101086867Y-101314867D01*
X100977273Y-101448408D01*
X100909000Y-101576138D01*
X100909000Y-100299862D01*
X100977273Y-100427592D01*
X101086867Y-100561133D01*
X101220408Y-100670727D01*
X101372763Y-100752162D01*
X101538078Y-100802310D01*
X101666921Y-100815000D01*
X103153079Y-100815000D01*
X103281922Y-100802310D01*
X103447237Y-100752162D01*
X103599592Y-100670727D01*
X103733133Y-100561133D01*
X103842727Y-100427592D01*
X103924162Y-100275237D01*
X103974310Y-100109922D01*
X103991243Y-99938000D01*
X103974310Y-99766078D01*
X103924162Y-99600763D01*
X103842727Y-99448408D01*
X103733133Y-99314867D01*
X103599592Y-99205273D01*
X103447237Y-99123838D01*
X103281922Y-99073690D01*
X103153079Y-99061000D01*
X101666921Y-99061000D01*
X101538078Y-99073690D01*
X101372763Y-99123838D01*
X101220408Y-99205273D01*
X101086867Y-99314867D01*
X100977273Y-99448408D01*
X100909000Y-99576138D01*
X100909000Y-98299862D01*
X100977273Y-98427592D01*
X101086867Y-98561133D01*
X101220408Y-98670727D01*
X101372763Y-98752162D01*
X101538078Y-98802310D01*
X101666921Y-98815000D01*
X103153079Y-98815000D01*
X103281922Y-98802310D01*
X103447237Y-98752162D01*
X103599592Y-98670727D01*
X103733133Y-98561133D01*
X103842727Y-98427592D01*
X103924162Y-98275237D01*
X103974310Y-98109922D01*
X103991243Y-97938000D01*
X103974310Y-97766078D01*
X103924162Y-97600763D01*
X103842727Y-97448408D01*
X103733133Y-97314867D01*
X103599592Y-97205273D01*
X103447237Y-97123838D01*
X103281922Y-97073690D01*
X103153079Y-97061000D01*
X101666921Y-97061000D01*
X101538078Y-97073690D01*
X101372763Y-97123838D01*
X101220408Y-97205273D01*
X101086867Y-97314867D01*
X100977273Y-97448408D01*
X100909000Y-97576138D01*
X100909000Y-96299862D01*
X100977273Y-96427592D01*
X101086867Y-96561133D01*
X101220408Y-96670727D01*
X101372763Y-96752162D01*
X101538078Y-96802310D01*
X101666921Y-96815000D01*
X103153079Y-96815000D01*
X103281922Y-96802310D01*
X103447237Y-96752162D01*
X103599592Y-96670727D01*
X103733133Y-96561133D01*
X103842727Y-96427592D01*
X103924162Y-96275237D01*
X103974310Y-96109922D01*
X103991243Y-95938000D01*
X103974310Y-95766078D01*
X103924162Y-95600763D01*
X103842727Y-95448408D01*
X103733133Y-95314867D01*
X103599592Y-95205273D01*
X103447237Y-95123838D01*
X103281922Y-95073690D01*
X103153079Y-95061000D01*
X101666921Y-95061000D01*
X101538078Y-95073690D01*
X101372763Y-95123838D01*
X101220408Y-95205273D01*
X101086867Y-95314867D01*
X100977273Y-95448408D01*
X100895838Y-95600763D01*
X100849073Y-95754926D01*
X100838756Y-95735624D01*
X100798768Y-95686900D01*
X100785395Y-95670605D01*
X100769101Y-95657233D01*
X100598767Y-95486899D01*
X100585395Y-95470605D01*
X100520376Y-95417245D01*
X100446196Y-95377595D01*
X100365707Y-95353178D01*
X100302978Y-95347000D01*
X100302967Y-95347000D01*
X100282000Y-95344935D01*
X100261033Y-95347000D01*
X100087882Y-95347000D01*
X100095072Y-95274000D01*
X100092000Y-95109750D01*
X99933250Y-94951000D01*
X99109000Y-94951000D01*
X99109000Y-94971000D01*
X98855000Y-94971000D01*
X98855000Y-94951000D01*
X97375666Y-94951000D01*
X97375666Y-94971000D01*
X97121666Y-94971000D01*
X97121666Y-94951000D01*
X97101666Y-94951000D01*
X97101666Y-94697000D01*
X97121666Y-94697000D01*
X97121666Y-94677000D01*
X97375666Y-94677000D01*
X97375666Y-94697000D01*
X98855000Y-94697000D01*
X98855000Y-94677000D01*
X99109000Y-94677000D01*
X99109000Y-94697000D01*
X99933250Y-94697000D01*
X100092000Y-94538250D01*
X100095072Y-94374000D01*
X100082812Y-94249518D01*
X100046502Y-94129820D01*
X99987537Y-94019506D01*
X99920647Y-93938000D01*
X100828757Y-93938000D01*
X100845690Y-94109922D01*
X100895838Y-94275237D01*
X100977273Y-94427592D01*
X101086867Y-94561133D01*
X101220408Y-94670727D01*
X101372763Y-94752162D01*
X101538078Y-94802310D01*
X101666921Y-94815000D01*
X103153079Y-94815000D01*
X103281922Y-94802310D01*
X103447237Y-94752162D01*
X103599592Y-94670727D01*
X103733133Y-94561133D01*
X103842727Y-94427592D01*
X103924162Y-94275237D01*
X103974310Y-94109922D01*
X103991243Y-93938000D01*
X103974310Y-93766078D01*
X103924162Y-93600763D01*
X103842727Y-93448408D01*
X103733133Y-93314867D01*
X103599592Y-93205273D01*
X103447237Y-93123838D01*
X103281922Y-93073690D01*
X103153079Y-93061000D01*
X101666921Y-93061000D01*
X101538078Y-93073690D01*
X101372763Y-93123838D01*
X101220408Y-93205273D01*
X101086867Y-93314867D01*
X100977273Y-93448408D01*
X100895838Y-93600763D01*
X100845690Y-93766078D01*
X100828757Y-93938000D01*
X99920647Y-93938000D01*
X99908185Y-93922815D01*
X99811494Y-93843463D01*
X99703433Y-93785702D01*
X99743443Y-93710847D01*
X99746430Y-93701000D01*
X100461033Y-93701000D01*
X100482000Y-93703065D01*
X100502967Y-93701000D01*
X100502978Y-93701000D01*
X100565707Y-93694822D01*
X100646196Y-93670405D01*
X100720376Y-93630755D01*
X100785395Y-93577395D01*
X100798768Y-93561100D01*
X101984870Y-92375000D01*
X103343818Y-92375000D01*
X103377273Y-92437591D01*
X103486867Y-92571133D01*
X103620408Y-92680727D01*
X103772763Y-92762162D01*
X103938078Y-92812310D01*
X104110000Y-92829243D01*
X104281921Y-92812310D01*
X104447236Y-92762162D01*
X104599591Y-92680727D01*
X104733133Y-92571133D01*
X104842727Y-92437592D01*
X104924162Y-92285237D01*
X104974310Y-92119922D01*
X104987000Y-91991079D01*
X104987000Y-90504921D01*
X104974310Y-90376078D01*
X104924162Y-90210763D01*
X104842727Y-90058408D01*
X104733133Y-89924867D01*
X104673588Y-89876000D01*
X105174066Y-89876000D01*
X105370029Y-90071963D01*
X105295839Y-90210763D01*
X105245691Y-90376078D01*
X105233001Y-90504921D01*
X105233000Y-91991078D01*
X105245690Y-92119921D01*
X105295838Y-92285236D01*
X105377273Y-92437591D01*
X105486867Y-92571133D01*
X105620408Y-92680727D01*
X105772763Y-92762162D01*
X105938078Y-92812310D01*
X106110000Y-92829243D01*
X106281921Y-92812310D01*
X106447236Y-92762162D01*
X106599591Y-92680727D01*
X106733133Y-92571133D01*
X106842727Y-92437592D01*
X106924162Y-92285237D01*
X106974310Y-92119922D01*
X106987000Y-91991079D01*
X106987000Y-91991078D01*
X107233000Y-91991078D01*
X107245690Y-92119921D01*
X107295838Y-92285236D01*
X107377273Y-92437591D01*
X107486867Y-92571133D01*
X107620408Y-92680727D01*
X107772763Y-92762162D01*
X107938078Y-92812310D01*
X108110000Y-92829243D01*
X108281921Y-92812310D01*
X108447236Y-92762162D01*
X108599591Y-92680727D01*
X108733133Y-92571133D01*
X108842727Y-92437592D01*
X108924162Y-92285237D01*
X108974310Y-92119922D01*
X108987000Y-91991079D01*
X108987000Y-91991078D01*
X109233000Y-91991078D01*
X109245690Y-92119921D01*
X109295838Y-92285236D01*
X109377273Y-92437591D01*
X109486867Y-92571133D01*
X109620408Y-92680727D01*
X109772763Y-92762162D01*
X109938078Y-92812310D01*
X110110000Y-92829243D01*
X110281921Y-92812310D01*
X110447236Y-92762162D01*
X110599591Y-92680727D01*
X110733133Y-92571133D01*
X110842727Y-92437592D01*
X110924162Y-92285237D01*
X110974310Y-92119922D01*
X110987000Y-91991079D01*
X110987000Y-91991078D01*
X111233000Y-91991078D01*
X111245690Y-92119921D01*
X111295838Y-92285236D01*
X111377273Y-92437591D01*
X111486867Y-92571133D01*
X111620408Y-92680727D01*
X111772763Y-92762162D01*
X111938078Y-92812310D01*
X112110000Y-92829243D01*
X112281921Y-92812310D01*
X112447236Y-92762162D01*
X112599591Y-92680727D01*
X112733133Y-92571133D01*
X112842727Y-92437592D01*
X112924162Y-92285237D01*
X112974310Y-92119922D01*
X112987000Y-91991079D01*
X112987000Y-91991078D01*
X113233000Y-91991078D01*
X113245690Y-92119921D01*
X113295838Y-92285236D01*
X113377273Y-92437591D01*
X113486867Y-92571133D01*
X113620408Y-92680727D01*
X113772763Y-92762162D01*
X113938078Y-92812310D01*
X114110000Y-92829243D01*
X114281921Y-92812310D01*
X114447236Y-92762162D01*
X114599591Y-92680727D01*
X114733133Y-92571133D01*
X114842727Y-92437592D01*
X114924162Y-92285237D01*
X114974310Y-92119922D01*
X114987000Y-91991079D01*
X114987000Y-91991078D01*
X115233000Y-91991078D01*
X115245690Y-92119921D01*
X115295838Y-92285236D01*
X115377273Y-92437591D01*
X115486867Y-92571133D01*
X115620408Y-92680727D01*
X115772763Y-92762162D01*
X115938078Y-92812310D01*
X116110000Y-92829243D01*
X116281921Y-92812310D01*
X116447236Y-92762162D01*
X116599591Y-92680727D01*
X116733133Y-92571133D01*
X116842727Y-92437592D01*
X116924162Y-92285237D01*
X116974310Y-92119922D01*
X116987000Y-91991079D01*
X116987000Y-90504921D01*
X116974310Y-90376078D01*
X116924162Y-90210763D01*
X116842727Y-90058408D01*
X116793152Y-89998000D01*
X117231418Y-89998000D01*
X117231418Y-92498000D01*
X117237732Y-92562103D01*
X117256430Y-92623743D01*
X117286794Y-92680550D01*
X117327657Y-92730343D01*
X117377450Y-92771206D01*
X117434257Y-92801570D01*
X117495897Y-92820268D01*
X117560000Y-92826582D01*
X118660000Y-92826582D01*
X118724103Y-92820268D01*
X118785743Y-92801570D01*
X118842550Y-92771206D01*
X118892343Y-92730343D01*
X118933206Y-92680550D01*
X118963570Y-92623743D01*
X118982268Y-92562103D01*
X118988582Y-92498000D01*
X118988582Y-89998000D01*
X118982268Y-89933897D01*
X118963570Y-89872257D01*
X118933206Y-89815450D01*
X118892343Y-89765657D01*
X118842550Y-89724794D01*
X118785743Y-89694430D01*
X118724103Y-89675732D01*
X118660000Y-89669418D01*
X117560000Y-89669418D01*
X117495897Y-89675732D01*
X117434257Y-89694430D01*
X117377450Y-89724794D01*
X117327657Y-89765657D01*
X117286794Y-89815450D01*
X117256430Y-89872257D01*
X117237732Y-89933897D01*
X117231418Y-89998000D01*
X116793152Y-89998000D01*
X116733133Y-89924867D01*
X116599592Y-89815273D01*
X116447237Y-89733838D01*
X116281922Y-89683690D01*
X116110000Y-89666757D01*
X115938079Y-89683690D01*
X115772764Y-89733838D01*
X115620409Y-89815273D01*
X115486868Y-89924867D01*
X115377274Y-90058408D01*
X115295839Y-90210763D01*
X115245691Y-90376078D01*
X115233001Y-90504921D01*
X115233000Y-91991078D01*
X114987000Y-91991078D01*
X114987000Y-90504921D01*
X114974310Y-90376078D01*
X114924162Y-90210763D01*
X114842727Y-90058408D01*
X114733133Y-89924867D01*
X114599592Y-89815273D01*
X114447237Y-89733838D01*
X114281922Y-89683690D01*
X114110000Y-89666757D01*
X113938079Y-89683690D01*
X113772764Y-89733838D01*
X113620409Y-89815273D01*
X113486868Y-89924867D01*
X113377274Y-90058408D01*
X113295839Y-90210763D01*
X113245691Y-90376078D01*
X113233001Y-90504921D01*
X113233000Y-91991078D01*
X112987000Y-91991078D01*
X112987000Y-90504921D01*
X112974310Y-90376078D01*
X112924162Y-90210763D01*
X112842727Y-90058408D01*
X112733133Y-89924867D01*
X112599592Y-89815273D01*
X112447237Y-89733838D01*
X112281922Y-89683690D01*
X112110000Y-89666757D01*
X111938079Y-89683690D01*
X111772764Y-89733838D01*
X111620409Y-89815273D01*
X111486868Y-89924867D01*
X111377274Y-90058408D01*
X111295839Y-90210763D01*
X111245691Y-90376078D01*
X111233001Y-90504921D01*
X111233000Y-91991078D01*
X110987000Y-91991078D01*
X110987000Y-90504921D01*
X110974310Y-90376078D01*
X110924162Y-90210763D01*
X110842727Y-90058408D01*
X110733133Y-89924867D01*
X110599592Y-89815273D01*
X110447237Y-89733838D01*
X110281922Y-89683690D01*
X110110000Y-89666757D01*
X109938079Y-89683690D01*
X109772764Y-89733838D01*
X109620409Y-89815273D01*
X109486868Y-89924867D01*
X109377274Y-90058408D01*
X109295839Y-90210763D01*
X109245691Y-90376078D01*
X109233001Y-90504921D01*
X109233000Y-91991078D01*
X108987000Y-91991078D01*
X108987000Y-90504921D01*
X108974310Y-90376078D01*
X108924162Y-90210763D01*
X108842727Y-90058408D01*
X108733133Y-89924867D01*
X108599592Y-89815273D01*
X108447237Y-89733838D01*
X108281922Y-89683690D01*
X108110000Y-89666757D01*
X107938079Y-89683690D01*
X107772764Y-89733838D01*
X107620409Y-89815273D01*
X107486868Y-89924867D01*
X107377274Y-90058408D01*
X107295839Y-90210763D01*
X107245691Y-90376078D01*
X107233001Y-90504921D01*
X107233000Y-91991078D01*
X106987000Y-91991078D01*
X106987000Y-90504921D01*
X106974310Y-90376078D01*
X106924162Y-90210763D01*
X106842727Y-90058408D01*
X106733133Y-89924867D01*
X106599592Y-89815273D01*
X106462898Y-89742209D01*
X106447538Y-89729603D01*
X105754401Y-89036467D01*
X105738684Y-89017316D01*
X105662245Y-88954583D01*
X105575036Y-88907969D01*
X105480409Y-88879264D01*
X105406653Y-88872000D01*
X105406643Y-88872000D01*
X105382000Y-88869573D01*
X105357357Y-88872000D01*
X100546643Y-88872000D01*
X100522000Y-88869573D01*
X100497357Y-88872000D01*
X100497347Y-88872000D01*
X100423591Y-88879264D01*
X100328964Y-88907969D01*
X100241755Y-88954583D01*
X100165316Y-89017316D01*
X100149603Y-89036462D01*
X99609369Y-89576696D01*
X99497691Y-89517003D01*
X99313525Y-89461137D01*
X99122000Y-89442273D01*
X98930476Y-89461137D01*
X98746310Y-89517003D01*
X98576583Y-89607724D01*
X98427815Y-89729814D01*
X98305725Y-89878582D01*
X98215004Y-90048309D01*
X98159137Y-90232475D01*
X98145000Y-90376007D01*
X98145000Y-91171992D01*
X98159137Y-91315524D01*
X98215003Y-91499690D01*
X98305724Y-91669418D01*
X98427814Y-91818186D01*
X98576582Y-91940276D01*
X98746309Y-92030997D01*
X98930475Y-92086863D01*
X99122000Y-92105727D01*
X99313524Y-92086863D01*
X99497690Y-92030997D01*
X99667418Y-91940276D01*
X99816186Y-91818186D01*
X99938276Y-91669418D01*
X100028997Y-91499691D01*
X100084863Y-91315525D01*
X100099000Y-91171993D01*
X100099000Y-90506934D01*
X100729935Y-89876000D01*
X103546413Y-89876000D01*
X103486868Y-89924867D01*
X103377274Y-90058408D01*
X103295839Y-90210763D01*
X103245691Y-90376078D01*
X103233001Y-90504921D01*
X103233000Y-91521000D01*
X101828966Y-91521000D01*
X101807999Y-91518935D01*
X101787032Y-91521000D01*
X101787022Y-91521000D01*
X101724293Y-91527178D01*
X101643804Y-91551595D01*
X101609273Y-91570052D01*
X101569623Y-91591245D01*
X101520898Y-91631232D01*
X101520889Y-91631241D01*
X101504605Y-91644605D01*
X101491241Y-91660889D01*
X100305132Y-92847000D01*
X99746430Y-92847000D01*
X99743443Y-92837153D01*
X99692287Y-92741446D01*
X99623442Y-92657558D01*
X99539554Y-92588713D01*
X99443847Y-92537557D01*
X99339998Y-92506055D01*
X99232000Y-92495418D01*
X98732000Y-92495418D01*
X98624002Y-92506055D01*
X98520153Y-92537557D01*
X98424446Y-92588713D01*
X98340558Y-92657558D01*
X98337211Y-92661636D01*
X98381950Y-92594680D01*
X98432984Y-92471474D01*
X98459000Y-92340679D01*
X98459000Y-92207321D01*
X98432984Y-92076526D01*
X98381950Y-91953320D01*
X98307860Y-91842437D01*
X98213563Y-91748140D01*
X98102680Y-91674050D01*
X97979474Y-91623016D01*
X97848679Y-91597000D01*
X97777005Y-91597000D01*
X97817533Y-91499251D01*
X97867000Y-91251000D01*
X97867000Y-90901000D01*
X96709000Y-90901000D01*
X96709000Y-92243067D01*
X96907471Y-92367099D01*
X96956415Y-92359787D01*
X97105000Y-92298300D01*
X97105000Y-92340679D01*
X97131016Y-92471474D01*
X97140934Y-92495418D01*
X96998666Y-92495418D01*
X96890668Y-92506055D01*
X96786819Y-92537557D01*
X96691112Y-92588713D01*
X96607224Y-92657558D01*
X96604444Y-92660945D01*
X96579835Y-92579820D01*
X96520870Y-92469506D01*
X96441518Y-92372815D01*
X96357593Y-92303940D01*
X96455000Y-92243067D01*
X96455000Y-90901000D01*
X95297000Y-90901000D01*
X95297000Y-91251000D01*
X95346467Y-91499251D01*
X95443415Y-91733081D01*
X95584118Y-91943505D01*
X95763170Y-92122436D01*
X95861397Y-92188021D01*
X95801083Y-92189000D01*
X95642333Y-92347750D01*
X95642333Y-93097000D01*
X95662333Y-93097000D01*
X95662333Y-93351000D01*
X95642333Y-93351000D01*
X95642333Y-93371000D01*
X95388333Y-93371000D01*
X95388333Y-93351000D01*
X95368333Y-93351000D01*
X95368333Y-93097000D01*
X95388333Y-93097000D01*
X95388333Y-92347750D01*
X95229583Y-92189000D01*
X95040333Y-92185928D01*
X94915851Y-92198188D01*
X94796153Y-92234498D01*
X94685839Y-92293463D01*
X94589148Y-92372815D01*
X94509796Y-92469506D01*
X94450831Y-92579820D01*
X94429728Y-92649386D01*
X94350664Y-92584500D01*
X94259280Y-92535654D01*
X94160121Y-92505575D01*
X94057000Y-92495418D01*
X93507000Y-92495418D01*
X93438092Y-92502205D01*
X93432984Y-92476526D01*
X93381950Y-92353320D01*
X93307860Y-92242437D01*
X93213563Y-92148140D01*
X93102680Y-92074050D01*
X92979474Y-92023016D01*
X92848679Y-91997000D01*
X92715321Y-91997000D01*
X92584526Y-92023016D01*
X92461320Y-92074050D01*
X92350437Y-92148140D01*
X92256140Y-92242437D01*
X92182050Y-92353320D01*
X92131016Y-92476526D01*
X92105000Y-92607321D01*
X92105000Y-92733589D01*
X92079474Y-92723016D01*
X91948679Y-92697000D01*
X91815321Y-92697000D01*
X91684526Y-92723016D01*
X91561320Y-92774050D01*
X91450437Y-92848140D01*
X91356140Y-92942437D01*
X91282050Y-93053320D01*
X91231016Y-93176526D01*
X91205000Y-93307321D01*
X91205000Y-93440679D01*
X91231016Y-93571474D01*
X91282050Y-93694680D01*
X91356140Y-93805563D01*
X91364212Y-93813635D01*
X90935750Y-93815000D01*
X90777000Y-93973750D01*
X90777000Y-94873000D01*
X92376250Y-94873000D01*
X92535000Y-94714250D01*
X92535958Y-94631827D01*
X92978449Y-95074319D01*
X92988575Y-95177121D01*
X93018654Y-95276280D01*
X93067500Y-95367664D01*
X93133236Y-95447764D01*
X93213336Y-95513500D01*
X93304720Y-95562346D01*
X93403879Y-95592425D01*
X93507000Y-95602582D01*
X94057000Y-95602582D01*
X94160121Y-95592425D01*
X94259280Y-95562346D01*
X94350664Y-95513500D01*
X94430764Y-95447764D01*
X94496500Y-95367664D01*
X94545346Y-95276280D01*
X94575425Y-95177121D01*
X94585582Y-95074000D01*
X94585582Y-94674000D01*
X94575425Y-94570879D01*
X94545346Y-94471720D01*
X94496500Y-94380336D01*
X94430764Y-94300236D01*
X94350664Y-94234500D01*
X94259280Y-94185654D01*
X94160121Y-94155575D01*
X94057000Y-94145418D01*
X93507000Y-94145418D01*
X93403879Y-94155575D01*
X93304720Y-94185654D01*
X93300030Y-94188161D01*
X92557929Y-93446061D01*
X92559000Y-93440679D01*
X92559000Y-93314411D01*
X92584526Y-93324984D01*
X92715321Y-93351000D01*
X92848679Y-93351000D01*
X92854061Y-93349930D01*
X92983912Y-93479781D01*
X92988575Y-93527121D01*
X93018654Y-93626280D01*
X93067500Y-93717664D01*
X93133236Y-93797764D01*
X93213336Y-93863500D01*
X93304720Y-93912346D01*
X93403879Y-93942425D01*
X93507000Y-93952582D01*
X94057000Y-93952582D01*
X94160121Y-93942425D01*
X94259280Y-93912346D01*
X94350664Y-93863500D01*
X94429728Y-93798614D01*
X94450831Y-93868180D01*
X94509796Y-93978494D01*
X94589148Y-94075185D01*
X94685839Y-94154537D01*
X94796153Y-94213502D01*
X94915851Y-94249812D01*
X94926708Y-94250881D01*
X94866569Y-94300236D01*
X94800833Y-94380336D01*
X94751987Y-94471720D01*
X94721908Y-94570879D01*
X94711751Y-94674000D01*
X94711751Y-95074000D01*
X94721908Y-95177121D01*
X94751987Y-95276280D01*
X94800833Y-95367664D01*
X94866569Y-95447764D01*
X94946669Y-95513500D01*
X95038053Y-95562346D01*
X95137212Y-95592425D01*
X95240016Y-95602551D01*
X95376998Y-95739533D01*
X95376998Y-95838414D01*
X95218250Y-95679666D01*
X95029000Y-95676594D01*
X94904518Y-95688854D01*
X94784820Y-95725164D01*
X94674506Y-95784129D01*
X94620077Y-95828798D01*
X94555494Y-95775796D01*
X94445180Y-95716831D01*
X94325482Y-95680521D01*
X94201000Y-95668261D01*
X94011750Y-95671333D01*
X93853000Y-95830083D01*
X93853000Y-96629333D01*
X94544417Y-96629333D01*
X94552750Y-96637666D01*
X95377000Y-96637666D01*
X95377000Y-96617666D01*
X95631000Y-96617666D01*
X95631000Y-96637666D01*
X96455250Y-96637666D01*
X96471916Y-96621000D01*
X97155000Y-96621000D01*
X97155000Y-96601000D01*
X97409000Y-96601000D01*
X97409000Y-96621000D01*
X98083751Y-96621000D01*
X98108750Y-96645999D01*
X98933000Y-96645999D01*
X98933000Y-96625999D01*
X99187000Y-96625999D01*
X99187000Y-96645999D01*
X99207000Y-96645999D01*
X99207000Y-96899999D01*
X99187000Y-96899999D01*
X99187000Y-96919999D01*
X98933000Y-96919999D01*
X98933000Y-96899999D01*
X98258249Y-96899999D01*
X98233250Y-96875000D01*
X97409000Y-96875000D01*
X97409000Y-96895000D01*
X97155000Y-96895000D01*
X97155000Y-96875000D01*
X96330750Y-96875000D01*
X96314084Y-96891666D01*
X95631000Y-96891666D01*
X95631000Y-96911666D01*
X95377000Y-96911666D01*
X95377000Y-96891666D01*
X94685583Y-96891666D01*
X94677250Y-96883333D01*
X93853000Y-96883333D01*
X93853000Y-96903333D01*
X93599000Y-96903333D01*
X93599000Y-96883333D01*
X92774750Y-96883333D01*
X92616000Y-97042083D01*
X92612928Y-97206333D01*
X92625188Y-97330815D01*
X92661498Y-97450513D01*
X92720463Y-97560827D01*
X92799815Y-97657518D01*
X92896506Y-97736870D01*
X93004567Y-97794631D01*
X92964557Y-97869486D01*
X92933055Y-97973335D01*
X92922418Y-98081333D01*
X92922418Y-98531333D01*
X92933055Y-98639331D01*
X92964557Y-98743180D01*
X93015713Y-98838887D01*
X93084558Y-98922775D01*
X93168446Y-98991620D01*
X93180001Y-98997796D01*
X93180000Y-99584869D01*
X93166430Y-99610257D01*
X93147732Y-99671897D01*
X93141418Y-99736000D01*
X93141418Y-100447000D01*
X91511705Y-100447000D01*
X91475999Y-100443483D01*
X91440294Y-100447000D01*
X91440292Y-100447000D01*
X91333483Y-100457520D01*
X91196443Y-100499090D01*
X91070147Y-100566597D01*
X90959446Y-100657446D01*
X90936679Y-100685188D01*
X90500450Y-101121418D01*
X89400000Y-101121418D01*
X89335897Y-101127732D01*
X89274257Y-101146430D01*
X89217450Y-101176794D01*
X89167657Y-101217657D01*
X89126794Y-101267450D01*
X89096430Y-101324257D01*
X89077732Y-101385897D01*
X89071418Y-101450000D01*
X89071418Y-102550000D01*
X89077732Y-102614103D01*
X89092504Y-102662801D01*
X88827000Y-102615000D01*
X88027000Y-102615000D01*
X87773000Y-102615000D01*
X86973000Y-102615000D01*
X86666222Y-102670232D01*
X86376114Y-102784252D01*
X86113825Y-102952678D01*
X85889434Y-103169038D01*
X85711564Y-103425017D01*
X85587051Y-103710779D01*
X85559414Y-103827412D01*
X84934000Y-103827412D01*
X84934000Y-100713623D01*
X87023000Y-100713623D01*
X87023000Y-100886377D01*
X87056703Y-101055811D01*
X87122813Y-101215415D01*
X87218790Y-101359055D01*
X87340945Y-101481210D01*
X87484585Y-101577187D01*
X87644189Y-101643297D01*
X87813623Y-101677000D01*
X87986377Y-101677000D01*
X88155811Y-101643297D01*
X88315415Y-101577187D01*
X88459055Y-101481210D01*
X88581210Y-101359055D01*
X88677187Y-101215415D01*
X88743297Y-101055811D01*
X88777000Y-100886377D01*
X88777000Y-100713623D01*
X88743297Y-100544189D01*
X88677187Y-100384585D01*
X88581210Y-100240945D01*
X88459055Y-100118790D01*
X88315415Y-100022813D01*
X88155811Y-99956703D01*
X87986377Y-99923000D01*
X87813623Y-99923000D01*
X87644189Y-99956703D01*
X87484585Y-100022813D01*
X87340945Y-100118790D01*
X87218790Y-100240945D01*
X87122813Y-100384585D01*
X87056703Y-100544189D01*
X87023000Y-100713623D01*
X84934000Y-100713623D01*
X84934000Y-98950000D01*
X89071418Y-98950000D01*
X89071418Y-100050000D01*
X89077732Y-100114103D01*
X89096430Y-100175743D01*
X89126794Y-100232550D01*
X89167657Y-100282343D01*
X89217450Y-100323206D01*
X89274257Y-100353570D01*
X89335897Y-100372268D01*
X89400000Y-100378582D01*
X91900000Y-100378582D01*
X91964103Y-100372268D01*
X92025743Y-100353570D01*
X92082550Y-100323206D01*
X92132343Y-100282343D01*
X92173206Y-100232550D01*
X92203570Y-100175743D01*
X92222268Y-100114103D01*
X92228582Y-100050000D01*
X92228582Y-98950000D01*
X92222268Y-98885897D01*
X92203570Y-98824257D01*
X92173206Y-98767450D01*
X92132343Y-98717657D01*
X92082550Y-98676794D01*
X92025743Y-98646430D01*
X91964103Y-98627732D01*
X91900000Y-98621418D01*
X89400000Y-98621418D01*
X89335897Y-98627732D01*
X89274257Y-98646430D01*
X89217450Y-98676794D01*
X89167657Y-98717657D01*
X89126794Y-98767450D01*
X89096430Y-98824257D01*
X89077732Y-98885897D01*
X89071418Y-98950000D01*
X84934000Y-98950000D01*
X84934000Y-96113623D01*
X87023000Y-96113623D01*
X87023000Y-96286377D01*
X87056703Y-96455811D01*
X87122813Y-96615415D01*
X87218790Y-96759055D01*
X87340945Y-96881210D01*
X87484585Y-96977187D01*
X87644189Y-97043297D01*
X87813623Y-97077000D01*
X87986377Y-97077000D01*
X88155811Y-97043297D01*
X88315415Y-96977187D01*
X88356103Y-96950000D01*
X89071418Y-96950000D01*
X89071418Y-98050000D01*
X89077732Y-98114103D01*
X89096430Y-98175743D01*
X89126794Y-98232550D01*
X89167657Y-98282343D01*
X89217450Y-98323206D01*
X89274257Y-98353570D01*
X89335897Y-98372268D01*
X89400000Y-98378582D01*
X91900000Y-98378582D01*
X91964103Y-98372268D01*
X92025743Y-98353570D01*
X92082550Y-98323206D01*
X92132343Y-98282343D01*
X92173206Y-98232550D01*
X92203570Y-98175743D01*
X92222268Y-98114103D01*
X92228582Y-98050000D01*
X92228582Y-96950000D01*
X92222268Y-96885897D01*
X92203570Y-96824257D01*
X92173206Y-96767450D01*
X92132343Y-96717657D01*
X92082550Y-96676794D01*
X92025743Y-96646430D01*
X91964103Y-96627732D01*
X91900000Y-96621418D01*
X89400000Y-96621418D01*
X89335897Y-96627732D01*
X89274257Y-96646430D01*
X89217450Y-96676794D01*
X89167657Y-96717657D01*
X89126794Y-96767450D01*
X89096430Y-96824257D01*
X89077732Y-96885897D01*
X89071418Y-96950000D01*
X88356103Y-96950000D01*
X88459055Y-96881210D01*
X88581210Y-96759055D01*
X88677187Y-96615415D01*
X88743297Y-96455811D01*
X88773030Y-96306333D01*
X92612928Y-96306333D01*
X92616000Y-96470583D01*
X92774750Y-96629333D01*
X93599000Y-96629333D01*
X93599000Y-95830083D01*
X93440250Y-95671333D01*
X93251000Y-95668261D01*
X93126518Y-95680521D01*
X93006820Y-95716831D01*
X92896506Y-95775796D01*
X92799815Y-95855148D01*
X92720463Y-95951839D01*
X92661498Y-96062153D01*
X92625188Y-96181851D01*
X92612928Y-96306333D01*
X88773030Y-96306333D01*
X88777000Y-96286377D01*
X88777000Y-96113623D01*
X88743297Y-95944189D01*
X88677187Y-95784585D01*
X88581210Y-95640945D01*
X88490265Y-95550000D01*
X88761928Y-95550000D01*
X88774188Y-95674482D01*
X88810498Y-95794180D01*
X88869463Y-95904494D01*
X88948815Y-96001185D01*
X89045506Y-96080537D01*
X89155820Y-96139502D01*
X89275518Y-96175812D01*
X89400000Y-96188072D01*
X90364250Y-96185000D01*
X90523000Y-96026250D01*
X90523000Y-95127000D01*
X90777000Y-95127000D01*
X90777000Y-96026250D01*
X90935750Y-96185000D01*
X91900000Y-96188072D01*
X92024482Y-96175812D01*
X92144180Y-96139502D01*
X92254494Y-96080537D01*
X92351185Y-96001185D01*
X92430537Y-95904494D01*
X92489502Y-95794180D01*
X92525812Y-95674482D01*
X92538072Y-95550000D01*
X92535000Y-95285750D01*
X92376250Y-95127000D01*
X90777000Y-95127000D01*
X90523000Y-95127000D01*
X88923750Y-95127000D01*
X88765000Y-95285750D01*
X88761928Y-95550000D01*
X88490265Y-95550000D01*
X88459055Y-95518790D01*
X88315415Y-95422813D01*
X88155811Y-95356703D01*
X87986377Y-95323000D01*
X87813623Y-95323000D01*
X87644189Y-95356703D01*
X87484585Y-95422813D01*
X87340945Y-95518790D01*
X87218790Y-95640945D01*
X87122813Y-95784585D01*
X87056703Y-95944189D01*
X87023000Y-96113623D01*
X84934000Y-96113623D01*
X84934000Y-93172588D01*
X85559414Y-93172588D01*
X85587051Y-93289221D01*
X85711564Y-93574983D01*
X85889434Y-93830962D01*
X86113825Y-94047322D01*
X86376114Y-94215748D01*
X86666222Y-94329768D01*
X86973000Y-94385000D01*
X87773000Y-94385000D01*
X87773000Y-92927000D01*
X88027000Y-92927000D01*
X88027000Y-94385000D01*
X88768330Y-94385000D01*
X88761928Y-94450000D01*
X88765000Y-94714250D01*
X88923750Y-94873000D01*
X90523000Y-94873000D01*
X90523000Y-93973750D01*
X90364250Y-93815000D01*
X89922635Y-93813593D01*
X90088436Y-93574983D01*
X90212949Y-93289221D01*
X90240586Y-93172588D01*
X90120584Y-92927000D01*
X88027000Y-92927000D01*
X87773000Y-92927000D01*
X85679416Y-92927000D01*
X85559414Y-93172588D01*
X84934000Y-93172588D01*
X84934000Y-92427412D01*
X85559414Y-92427412D01*
X85679416Y-92673000D01*
X87773000Y-92673000D01*
X87773000Y-91215000D01*
X88027000Y-91215000D01*
X88027000Y-92673000D01*
X90120584Y-92673000D01*
X90240586Y-92427412D01*
X90212949Y-92310779D01*
X90088436Y-92025017D01*
X89910566Y-91769038D01*
X89686175Y-91552678D01*
X89423886Y-91384252D01*
X89133778Y-91270232D01*
X88827000Y-91215000D01*
X88027000Y-91215000D01*
X87773000Y-91215000D01*
X86973000Y-91215000D01*
X86666222Y-91270232D01*
X86376114Y-91384252D01*
X86113825Y-91552678D01*
X85889434Y-91769038D01*
X85711564Y-92025017D01*
X85587051Y-92310779D01*
X85559414Y-92427412D01*
X84934000Y-92427412D01*
X84934000Y-90376007D01*
X93065000Y-90376007D01*
X93065000Y-91171992D01*
X93079137Y-91315524D01*
X93135003Y-91499690D01*
X93225724Y-91669418D01*
X93347814Y-91818186D01*
X93496582Y-91940276D01*
X93666309Y-92030997D01*
X93850475Y-92086863D01*
X94042000Y-92105727D01*
X94233524Y-92086863D01*
X94417690Y-92030997D01*
X94587418Y-91940276D01*
X94736186Y-91818186D01*
X94858276Y-91669418D01*
X94948997Y-91499691D01*
X95004863Y-91315525D01*
X95019000Y-91171993D01*
X95019000Y-90376008D01*
X95011219Y-90297000D01*
X95297000Y-90297000D01*
X95297000Y-90647000D01*
X96455000Y-90647000D01*
X96455000Y-89304933D01*
X96709000Y-89304933D01*
X96709000Y-90647000D01*
X97867000Y-90647000D01*
X97867000Y-90297000D01*
X97817533Y-90048749D01*
X97720585Y-89814919D01*
X97579882Y-89604495D01*
X97400830Y-89425564D01*
X97190311Y-89285003D01*
X96956415Y-89188213D01*
X96907471Y-89180901D01*
X96709000Y-89304933D01*
X96455000Y-89304933D01*
X96256529Y-89180901D01*
X96207585Y-89188213D01*
X95973689Y-89285003D01*
X95763170Y-89425564D01*
X95584118Y-89604495D01*
X95443415Y-89814919D01*
X95346467Y-90048749D01*
X95297000Y-90297000D01*
X95011219Y-90297000D01*
X95004863Y-90232476D01*
X94948997Y-90048309D01*
X94858276Y-89878582D01*
X94736186Y-89729814D01*
X94587418Y-89607724D01*
X94417691Y-89517003D01*
X94233525Y-89461137D01*
X94042000Y-89442273D01*
X93850476Y-89461137D01*
X93666310Y-89517003D01*
X93496583Y-89607724D01*
X93347815Y-89729814D01*
X93225725Y-89878582D01*
X93135004Y-90048309D01*
X93079137Y-90232475D01*
X93065000Y-90376007D01*
X84934000Y-90376007D01*
X84934000Y-87727983D01*
X120355000Y-87726308D01*
X120355000Y-109120309D01*
G37*
%TD.AperFunction*%
%TD*%
D23*
X91882000Y-93374000D03*
X92782000Y-92674000D03*
X97782000Y-92274000D03*
X100082000Y-107374000D03*
X87900000Y-96200000D03*
X87900000Y-100800000D03*
D24*
X87900000Y-92800000D03*
X87900000Y-104200000D03*
D23*
X94042000Y-90774000D03*
X96582000Y-90774000D03*
X99122000Y-90774000D03*
X103110000Y-103938000D03*
X103110000Y-101938000D03*
X103110000Y-99938000D03*
X103110000Y-97938000D03*
X103110000Y-95938000D03*
X103110000Y-93938000D03*
X118110000Y-105948000D03*
X116110000Y-105948000D03*
X114110000Y-105948000D03*
X112110000Y-105948000D03*
X110110000Y-105948000D03*
X108110000Y-105948000D03*
X106110000Y-105948000D03*
X104110000Y-105948000D03*
X104110000Y-91948000D03*
X106110000Y-91948000D03*
X108110000Y-91948000D03*
X110110000Y-91948000D03*
X112110000Y-91948000D03*
X114110000Y-91948000D03*
X116110000Y-91948000D03*
X118110000Y-91948000D03*
M02*
