M48
; DRILL file {KiCad (5.1.10)-1} date 10/24/21 22:50:07
; FORMAT={-:-/ absolute / metric / decimal}
; #@! TF.CreationDate,2021-10-24T22:50:07+08:00
; #@! TF.GenerationSoftware,Kicad,Pcbnew,(5.1.10)-1
; #@! TF.FileFunction,Plated,1,2,PTH
FMAT,2
METRIC
T1C0.400
T2C0.650
T3C0.800
T4C0.900
%
G90
G05
T1
X91.882Y-93.374
X92.782Y-92.674
X97.782Y-92.274
X100.082Y-107.374
T2
X103.11Y-93.938
X103.11Y-95.938
X103.11Y-97.938
X103.11Y-99.938
X103.11Y-101.938
X103.11Y-103.938
X104.11Y-91.948
X104.11Y-105.948
X106.11Y-91.948
X106.11Y-105.948
X108.11Y-91.948
X108.11Y-105.948
X110.11Y-91.948
X110.11Y-105.948
X112.11Y-91.948
X112.11Y-105.948
X114.11Y-91.948
X114.11Y-105.948
X116.11Y-91.948
X116.11Y-105.948
X118.11Y-91.948
X118.11Y-105.948
T3
X94.042Y-90.774
X96.582Y-90.774
X99.122Y-90.774
T4
G00X88.7Y-92.8
M15
G01X87.1Y-92.8
M16
G05
G00X88.7Y-104.2
M15
G01X87.1Y-104.2
M16
G05
T0
M30
