%TF.GenerationSoftware,KiCad,Pcbnew,(5.1.10)-1*%
%TF.CreationDate,2021-10-24T22:50:07+08:00*%
%TF.ProjectId,ESP8266_Wakener,45535038-3236-4365-9f57-616b656e6572,rev?*%
%TF.SameCoordinates,Original*%
%TF.FileFunction,Soldermask,Top*%
%TF.FilePolarity,Negative*%
%FSLAX46Y46*%
G04 Gerber Fmt 4.6, Leading zero omitted, Abs format (unit mm)*
G04 Created by KiCad (PCBNEW (5.1.10)-1) date 2021-10-24 22:50:07*
%MOMM*%
%LPD*%
G01*
G04 APERTURE LIST*
%ADD10C,1.200000*%
%ADD11O,3.600000X2.000000*%
%ADD12O,1.400000X2.100000*%
%ADD13O,2.600000X1.200000*%
%ADD14O,1.200000X2.600000*%
G04 APERTURE END LIST*
D10*
%TO.C,J1*%
X87900000Y-96200000D03*
X87900000Y-100800000D03*
D11*
X87900000Y-92800000D03*
X87900000Y-104200000D03*
G36*
G01*
X91950000Y-94450000D02*
X91950000Y-95550000D01*
G75*
G02*
X91900000Y-95600000I-50000J0D01*
G01*
X89400000Y-95600000D01*
G75*
G02*
X89350000Y-95550000I0J50000D01*
G01*
X89350000Y-94450000D01*
G75*
G02*
X89400000Y-94400000I50000J0D01*
G01*
X91900000Y-94400000D01*
G75*
G02*
X91950000Y-94450000I0J-50000D01*
G01*
G37*
G36*
G01*
X91950000Y-101450000D02*
X91950000Y-102550000D01*
G75*
G02*
X91900000Y-102600000I-50000J0D01*
G01*
X89400000Y-102600000D01*
G75*
G02*
X89350000Y-102550000I0J50000D01*
G01*
X89350000Y-101450000D01*
G75*
G02*
X89400000Y-101400000I50000J0D01*
G01*
X91900000Y-101400000D01*
G75*
G02*
X91950000Y-101450000I0J-50000D01*
G01*
G37*
G36*
G01*
X91950000Y-96950000D02*
X91950000Y-98050000D01*
G75*
G02*
X91900000Y-98100000I-50000J0D01*
G01*
X89400000Y-98100000D01*
G75*
G02*
X89350000Y-98050000I0J50000D01*
G01*
X89350000Y-96950000D01*
G75*
G02*
X89400000Y-96900000I50000J0D01*
G01*
X91900000Y-96900000D01*
G75*
G02*
X91950000Y-96950000I0J-50000D01*
G01*
G37*
G36*
G01*
X91950000Y-98950000D02*
X91950000Y-100050000D01*
G75*
G02*
X91900000Y-100100000I-50000J0D01*
G01*
X89400000Y-100100000D01*
G75*
G02*
X89350000Y-100050000I0J50000D01*
G01*
X89350000Y-98950000D01*
G75*
G02*
X89400000Y-98900000I50000J0D01*
G01*
X91900000Y-98900000D01*
G75*
G02*
X91950000Y-98950000I0J-50000D01*
G01*
G37*
%TD*%
%TO.C,R1*%
G36*
G01*
X94082000Y-93674000D02*
X93482000Y-93674000D01*
G75*
G02*
X93257000Y-93449000I0J225000D01*
G01*
X93257000Y-92999000D01*
G75*
G02*
X93482000Y-92774000I225000J0D01*
G01*
X94082000Y-92774000D01*
G75*
G02*
X94307000Y-92999000I0J-225000D01*
G01*
X94307000Y-93449000D01*
G75*
G02*
X94082000Y-93674000I-225000J0D01*
G01*
G37*
G36*
G01*
X94082000Y-95324000D02*
X93482000Y-95324000D01*
G75*
G02*
X93257000Y-95099000I0J225000D01*
G01*
X93257000Y-94649000D01*
G75*
G02*
X93482000Y-94424000I225000J0D01*
G01*
X94082000Y-94424000D01*
G75*
G02*
X94307000Y-94649000I0J-225000D01*
G01*
X94307000Y-95099000D01*
G75*
G02*
X94082000Y-95324000I-225000J0D01*
G01*
G37*
%TD*%
%TO.C,R2*%
G36*
G01*
X95215333Y-94424000D02*
X95815333Y-94424000D01*
G75*
G02*
X96040333Y-94649000I0J-225000D01*
G01*
X96040333Y-95099000D01*
G75*
G02*
X95815333Y-95324000I-225000J0D01*
G01*
X95215333Y-95324000D01*
G75*
G02*
X94990333Y-95099000I0J225000D01*
G01*
X94990333Y-94649000D01*
G75*
G02*
X95215333Y-94424000I225000J0D01*
G01*
G37*
G36*
G01*
X95215333Y-92774000D02*
X95815333Y-92774000D01*
G75*
G02*
X96040333Y-92999000I0J-225000D01*
G01*
X96040333Y-93449000D01*
G75*
G02*
X95815333Y-93674000I-225000J0D01*
G01*
X95215333Y-93674000D01*
G75*
G02*
X94990333Y-93449000I0J225000D01*
G01*
X94990333Y-92999000D01*
G75*
G02*
X95215333Y-92774000I225000J0D01*
G01*
G37*
%TD*%
D12*
%TO.C,S1*%
X94042000Y-90774000D03*
X96582000Y-90774000D03*
X99122000Y-90774000D03*
%TD*%
%TO.C,C6*%
G36*
G01*
X96973666Y-94324000D02*
X97523666Y-94324000D01*
G75*
G02*
X97773666Y-94574000I0J-250000D01*
G01*
X97773666Y-95074000D01*
G75*
G02*
X97523666Y-95324000I-250000J0D01*
G01*
X96973666Y-95324000D01*
G75*
G02*
X96723666Y-95074000I0J250000D01*
G01*
X96723666Y-94574000D01*
G75*
G02*
X96973666Y-94324000I250000J0D01*
G01*
G37*
G36*
G01*
X96973666Y-92774000D02*
X97523666Y-92774000D01*
G75*
G02*
X97773666Y-93024000I0J-250000D01*
G01*
X97773666Y-93524000D01*
G75*
G02*
X97523666Y-93774000I-250000J0D01*
G01*
X96973666Y-93774000D01*
G75*
G02*
X96723666Y-93524000I0J250000D01*
G01*
X96723666Y-93024000D01*
G75*
G02*
X96973666Y-92774000I250000J0D01*
G01*
G37*
%TD*%
%TO.C,C4*%
G36*
G01*
X98707000Y-94324000D02*
X99257000Y-94324000D01*
G75*
G02*
X99507000Y-94574000I0J-250000D01*
G01*
X99507000Y-95074000D01*
G75*
G02*
X99257000Y-95324000I-250000J0D01*
G01*
X98707000Y-95324000D01*
G75*
G02*
X98457000Y-95074000I0J250000D01*
G01*
X98457000Y-94574000D01*
G75*
G02*
X98707000Y-94324000I250000J0D01*
G01*
G37*
G36*
G01*
X98707000Y-92774000D02*
X99257000Y-92774000D01*
G75*
G02*
X99507000Y-93024000I0J-250000D01*
G01*
X99507000Y-93524000D01*
G75*
G02*
X99257000Y-93774000I-250000J0D01*
G01*
X98707000Y-93774000D01*
G75*
G02*
X98457000Y-93524000I0J250000D01*
G01*
X98457000Y-93024000D01*
G75*
G02*
X98707000Y-92774000I250000J0D01*
G01*
G37*
%TD*%
D13*
%TO.C,U2*%
X102410000Y-103938000D03*
X102410000Y-101938000D03*
X102410000Y-99938000D03*
X102410000Y-97938000D03*
X102410000Y-95938000D03*
X102410000Y-93938000D03*
D14*
X118110000Y-106648000D03*
X116110000Y-106648000D03*
X114110000Y-106648000D03*
X112110000Y-106648000D03*
X110110000Y-106648000D03*
X108110000Y-106648000D03*
X106110000Y-106548000D03*
X104110000Y-106648000D03*
X104110000Y-91248000D03*
X106110000Y-91248000D03*
X108110000Y-91248000D03*
X110110000Y-91248000D03*
X112110000Y-91248000D03*
X114110000Y-91248000D03*
X116110000Y-91248000D03*
G36*
G01*
X117560000Y-89948000D02*
X118660000Y-89948000D01*
G75*
G02*
X118710000Y-89998000I0J-50000D01*
G01*
X118710000Y-92498000D01*
G75*
G02*
X118660000Y-92548000I-50000J0D01*
G01*
X117560000Y-92548000D01*
G75*
G02*
X117510000Y-92498000I0J50000D01*
G01*
X117510000Y-89998000D01*
G75*
G02*
X117560000Y-89948000I50000J0D01*
G01*
G37*
%TD*%
%TO.C,U1*%
G36*
G01*
X98070000Y-99686000D02*
X99570000Y-99686000D01*
G75*
G02*
X99620000Y-99736000I0J-50000D01*
G01*
X99620000Y-101736000D01*
G75*
G02*
X99570000Y-101786000I-50000J0D01*
G01*
X98070000Y-101786000D01*
G75*
G02*
X98020000Y-101736000I0J50000D01*
G01*
X98020000Y-99736000D01*
G75*
G02*
X98070000Y-99686000I50000J0D01*
G01*
G37*
G36*
G01*
X93470000Y-99686000D02*
X94970000Y-99686000D01*
G75*
G02*
X95020000Y-99736000I0J-50000D01*
G01*
X95020000Y-101736000D01*
G75*
G02*
X94970000Y-101786000I-50000J0D01*
G01*
X93470000Y-101786000D01*
G75*
G02*
X93420000Y-101736000I0J50000D01*
G01*
X93420000Y-99736000D01*
G75*
G02*
X93470000Y-99686000I50000J0D01*
G01*
G37*
G36*
G01*
X95770000Y-99686000D02*
X97270000Y-99686000D01*
G75*
G02*
X97320000Y-99736000I0J-50000D01*
G01*
X97320000Y-101736000D01*
G75*
G02*
X97270000Y-101786000I-50000J0D01*
G01*
X95770000Y-101786000D01*
G75*
G02*
X95720000Y-101736000I0J50000D01*
G01*
X95720000Y-99736000D01*
G75*
G02*
X95770000Y-99686000I50000J0D01*
G01*
G37*
G36*
G01*
X94620000Y-105986000D02*
X98420000Y-105986000D01*
G75*
G02*
X98470000Y-106036000I0J-50000D01*
G01*
X98470000Y-108036000D01*
G75*
G02*
X98420000Y-108086000I-50000J0D01*
G01*
X94620000Y-108086000D01*
G75*
G02*
X94570000Y-108036000I0J50000D01*
G01*
X94570000Y-106036000D01*
G75*
G02*
X94620000Y-105986000I50000J0D01*
G01*
G37*
%TD*%
%TO.C,C5*%
G36*
G01*
X99335000Y-97272999D02*
X98785000Y-97272999D01*
G75*
G02*
X98535000Y-97022999I0J250000D01*
G01*
X98535000Y-96522999D01*
G75*
G02*
X98785000Y-96272999I250000J0D01*
G01*
X99335000Y-96272999D01*
G75*
G02*
X99585000Y-96522999I0J-250000D01*
G01*
X99585000Y-97022999D01*
G75*
G02*
X99335000Y-97272999I-250000J0D01*
G01*
G37*
G36*
G01*
X99335000Y-98822999D02*
X98785000Y-98822999D01*
G75*
G02*
X98535000Y-98572999I0J250000D01*
G01*
X98535000Y-98072999D01*
G75*
G02*
X98785000Y-97822999I250000J0D01*
G01*
X99335000Y-97822999D01*
G75*
G02*
X99585000Y-98072999I0J-250000D01*
G01*
X99585000Y-98572999D01*
G75*
G02*
X99335000Y-98822999I-250000J0D01*
G01*
G37*
%TD*%
%TO.C,C3*%
G36*
G01*
X97557000Y-97248000D02*
X97007000Y-97248000D01*
G75*
G02*
X96757000Y-96998000I0J250000D01*
G01*
X96757000Y-96498000D01*
G75*
G02*
X97007000Y-96248000I250000J0D01*
G01*
X97557000Y-96248000D01*
G75*
G02*
X97807000Y-96498000I0J-250000D01*
G01*
X97807000Y-96998000D01*
G75*
G02*
X97557000Y-97248000I-250000J0D01*
G01*
G37*
G36*
G01*
X97557000Y-98798000D02*
X97007000Y-98798000D01*
G75*
G02*
X96757000Y-98548000I0J250000D01*
G01*
X96757000Y-98048000D01*
G75*
G02*
X97007000Y-97798000I250000J0D01*
G01*
X97557000Y-97798000D01*
G75*
G02*
X97807000Y-98048000I0J-250000D01*
G01*
X97807000Y-98548000D01*
G75*
G02*
X97557000Y-98798000I-250000J0D01*
G01*
G37*
%TD*%
%TO.C,C2*%
G36*
G01*
X95779000Y-97264666D02*
X95229000Y-97264666D01*
G75*
G02*
X94979000Y-97014666I0J250000D01*
G01*
X94979000Y-96514666D01*
G75*
G02*
X95229000Y-96264666I250000J0D01*
G01*
X95779000Y-96264666D01*
G75*
G02*
X96029000Y-96514666I0J-250000D01*
G01*
X96029000Y-97014666D01*
G75*
G02*
X95779000Y-97264666I-250000J0D01*
G01*
G37*
G36*
G01*
X95779000Y-98814666D02*
X95229000Y-98814666D01*
G75*
G02*
X94979000Y-98564666I0J250000D01*
G01*
X94979000Y-98064666D01*
G75*
G02*
X95229000Y-97814666I250000J0D01*
G01*
X95779000Y-97814666D01*
G75*
G02*
X96029000Y-98064666I0J-250000D01*
G01*
X96029000Y-98564666D01*
G75*
G02*
X95779000Y-98814666I-250000J0D01*
G01*
G37*
%TD*%
%TO.C,C1*%
G36*
G01*
X94001000Y-97256333D02*
X93451000Y-97256333D01*
G75*
G02*
X93201000Y-97006333I0J250000D01*
G01*
X93201000Y-96506333D01*
G75*
G02*
X93451000Y-96256333I250000J0D01*
G01*
X94001000Y-96256333D01*
G75*
G02*
X94251000Y-96506333I0J-250000D01*
G01*
X94251000Y-97006333D01*
G75*
G02*
X94001000Y-97256333I-250000J0D01*
G01*
G37*
G36*
G01*
X94001000Y-98806333D02*
X93451000Y-98806333D01*
G75*
G02*
X93201000Y-98556333I0J250000D01*
G01*
X93201000Y-98056333D01*
G75*
G02*
X93451000Y-97806333I250000J0D01*
G01*
X94001000Y-97806333D01*
G75*
G02*
X94251000Y-98056333I0J-250000D01*
G01*
X94251000Y-98556333D01*
G75*
G02*
X94001000Y-98806333I-250000J0D01*
G01*
G37*
%TD*%
M02*
