%TF.GenerationSoftware,KiCad,Pcbnew,(5.1.10)-1*%
%TF.CreationDate,2021-10-24T22:50:07+08:00*%
%TF.ProjectId,ESP8266_Wakener,45535038-3236-4365-9f57-616b656e6572,rev?*%
%TF.SameCoordinates,Original*%
%TF.FileFunction,Legend,Top*%
%TF.FilePolarity,Positive*%
%FSLAX46Y46*%
G04 Gerber Fmt 4.6, Leading zero omitted, Abs format (unit mm)*
G04 Created by KiCad (PCBNEW (5.1.10)-1) date 2021-10-24 22:50:07*
%MOMM*%
%LPD*%
G01*
G04 APERTURE LIST*
%ADD10C,0.120000*%
%ADD11C,0.152400*%
%ADD12C,0.150000*%
G04 APERTURE END LIST*
D10*
%TO.C,J1*%
X89020000Y-102900000D02*
X89775000Y-102900000D01*
X85850000Y-92355000D02*
X84800000Y-92355000D01*
X85850000Y-104645000D02*
X84800000Y-104645000D01*
X89020000Y-102900000D02*
X89020000Y-94100000D01*
%TO.C,R1*%
X93259500Y-94286258D02*
X93259500Y-93811742D01*
X94304500Y-94286258D02*
X94304500Y-93811742D01*
%TO.C,R2*%
X96037833Y-93811742D02*
X96037833Y-94286258D01*
X94992833Y-93811742D02*
X94992833Y-94286258D01*
%TO.C,S1*%
X97852000Y-92274000D02*
X97852000Y-89274000D01*
X100272000Y-89274000D02*
X100272000Y-92274000D01*
X92892000Y-89274000D02*
X100272000Y-89274000D01*
X92892000Y-92274000D02*
X92892000Y-89274000D01*
X100272000Y-92274000D02*
X92892000Y-92274000D01*
%TO.C,C6*%
X97758666Y-93908420D02*
X97758666Y-94189580D01*
X96738666Y-93908420D02*
X96738666Y-94189580D01*
%TO.C,C4*%
X99492000Y-93908420D02*
X99492000Y-94189580D01*
X98472000Y-93908420D02*
X98472000Y-94189580D01*
D11*
%TO.C,U2*%
X102489000Y-106934000D02*
X103251000Y-106934000D01*
X102489000Y-90932000D02*
X102489000Y-106934000D01*
X103251000Y-90932000D02*
X102489000Y-90932000D01*
D10*
%TO.C,U1*%
X99930000Y-99786000D02*
X99930000Y-105796000D01*
X93110000Y-102036000D02*
X93110000Y-105796000D01*
X99930000Y-105796000D02*
X98670000Y-105796000D01*
X93110000Y-105796000D02*
X94370000Y-105796000D01*
%TO.C,C5*%
X99570000Y-97688579D02*
X99570000Y-97407419D01*
X98550000Y-97688579D02*
X98550000Y-97407419D01*
%TO.C,C3*%
X97792000Y-97663580D02*
X97792000Y-97382420D01*
X96772000Y-97663580D02*
X96772000Y-97382420D01*
%TO.C,C2*%
X96014000Y-97680246D02*
X96014000Y-97399086D01*
X94994000Y-97680246D02*
X94994000Y-97399086D01*
%TO.C,C1*%
X94236000Y-97671913D02*
X94236000Y-97390753D01*
X93216000Y-97671913D02*
X93216000Y-97390753D01*
%TO.C,S1*%
D12*
X100520095Y-92078761D02*
X100662952Y-92126380D01*
X100901047Y-92126380D01*
X100996285Y-92078761D01*
X101043904Y-92031142D01*
X101091523Y-91935904D01*
X101091523Y-91840666D01*
X101043904Y-91745428D01*
X100996285Y-91697809D01*
X100901047Y-91650190D01*
X100710571Y-91602571D01*
X100615333Y-91554952D01*
X100567714Y-91507333D01*
X100520095Y-91412095D01*
X100520095Y-91316857D01*
X100567714Y-91221619D01*
X100615333Y-91174000D01*
X100710571Y-91126380D01*
X100948666Y-91126380D01*
X101091523Y-91174000D01*
X102043904Y-92126380D02*
X101472476Y-92126380D01*
X101758190Y-92126380D02*
X101758190Y-91126380D01*
X101662952Y-91269238D01*
X101567714Y-91364476D01*
X101472476Y-91412095D01*
%TO.C,U2*%
X100798380Y-107949904D02*
X101607904Y-107949904D01*
X101703142Y-107902285D01*
X101750761Y-107854666D01*
X101798380Y-107759428D01*
X101798380Y-107568952D01*
X101750761Y-107473714D01*
X101703142Y-107426095D01*
X101607904Y-107378476D01*
X100798380Y-107378476D01*
X100893619Y-106949904D02*
X100846000Y-106902285D01*
X100798380Y-106807047D01*
X100798380Y-106568952D01*
X100846000Y-106473714D01*
X100893619Y-106426095D01*
X100988857Y-106378476D01*
X101084095Y-106378476D01*
X101226952Y-106426095D01*
X101798380Y-106997523D01*
X101798380Y-106378476D01*
%TO.C,U1*%
X91654380Y-107441904D02*
X92463904Y-107441904D01*
X92559142Y-107394285D01*
X92606761Y-107346666D01*
X92654380Y-107251428D01*
X92654380Y-107060952D01*
X92606761Y-106965714D01*
X92559142Y-106918095D01*
X92463904Y-106870476D01*
X91654380Y-106870476D01*
X92654380Y-105870476D02*
X92654380Y-106441904D01*
X92654380Y-106156190D02*
X91654380Y-106156190D01*
X91797238Y-106251428D01*
X91892476Y-106346666D01*
X91940095Y-106441904D01*
%TD*%
M02*
